<svg id="Parallax_background" xmlns="http://www.w3.org/2000/svg" viewBox="0 0 1689 1098">
  <defs>
    <style>
      .cls-1 {
        fill: #7f7f7f;
      }
    </style>
  </defs>
  <g id="CloudsLeft">
    <path class="cls-1" d="M484.7,293.2s59.3,3.8,64.5,2.7,61.3-7.5,75.7-7.8c-8.2-.9-28.1-3.6-28.1-3.6l-24.1,1.9-38.8-1.9,57.5-5.8L563.3,275l-44.9-1.2-53,4.9-27,9.5-13.6,5,1.1,4.5,30.3,4.9Z"/>
    <path class="cls-1" d="M627.9,288.2a12.1,12.1,0,0,0-3-.1C627.7,288.4,629.1,288.5,627.9,288.2Z"/>
    <polygon class="cls-1" points="772.7 303.6 816.2 308.7 798.8 298.8 737.7 293.8 690 306.8 741.2 301.3 772.7 303.6"/>
    <path class="cls-1" d="M772.7,426.6l9.3-8.9H750.5l-6.8-5.7c2.5-.5,3.8-6.5,3.8-6.5l-41.5-.9H649.2l-20.9,3.1,12.5-7.7-5-6.7-54.4.9-30.5,4.1L520.7,400l-11.3-3.7L468.8,400l-11.1,1-14.8,12.7,8.2,5.4,20.3,7.5,37.1-7.5h71.8l68.9,7.5,27.4,2.6-14.3,9.3,18.4,6S824,430,828.7,430.3Z"/>
    <path class="cls-1" d="M317.9,337.4c-6.9-.4-77.3-3-83.1-3.2s-52.1,3.9-52.1,3.9l-18.2,12.1,27.1,1.5,33-6.9,7.1,15.2,9.5-6.7,13.2,3.6,41.1,10.7L312,366l-18.7-7.2L330,351l-21-7s53,.4,50.5-.3S317.9,337.4,317.9,337.4Z"/>
  </g>
</svg>
