<svg id="Parallax_background" xmlns="http://www.w3.org/2000/svg" viewBox="0 0 1689 1098">
  <defs>
    <style>
      .cls-1 {
        fill: #353535;
      }
    </style>
  </defs>
  <path id="Layer6" class="cls-1" d="M130.5,481.5,148,465.7h14.4l8.1-14.2h16.6v15l5.9,15,25.5,27,23.8,9.5,35.2,45.5h27s37,34,33,35,21,30,21,30h22.3l17.7-21,8-11,7,9h10l11.3,23,9.7,17h38.4l23.6-26,19-25,38-13,23-35,16-23,16,11,7,17,13,14,33,1,28-4s27,12,28,8,42-27,42-27L792,542s24.5-23.5,25.5-24,18-30,18-30l41-4.5,16-27,18,8,10,17,11,17,21-12,6-17,13,10,13,44,7.9,25,10.1,18,6,32,44,22,7,31,42,28,14,21h37.7l11.3-21,32-9,53,3L1281,657l46-1,17-31,24.5-33.5s38-10,41-8,22,15,25,22,32,1,32,1,19-15,25-20,36-26,36-26l44.8-45.5s18,55.5,17.6,62,12.1,442,12.1,442L108,1005Z"/>
</svg>
