<svg id="Parallax_background" xmlns="http://www.w3.org/2000/svg" viewBox="0 0 1689 1098">
  <defs>
    <style>
      .cls-1 {
        fill: #404040;
      }
    </style>
  </defs>
  <path id="Layer7" class="cls-1" d="M155,369.5l9.5,13,13,15,11,7,13,5,7-5,6.7,5,13.3,19,16,20h13s8,8,8,13,15,26,19,27,25,11,25,11V508l18.4,10,8.6,14.5,22,10h8.2v7.8s13.3-9.3,14,0,13.8,14.2,13.8,14.2h6.2l29.8,21,7,8,13,6,23,12,33,13,35,11s12.3,8,17.7,0,34.3-15,34.3-15l20-20V570.2l13-31.7L643.7,518l6.8,5.5,14,2,7.4-7.5,10.6,7.5,13-1,9.2-6.5,12.8-19.5,20-39s12-12,15-16,34-25,34-25l22-34s7-37,8-40S838,310.8,838,310.8l6.5,8.7,20-22,13-45,8-14,14,5,37,32v17.7l7,22.3,17,23,12,20,16,12,16,18,7,26,27,15,28,35v28.2l21,9.8,8-3,10,13v17.8l30,22.2,15,34,16,17s-7,11.4,0,17.2,25,3.8,25,3.8l25-20A144.9,144.9,0,0,0,1231,624c5.1,5.7,20.5,30.5,20.5,30.5s22-5,31-6S1313,648,1320,632s40.5-64.5,40.5-64.5l25-28,51-15s22-32,23-36,13-36,15-33,10,20,10,20,26-25,28-29,13-51,13-65,46-59,46-59L1577,1018,63,1004s35.5-645.5,41.5-645.5S155,369.5,155,369.5Z"/>
</svg>
