<svg id="Parallax_background" xmlns="http://www.w3.org/2000/svg" viewBox="0 0 1689 1098">
  <defs>
    <style>
      .cls-1 {
        fill: #141414;
      }
    </style>
  </defs>
  <g id="Layer2">
    <path class="cls-1" d="M1569.5,895.7l-32,18.8s-35.4,18.1-51,8l-38.3-21.2L1369,901l-72-34-32-75-32-35-35.4-.5a31.6,31.6,0,0,0,2-2.7,19.9,19.9,0,0,1-2.2,2.7h-5.7a92.9,92.9,0,0,0,7.5-13.5,55.8,55.8,0,0,1-8.8,11.5,88.3,88.3,0,0,0,8.4-15.1c-5.5,10-11.5,16.5-17.7,19.4a55.4,55.4,0,0,0,3.7-4.5l-1.6-.6c5.1-4.4,9.9-11.3,14.2-20.6-3.5,6.1-7.1,10.6-10.8,13.7a23.4,23.4,0,0,1-6.2,3,44.9,44.9,0,0,0,5.2-6,57.5,57.5,0,0,0,6-9.3,31.1,31.1,0,0,1-6.7,6.1,63.6,63.6,0,0,0,9.7-15.5,47.3,47.3,0,0,1-7.5,9.3,85,85,0,0,0,5.5-10.1,33.2,33.2,0,0,1-5,5.4,21.8,21.8,0,0,1-4.1,2.4,9.9,9.9,0,0,0-.2-1.7,53.1,53.1,0,0,0,7.6-11.9,26.5,26.5,0,0,1-4.1,4.1l1.5-4.1q-4.8,6-9.9,7.8c-.1-.6-.1-1.2-.2-1.8s1.6-2.2,2.4-3.4a45.3,45.3,0,0,0,6.7-9.5,21.6,21.6,0,0,1-4.9,4c.6-1.3,1.3-2.6,1.9-4h-1.7l-1.7-.4a11.3,11.3,0,0,1-6.5,1.8,20.9,20.9,0,0,0,2.9-3,30.8,30.8,0,0,0,3.7-4.7,10.7,10.7,0,0,1-3.8,1c.1-.7.1-1.3.2-2a37.7,37.7,0,0,0,2.6-3.9,10.5,10.5,0,0,1-6,1.6l-.7-1.8a15.8,15.8,0,0,0,6.4-5.4,8.3,8.3,0,0,1-3.7.8,24.5,24.5,0,0,0,5.9-7.2l-1.1-.7a10.2,10.2,0,0,1-4.5,2.1,21.7,21.7,0,0,0,.7-2.4,7.4,7.4,0,0,1-3.3-.2,19,19,0,0,0,2.9-3.3,5.7,5.7,0,0,1-2.5-.6,18.8,18.8,0,0,0,4.1-4.6c-.6,0-3.9.6-4.5.4s-.1-1.5,0-2.2l-3.9-1.8c.8,1.7,1.1,3.3,2.1,4.5a8.3,8.3,0,0,1-5.5-2.6,25.7,25.7,0,0,0,4.3,5.8,11,11,0,0,1-.2,1.8,9.3,9.3,0,0,1-4.2-1.7l-1.2.5.6,2.8c.5,1.2.9,2.3,1.3,3.4a20.6,20.6,0,0,0,4.9,4.9l-1.4,1.3a7.6,7.6,0,0,1-3,0,8.8,8.8,0,0,1-.5,1.5,15.5,15.5,0,0,0,.5,2.3,16.5,16.5,0,0,1-5.9-4.7c.7,1.7,1.4,3.4,2.2,5a24,24,0,0,0,6.6,7.1,13.6,13.6,0,0,1-7.5-4.2,11.2,11.2,0,0,1-2.9-2.1c2.7,5.1,5.7,8.9,8.8,11.2a18.8,18.8,0,0,1-8.4-6.3c.3,1,.5,2.1.8,3.1a46,46,0,0,0,3.5,5.9,21.7,21.7,0,0,1-5.1-3.9q1.5,3.2,3,5.7a12.2,12.2,0,0,1-2.8-1.4c2.9,4.6,6,8,9.2,10.1-3.9-1.1-7.7-4.1-11.4-9.1a70.4,70.4,0,0,0,4,7.3,32.5,32.5,0,0,1-5.8-5.9c3.4,6.3,7.1,11,10.9,14V733a10.3,10.3,0,0,1-3.5-.6,32.1,32.1,0,0,1-8.7-8.9c.2,1,.4,2,.5,3l-.6,1.1a74.5,74.5,0,0,0,5.6,9.5,23.4,23.4,0,0,1-4.2-3.2c0,.7-.1,1.3-.1,1.9a58.3,58.3,0,0,0,6.5,9.3,30,30,0,0,1-6.9-5.8,51.8,51.8,0,0,0,3.3,6.2,40.3,40.3,0,0,1-6.8-7.3l1.5,4.5a47.6,47.6,0,0,0,10.7,13.2l-2.1.4c-4.6-3-9.1-8-13.3-15.1,3.6,7.6,7.6,13.5,11.9,17.8-.5.2-.8,2.6-.4,3.5l-1.6-1.3c.4,2.9.9,6.4,1.4,9.1l-.4.2-14.3,16a95.1,95.1,0,0,0,6.4-13.5,47,47,0,0,1-9.1,13.4,95.7,95.7,0,0,0,5.5-11.1,25.4,25.4,0,0,1-4.9,5.3,14.7,14.7,0,0,1-7.7,4.6c5.1-3.3,9.9-10.6,14.2-21.4.7-2.2,1.3-4.6,1.9-7a16.6,16.6,0,0,0,3.3,1.6l.4-.3a62.1,62.1,0,0,1-9-12.5l.6,7.8a26.1,26.1,0,0,0,4,3l-.7.6a7,7,0,0,1-1.6,1c-1,1.5-1.9,4.1-2.9,5.1s-4.5,5.3-5.2,5.5-3,1.4-4.3,2,7.9-10.9,7.5-11.4-8.6,5.6-10.2,5.4c4.1-2.3,8.1-7.5,11.7-15.5.5-2,1.1-4.1,1.6-6.2-3.9,8.1-8.1,12.8-12.3,14.2l-.9-2c3.4-2.2,6.6-6.4,9.5-12.6-2.5,3.6-5.1,5.9-7.6,6.8.6-1.2,1.2-2.5,1.7-3.8s.5-2.2.8-3.2a62.2,62.2,0,0,0,6.1-12.4c-3.8,7.4-7.8,11.1-11.9,11.4,4.3-1.9,8.4-7.8,12-17.1a28.3,28.3,0,0,1-4,5.1c-2.8,3.6-5.7,5.3-8.7,5a19.3,19.3,0,0,0,.1-2.4,18.3,18.3,0,0,0,4.6-4.9,45.7,45.7,0,0,0,4.2-8.3c-2.7,4.1-5.6,6.1-8.4,6l.3-2.4a23,23,0,0,0,3.5-4.7,7.7,7.7,0,0,1-3-.3c0-.8-.1-1.5-.1-2.3a23.9,23.9,0,0,0,5.2-7.6,11,11,0,0,1-2.7,2.3l.3.8a1.7,1.7,0,0,0-3.3-.1,12.9,12.9,0,0,0,2.1-2,43.5,43.5,0,0,1-2.9-7.1c.3,2.6.7,5.2,1.1,7.7a52.5,52.5,0,0,1-2.4-5.3c.6,3.9,1.3,7.8,2,11.4a40.7,40.7,0,0,1-2.1-3.7,67.5,67.5,0,0,1-2.4-7.9c.4,4,.8,8,1.4,11.9a45.7,45.7,0,0,1-4.1-9.1,59.1,59.1,0,0,0,4.9,12.7c0,.8.1,1.7.1,2.5s.7,2,1.1,2.9c-2.1,0-4.1-1.1-6.2-3.2,2.1,3.8,4.2,6.6,6.5,8.1q-3.6,0-7.2-4.2c.6,1.8,1.2,3.5,1.9,5.1a17.7,17.7,0,0,0-.1,2.3l1.5,4a13,13,0,0,1-5.2-4.2,8.5,8.5,0,0,1-1.7-.6l-1.6-.7,2.1,7.1a42.2,42.2,0,0,0,6.5,10.6,8.5,8.5,0,0,1-3.6-1.2,15.4,15.4,0,0,1-3.8-3.2q1.2,3.3,2.4,6.3c2.5,4.5,5.3,7.7,8.1,9.4a8.8,8.8,0,0,1-5.2-1c.2,1,.3,2,.5,3-3.4-2.2-6.7-6.4-9.8-12.7,3.1,8,6.5,14,10.1,17.7-2.5-1.2-5.1-3.6-7.5-7.1a32.8,32.8,0,0,1-4.4-6.6c3.9,10.7,8.4,18.1,13.1,21.9-2.8-1-5.6-3.2-8.3-6.8a11.9,11.9,0,0,1-2.5-1.8c.9,2.7,1.9,5.2,2.9,7.5a52.4,52.4,0,0,1-7.1-11.4,90.3,90.3,0,0,0,8.1,18c.7,1.6,1.3,3.2,2,4.7a5.8,5.8,0,0,1-2.3-.2,35.4,35.4,0,0,0,7.3,9.1c-6.4-2.6-12.6-11.1-18.2-25.2,1.6,5.2,3.3,10.1,5.1,14.4a20.5,20.5,0,0,1-2.3-2c.9,2.8,1.7,5.4,2.6,7.9,3.5,7.3,7.3,12.7,11.2,16a20.8,20.8,0,0,1-8.2-6c1.2,2.5,2.4,4.9,3.7,7.1-3.6-3-7.2-7.7-10.6-14.2a110.3,110.3,0,0,0,5.2,11.3c0,3.3,2.5,6.4,3.9,9.5-8.7,7-30.9,24.3-87.3,67.4l-20-13s-20.4-1.8-37.4-4.1l9.9-25.1c-1.4,2.5-4,4.8-5.5,6.7a27.2,27.2,0,0,1-3.8,3.8,20.7,20.7,0,0,1-5.9,4.7,82.9,82.9,0,0,0,4.4-7.5,17.5,17.5,0,0,1-6.5,4.3c4.8-4.3,9.4-11.9,13.5-22.5-2.9,5.9-6,10.4-9.1,13.4a95.7,95.7,0,0,0,5.5-11.1,25.4,25.4,0,0,1-4.9,5.3A14.7,14.7,0,0,1,965,840c5.1-3.3,9.9-10.6,14.2-21.4.8-2.8,1.6-5.6,2.3-8.6a15.3,15.3,0,0,1-1.8,1.8l-1.6,1c-1,1.5-1.9,4.1-2.9,5.1s-4.5,5.3-5.2,5.5-3,1.4-4.3,2,7.9-11,7.5-11.4-8.6,5.6-10.2,5.4c4.1-2.3,8.1-7.5,11.7-15.5.5-2,1.1-4.1,1.6-6.2-3.9,8.1-8.1,12.8-12.3,14.2l-.9-2.1c3.4-2.1,6.6-6.3,9.5-12.5-2.5,3.6-5.1,5.9-7.6,6.8.6-1.2,1.2-2.5,1.7-3.8s.5-2.2.8-3.2a62.2,62.2,0,0,0,6.1-12.4c-3.8,7.3-7.8,11.1-11.9,11.4,4.3-1.9,8.4-7.8,12-17.1a28.3,28.3,0,0,1-4,5.1c-2.8,3.6-5.7,5.3-8.7,5a19.3,19.3,0,0,0,.1-2.4,19.9,19.9,0,0,0,4.6-4.9,45.7,45.7,0,0,0,4.2-8.3c-2.7,4.1-5.6,6.1-8.4,6l.3-2.4a21.3,21.3,0,0,0,3.5-4.8,6.1,6.1,0,0,1-3-.2c0-.8-.1-1.6-.1-2.3a23.9,23.9,0,0,0,5.2-7.6,10.5,10.5,0,0,1-2.7,2.2l.3.9-.5-.8a5.5,5.5,0,0,1-2.8.7,12.9,12.9,0,0,0,2.1-2,43.5,43.5,0,0,1-2.9-7.1c.3,2.6.7,5.2,1.1,7.7a52.5,52.5,0,0,1-2.4-5.3c.6,3.9,1.3,7.7,2,11.4a25.6,25.6,0,0,1-2-3.7,56.3,56.3,0,0,1-2.5-7.9c.4,4,.8,8,1.4,11.8a43.2,43.2,0,0,1-4.1-9.1,58.1,58.1,0,0,0,4.9,12.8c0,.8.1,1.7.1,2.5s.7,2,1.1,2.9c-2.1,0-4.1-1.1-6.2-3.2,2.1,3.8,4.2,6.6,6.5,8.1q-3.6,0-7.2-4.2c.6,1.8,1.2,3.5,1.9,5.1a17.7,17.7,0,0,0-.1,2.3l1.5,4a13,13,0,0,1-5.2-4.2l-1.7-.7a4.6,4.6,0,0,1-1.6-.7c.7,2.5,1.4,4.9,2.1,7.1a41.2,41.2,0,0,0,6.5,10.7,8.5,8.5,0,0,1-3.6-1.2,14,14,0,0,1-3.8-3.3c.8,2.3,1.6,4.4,2.4,6.4,2.5,4.5,5.3,7.6,8.1,9.3a8.1,8.1,0,0,1-5.2-.9c.2,1,.3,2,.5,3-3.4-2.2-6.7-6.4-9.8-12.7,3.1,8,6.5,14,10.1,17.7-2.5-1.2-5.1-3.6-7.5-7.1a32.8,32.8,0,0,1-4.4-6.6c3.9,10.7,8.4,18.1,13.1,21.9-2.8-1-5.6-3.2-8.3-6.8a17.1,17.1,0,0,1-2.5-1.8c.9,2.7,1.9,5.2,2.9,7.5a44.5,44.5,0,0,1-4.3-6c.7-1.3,1.4-2.6,2-4a30.3,30.3,0,0,1-2.3,3.5c-.8-1.5-1.7-3.2-2.5-4.9.6,1.9,1.3,3.7,2,5.5a20.2,20.2,0,0,1-3.8,3.9l-.6-1.4c.9-1.3,1.7-2.6,2.6-4.1a9.8,9.8,0,0,1-2.8.8,10.5,10.5,0,0,1-8.1,2.1c3.1-1.1,6-3.6,8.8-7.6a8.7,8.7,0,0,1-3.7,1.1,39.2,39.2,0,0,0,1.6-3.6,9.3,9.3,0,0,1-5.6.9,16.3,16.3,0,0,1-1.7-2,15.6,15.6,0,0,0,4.9-3.9,33.4,33.4,0,0,0,4.5-6.8,8.4,8.4,0,0,1-3.2,1.2,50.4,50.4,0,0,0,2.6-5.2,8.4,8.4,0,0,1-3.5,1.3,7.4,7.4,0,0,1-6.8-.1l-1.2-2.6c3.6.5,7.1-1.8,10.3-6.6l-1.1-1.2c-2.7,2.3-5.5,2.7-8.2,1.4a10,10,0,0,0,3.2-2.4,19,19,0,0,0,5.2-6.3l-1.4-.8a4.6,4.6,0,0,1-2-.5,6.2,6.2,0,0,1-4.3-1.1,9.8,9.8,0,0,0,4.1-3.4l-.3-2a4.5,4.5,0,0,1-2.8-.5l-.8,1.5c-2-.1-4-1.4-6-4.1.3,1.4.7,2.8,1.1,4.1a19,19,0,0,0,4.6,6.5c-2.3-.2-4.5-1.8-6.7-4.9-.2.5-.3,1-.5,1.6a42.7,42.7,0,0,0,3.5,7.4,4.7,4.7,0,0,1-1.5.6,12.3,12.3,0,0,1-3.3-2.9,40.9,40.9,0,0,0,1.8,5.6,4.3,4.3,0,0,1-1.6-.1,64.9,64.9,0,0,0,2.7,6.4,25.1,25.1,0,0,0,4.7,6c-2.8-.5-5.7-2.7-8.4-6.6a33.4,33.4,0,0,0,6.9,10.3l-.9,1.7a19.8,19.8,0,0,0,4.9,4.1,8.4,8.4,0,0,1-4.7.5c-2.9-1.2-5.8-3.9-8.5-8.3a43.9,43.9,0,0,0,6.7,11.4,16,16,0,0,1-5.8-4.7,15,15,0,0,1-2.3-1.7,60,60,0,0,0,5.5,10.8l.3,2.7a5.7,5.7,0,0,1-1.3.8,23.6,23.6,0,0,1-5-5c4.2,8.4,8.9,13.6,13.7,15.3-5.7-.4-11.4-5.6-16.6-16a64,64,0,0,0,7.4,14.4,31.3,31.3,0,0,0,4.8,6.5,10.1,10.1,0,0,1-3,.1,19.6,19.6,0,0,1-3.5-1.4l1.1,2a8.3,8.3,0,0,0-.8,1.2,9.3,9.3,0,0,1-1.4-1.4,9.3,9.3,0,0,1,.5-1l-.7.8a33.7,33.7,0,0,1-2.7-3.4,25.5,25.5,0,0,0,1.7-3.3,18.6,18.6,0,0,1-2.2,2.5l-.9-1.2.5-1.2-.7.8c-.5-.7-.9-1.5-1.4-2.3l1.2,2.5a30.8,30.8,0,0,1-2.4,2.6l-.7-1.4a8.8,8.8,0,0,1,.5,1.5A18.2,18.2,0,0,1,904,839c-.1-.6-.1-1.2-.2-1.8a35.3,35.3,0,0,0,2.4-3.5,42.1,42.1,0,0,0,6.7-9.4,21.6,21.6,0,0,1-4.9,4c.7-1.3,1.3-2.6,1.9-4h-1.7l-1.6-.4a11.8,11.8,0,0,1-6.6,1.8,27.6,27.6,0,0,0,2.9-3,30.8,30.8,0,0,0,3.7-4.7,10.7,10.7,0,0,1-3.8,1c.1-.7.1-1.3.2-2a37.7,37.7,0,0,0,2.6-3.9,10.5,10.5,0,0,1-6,1.6l-.7-1.8a16.7,16.7,0,0,0,6.4-5.4,8,8,0,0,1-3.7.8,25.9,25.9,0,0,0,5.9-7.2l-1.1-.8a10.5,10.5,0,0,1-4.5,2.2,21.7,21.7,0,0,0,.7-2.4,7.4,7.4,0,0,1-3.3-.2,24.6,24.6,0,0,0,3-3.3,5.8,5.8,0,0,1-2.6-.6,18.8,18.8,0,0,0,4.1-4.6c-.6,0-3.9.6-4.5.4s-.1-1.5,0-2.2l-3.9-1.8c.8,1.7,1.1,3.3,2.1,4.5a7.9,7.9,0,0,1-5.4-2.6,22.9,22.9,0,0,0,4.2,5.8,11,11,0,0,1-.2,1.8,8.5,8.5,0,0,1-4.2-1.8,3.4,3.4,0,0,1-1.2.6,22.9,22.9,0,0,0,.7,2.8l1.2,3.4a20.6,20.6,0,0,0,4.9,4.9,8.6,8.6,0,0,1-1.4,1.3,7.6,7.6,0,0,1-3,0,8.8,8.8,0,0,1-.5,1.5c.2.8.3,1.6.5,2.3a16.5,16.5,0,0,1-5.9-4.7c.7,1.7,1.4,3.4,2.2,5a22.4,22.4,0,0,0,6.6,7,13.2,13.2,0,0,1-7.5-4.1,11.2,11.2,0,0,1-2.9-2.1c2.7,5.1,5.7,8.8,8.8,11.1-2.8-.8-5.7-2.9-8.4-6.2.3,1,.5,2.1.8,3.1a46,46,0,0,0,3.5,5.9,21.7,21.7,0,0,1-5.1-3.9c1,2,2,4,3,5.7a12.2,12.2,0,0,1-2.8-1.4c2.9,4.6,6,8,9.3,10-4-1-7.8-4-11.5-9a55.8,55.8,0,0,0,4.1,7.3,29.8,29.8,0,0,1-5.1-5c.6-2,1.1-4,1.6-6l-1.8,1.7a5.4,5.4,0,0,1-1.6,1c-1,1.5-1.9,4.1-2.9,5.1s-4.5,5.3-5.2,5.5-3,1.4-4.3,2,7.9-11,7.5-11.4-8.6,5.6-10.2,5.4c4.2-2.3,8.1-7.5,11.7-15.5.5-2,1.1-4.1,1.6-6.2-3.9,8.1-8.1,12.8-12.3,14.2l-.9-2c3.4-2.2,6.6-6.4,9.5-12.6-2.5,3.6-5,5.9-7.6,6.8.6-1.2,1.2-2.5,1.7-3.8s.5-2.2.8-3.2a57.3,57.3,0,0,0,6.1-12.4c-3.8,7.3-7.8,11.1-11.9,11.4,4.3-1.9,8.4-7.8,12-17.1a24.5,24.5,0,0,1-4,5.1c-2.8,3.6-5.7,5.3-8.7,5a19.3,19.3,0,0,0,.1-2.4,19.9,19.9,0,0,0,4.6-4.9,45.7,45.7,0,0,0,4.2-8.3c-2.7,4.1-5.6,6.1-8.4,6l.3-2.4a23,23,0,0,0,3.5-4.7,7.7,7.7,0,0,1-3-.3c0-.8-.1-1.6-.1-2.3a23.9,23.9,0,0,0,5.2-7.6,10.5,10.5,0,0,1-2.7,2.2l.3.9-.5-.8a5.5,5.5,0,0,1-2.8.7,9.8,9.8,0,0,0,2.1-2,54.8,54.8,0,0,1-2.9-7.1c.3,2.6.7,5.2,1.1,7.7a52.7,52.7,0,0,1-2.3-5.3c.5,3.9,1.2,7.8,2,11.4a18.8,18.8,0,0,1-2.1-3.7,56.3,56.3,0,0,1-2.5-7.9c.4,4,.8,8,1.4,11.9a48.5,48.5,0,0,1-4.1-9.1,64.9,64.9,0,0,0,4.9,12.7,20.9,20.9,0,0,1,.1,2.5c.4,1,.7,2,1.1,2.9-2,0-4.1-1.1-6.1-3.2,2,3.8,4.1,6.6,6.4,8.1q-3.6,0-7.2-4.2c.6,1.8,1.2,3.5,1.9,5.1s-.1,1.5-.1,2.3l1.5,4a13.7,13.7,0,0,1-5.2-4.2l-1.7-.7a5.2,5.2,0,0,1-1.6-.6c.7,2.4,1.4,4.8,2.2,7a41.3,41.3,0,0,0,6.4,10.7,8.5,8.5,0,0,1-3.6-1.2,17.4,17.4,0,0,1-3.8-3.2l2.4,6.3c2.5,4.5,5.3,7.6,8.1,9.3a8.1,8.1,0,0,1-5.2-.9c.2,1,.3,2,.5,3-3.4-2.2-6.7-6.4-9.8-12.7,3.1,8,6.5,14,10.1,17.7-2.5-1.2-5.1-3.6-7.5-7.1a32.8,32.8,0,0,1-4.4-6.6c3.9,10.7,8.4,18.1,13.2,21.9-2.9-1-5.7-3.2-8.4-6.8a11.9,11.9,0,0,1-2.5-1.8c1,2.7,1.9,5.2,2.9,7.5a52.4,52.4,0,0,1-7.1-11.4,87.2,87.2,0,0,0,8.2,18c.6,1.6,1.2,3.2,1.9,4.7a9,9,0,0,1-2.3-.2,35.4,35.4,0,0,0,7.3,9.1c-6.4-2.6-12.6-11.1-18.2-25.3,1.6,5.3,3.3,10.1,5.1,14.5l-2.3-2c.9,2.8,1.7,5.4,2.6,7.9,3.5,7.3,7.3,12.7,11.2,16a21.5,21.5,0,0,1-8.2-6c1.2,2.5,2.5,4.9,3.7,7.1-3.6-3-7.2-7.7-10.6-14.2a121.2,121.2,0,0,0,5.2,11.3c0,2.2,1.1,4.2,2.3,6.3l-44.6,9-25.4,14H744.5l-10.2-9.2s.2-17.8,0-18.7-38.8-5.1-38.8-5.1l-48,5.1H625.2l-8.7-12.9V829.5l-14.8,7-111.2-7c-4-4-16-1-16-1l-35-1s-14-10-26-12-6.7,16.8-6.7,16.8V848l-14.3-6.5L382.2,848l-5.9,11.3v14.2H352.5s-66-15-70.1-18.9l-99.9-9.1-30-23-7.4,5.1L89.9,1066.2s1486.6,23.3,1494.6,23.3S1569.5,895.7,1569.5,895.7ZM876.2,865.4l-1.2-1.8,1.5-2.8-2.1,1.9-.9-1.4c.9-1.1,1.7-2.3,2.6-3.6a47,47,0,0,0,2.9,5,4.3,4.3,0,0,1-1,.9Zm-4.1-2.4a4.1,4.1,0,0,1,.1,1.1l-2.2,1.1Zm1,3.8.6.5-1.6,1Zm1.7-11.5c0,.1.1.1.1.2l-.5.5A2.5,2.5,0,0,0,874.8,855.3Zm1.5,2.1,2.1-3.5a9.8,9.8,0,0,0,.5,1.6c.9,1.6,1.9,3,2.8,4.4a19.9,19.9,0,0,1-1.9,2.1A42.7,42.7,0,0,1,876.3,857.4Zm9.3-7.5a19.7,19.7,0,0,1-3.9-2.9,15.4,15.4,0,0,0,.8-1.9C883.5,846.8,884.6,848.4,885.6,849.9Zm.1,5.4-.6.7a29.9,29.9,0,0,1-4.2-3.9c.9,1.9,1.9,3.7,2.9,5.4l-.2.2a30.7,30.7,0,0,1-4.7-4.8q1.2-2.4,2.4-5.1v.8A59.8,59.8,0,0,0,885.7,855.3Zm2.1,2.5a10,10,0,0,1-1.9-1.2l.3-.7C886.7,856.6,887.3,857.2,887.8,857.8Zm-4.2,4.7a39.4,39.4,0,0,0,6,6.2l-2.1.4a29.7,29.7,0,0,1-4.9-4Zm26.4,5,.4-.5-1.6-.7a38.5,38.5,0,0,0,4.8-5l2.4,2.9-2.5,2.6Zm1.9-15.9c1-1.3,2-2.6,3-4.1a10,10,0,0,0,.8,1.4,45.7,45.7,0,0,1-3.4,3.1C912.2,851.9,912.1,851.7,911.9,851.6Zm.8-4.5,1.8-3,.4.8Zm3.3,2.3c.7,1.2,1.5,2.4,2.3,3.5q-1.3,1.8-2.7,3.3a19.9,19.9,0,0,1-2.2-2.7C914.3,852.2,915.1,850.8,916,849.4Zm2.9,4.3a40.3,40.3,0,0,0,2.6,3.2,27.5,27.5,0,0,1-1.9,2.8l-1.5-.9-1.5-1.5Zm4.6,5.2.6,2.6-1.9-.6,1.2-2.2C923.4,858.8,923.5,858.8,923.5,858.9Zm-1.9,1.8-1.2-.6,1.5-2.8,1.2,1.2Zm-4.4,4.7.3.3-.4.4h-.4A1.8,1.8,0,0,0,917.2,865.4Zm26.7-27.1-.9-.8.3-.6Zm.1,5.2-2.5,2.3a14.8,14.8,0,0,1-6.1,2.1,40.7,40.7,0,0,0,5-5.7c.7-1.1,1.3-2.3,2-3.5C942.9,840.3,943.4,841.9,944,843.5Zm6.6-6.6c.4,1.1.9,2.2,1.4,3.3a9,9,0,0,1-2.3-.2,32.8,32.8,0,0,0,2,3.1l-1,1.5a32.3,32.3,0,0,1-2.3-2.7l1.5-3.1A14.6,14.6,0,0,0,950.6,836.9Zm-8.3,14.8.6,1.5a7.5,7.5,0,0,1-2.1.2Zm4.9,2.6,1,2-1.5.6-.4-.4Zm1.6,3a15.1,15.1,0,0,0,1.1,2.2h-.8l-1.3-1.4Zm-1.6-3.1.9-2.3c0-.1.1-.2.2-.3a40.5,40.5,0,0,0,2.3,3.4l-1.7,1Zm-.2-4.7a26.7,26.7,0,0,1-3.3,3.4,16.3,16.3,0,0,0-1.1-1.7c1-1.3,2-2.7,3-4.3Zm-4.8,10.8a26.8,26.8,0,0,0,3.3-1.8h0l-.9,2-2.6.6C942.1,860.7,942.2,860.4,942.2,860.3Zm3.5-.4a.6.6,0,0,0,.1.4l-1,.2Zm8.4-.2a20.8,20.8,0,0,1-4.5-3.2l1.2-1.3a29.5,29.5,0,0,0,4.4,4.8Zm2.9-10.6a18,18,0,0,1-5.9-4.1l.7-1.8A30.8,30.8,0,0,0,957,849.1Zm-12.8-25.4a91.1,91.1,0,0,0,5.8,11.7,43.9,43.9,0,0,1-3,4.5,64,64,0,0,1-6.1-11.2A43.4,43.4,0,0,0,944.2,823.7Zm-4.8,1.9c.1.5.3,1,.4,1.5a14.1,14.1,0,0,1-3.5,2.1A22.4,22.4,0,0,0,939.4,825.6Zm1.1,3.6c.9,2.6,1.8,5.1,2.7,7.4l-.6.6-1-.9a7.4,7.4,0,0,1,.4,1.4,15.5,15.5,0,0,1-6.6,3.4l1.2-2.9,2.6-4.2a10.5,10.5,0,0,1-5.7,1A20.4,20.4,0,0,0,940.5,829.2Zm-15.9,19.1a14.4,14.4,0,0,1-2.5-.8l.5-.9Zm-2.1-1.8a4.1,4.1,0,0,1-.5.9,15.2,15.2,0,0,1-3-1.7,17,17,0,0,1-1.9-1.9l1.2-2.3A44.2,44.2,0,0,0,922.5,846.5Zm-2.6-8.2,2.1,3.5a17.4,17.4,0,0,1-2.7-2.2ZM918,841l-1.6,2.1-.8-.9,1.4-2.7Zm-4.7-8.2.6,1.2-1.5,1.3Zm1.2,2.3c.7,1.4,1.4,2.6,2.1,3.8a19.9,19.9,0,0,1-1.9,2.1l-2.1-2.9Zm-2.4,3.8c.5,1.1.9,2.2,1.4,3.2l-.3.3a21.8,21.8,0,0,1-4.1,2.4,8.8,8.8,0,0,0-.2-1.7A46.3,46.3,0,0,0,912.1,838.9Zm-1.4,18.3,1.5,2.3h0a23.4,23.4,0,0,1-6.2,3A41.2,41.2,0,0,0,910.7,857.2Zm-29.2-23.8.6-2.2c3.2,5.7,6.6,10,10.2,12.8v1.8a19.7,19.7,0,0,1-3.5-.6,33.8,33.8,0,0,1-8.6-8.7C880.7,835.5,881.1,834.4,881.5,833.4Zm-1.3,3.2c.1.9.3,1.8.4,2.7l-.6,1.1c.8,1.6,1.6,3,2.4,4.4a49.8,49.8,0,0,1-4.4,7l-.6-.8a5.6,5.6,0,0,0,.4,1.2c-.9,1.2-1.9,2.2-2.8,3.2a.3.3,0,0,0-.1-.2,90.3,90.3,0,0,0,5-10.3,25.4,25.4,0,0,1-4.9,5.3,14.7,14.7,0,0,1-7.7,4.6C871.8,851.8,876.2,845.6,880.2,836.6Zm0,34.5h.2l.4-.3-.4-.3,1.5-3.7a40.1,40.1,0,0,0,4.2,4.9c-.2,0-.3.3-.4.6l-1.8.4c-.3-1.6-.5-2.9-.6-3.5l-2.5,1.6c.7.8,1.4,1.4,2.1,2.1l-3.7.7Z"/>
  </g>
</svg>
