<svg id="Parallax_background" xmlns="http://www.w3.org/2000/svg" viewBox="0 0 1689 1098">
  <defs>
    <style>
      .cls-1 {
        fill: #191919;
      }
    </style>
  </defs>
  <g id="Layer3">
    <path class="cls-1" d="M1563.5,674H1536l-25,28-11,36-18,27.2L1459,807l-56,35c-6,0-24-1-36-2s-41,6-59.9,12.1S1277,857,1259,852s-31,1-47,0-72-12-83.3-16-46.7,1-53.7,0-21.5-10-21.5-10l-22.2-30.3,7.7-19.5a31.5,31.5,0,0,1-3.6,4.3,15.5,15.5,0,0,1-2.5,2.6,12.8,12.8,0,0,1-3.9,3,31.7,31.7,0,0,0,2.9-4.9,11.8,11.8,0,0,1-4.2,2.9c3.1-2.9,6.1-7.8,8.8-14.8a32.6,32.6,0,0,1-5.9,8.8,55.5,55.5,0,0,0,3.5-7.3,18.3,18.3,0,0,1-3.1,3.5,9.8,9.8,0,0,1-5.1,3c3.3-2.2,6.5-6.9,9.3-14l1.5-5.6-1.2,1.2-1,.6c-.7,1-1.2,2.7-1.9,3.3s-3,3.5-3.4,3.6a7.8,7.8,0,0,1-2.8,1.3c-.3-.2,5.2-7.1,4.9-7.4s-5.6,3.7-6.7,3.5c2.7-1.5,5.3-4.9,7.6-10.1.4-1.3.8-2.7,1.1-4.1-2.5,5.3-5.3,8.4-8.1,9.3a6.9,6.9,0,0,0-.5-1.3c2.2-1.4,4.3-4.2,6.2-8.2a11.1,11.1,0,0,1-5,4.4,18.9,18.9,0,0,0,1.1-2.5,16,16,0,0,0,.5-2.1,33.9,33.9,0,0,0,4-8.1c-2.4,4.8-5.1,7.3-7.7,7.4,2.8-1.2,5.5-5,7.8-11.1a15.8,15.8,0,0,1-2.6,3.3c-1.8,2.4-3.8,3.5-5.7,3.3,0-.5.1-1.1.1-1.6a13.4,13.4,0,0,0,3-3.2,45.1,45.1,0,0,0,2.7-5.4c-1.8,2.6-3.6,3.9-5.5,3.9.1-.5.1-1.1.2-1.6a13.1,13.1,0,0,0,2.3-3.1,4.1,4.1,0,0,1-1.9-.1,9.2,9.2,0,0,1-.1-1.6,15.4,15.4,0,0,0,3.4-4.9,11.9,11.9,0,0,1-1.8,1.5c.1.1.1.3.2.5l-.3-.5a3,3,0,0,1-1.8.4,7.1,7.1,0,0,0,1.3-1.2,41.7,41.7,0,0,1-1.9-4.7c.2,1.7.5,3.4.7,5-.5-1-1-2.2-1.5-3.5.4,2.6.8,5.1,1.3,7.5a25.5,25.5,0,0,1-1.4-2.4,53.6,53.6,0,0,1-1.6-5.2c.3,2.7.6,5.3,1,7.8a28.2,28.2,0,0,1-2.7-6,40,40,0,0,0,3.2,8.4v1.6c.3.7.5,1.3.8,1.9a5.9,5.9,0,0,1-4.1-2.1,15.2,15.2,0,0,0,4.3,5.3c-1.6,0-3.2-.9-4.7-2.7a32.1,32.1,0,0,0,1.2,3.3c0,.5-.1,1-.1,1.5s.7,1.8,1,2.6a9,9,0,0,1-3.4-2.7l-1.1-.4-1.1-.5c.5,1.6,1,3.2,1.5,4.6a24.8,24.8,0,0,0,4.2,7,4.6,4.6,0,0,1-2.4-.8,11.3,11.3,0,0,1-2.4-2.1,41.1,41.1,0,0,0,1.5,4.2c1.7,2.9,3.4,5,5.3,6.1a6.8,6.8,0,0,1-3.4-.6l.3,1.9c-2.2-1.4-4.4-4.2-6.4-8.3,2,5.2,4.3,9.2,6.6,11.6a13.8,13.8,0,0,1-4.9-4.6,28,28,0,0,1-2.9-4.4c2.6,7,5.5,11.9,8.6,14.3-1.8-.6-3.6-2.1-5.4-4.4a9.1,9.1,0,0,1-1.6-1.1l1.8,4.9a34.5,34.5,0,0,1-4.6-7.6,54.9,54.9,0,0,0,5.3,11.8,30.5,30.5,0,0,0,1.3,3.2l-1.5-.2a21.8,21.8,0,0,0,4.8,6,7.2,7.2,0,0,1-1.9-1.1h0a20.3,20.3,0,0,1-5-5.4l1.2-2.3c-.5.7-.9,1.4-1.4,2a49.7,49.7,0,0,1-4.8-9.8,87.3,87.3,0,0,0,3.3,9.5l-1.5-1.3c.2.5.3,1,.5,1.5l-1,.2a6.8,6.8,0,0,1-5.3,1.4c2-.7,3.9-2.3,5.8-4.9a7.8,7.8,0,0,1-2.5.7l1.1-2.4a6.1,6.1,0,0,1-3.7.6,6.9,6.9,0,0,1-1.1-1.3,9.4,9.4,0,0,0,3.2-2.6,19.7,19.7,0,0,0,2.9-4.4,5.6,5.6,0,0,1-2,.8c.5-1,1.1-2.2,1.6-3.4a4.9,4.9,0,0,1-2.2.8,4.8,4.8,0,0,1-4.5-.1l-.8-1.6c2.4.3,4.7-1.2,6.7-4.4l-.6-.7a4.6,4.6,0,0,1-5.4.8,6.9,6.9,0,0,0,2.1-1.5,11.7,11.7,0,0,0,3.4-4.2l-.9-.4-1.4-.4a3.5,3.5,0,0,1-2.7-.7,6.5,6.5,0,0,0,2.6-2.2,5.9,5.9,0,0,0-.2-1.3,3.8,3.8,0,0,1-1.8-.3,4.1,4.1,0,0,0-.5.9c-1.3,0-2.7-.9-3.9-2.7l.6,2.8a14.8,14.8,0,0,0,3.1,4.2c-1.5-.1-3-1.2-4.4-3.2l-.3,1a24.8,24.8,0,0,0,2.3,4.9l-1,.4a9.7,9.7,0,0,1-2.2-1.9q.6,2,1.2,3.6a4.1,4.1,0,0,1-1.1,0c.6,1.5,1.2,2.9,1.8,4.1a16.8,16.8,0,0,0,3.1,4c-1.9-.4-3.7-1.8-5.5-4.3a22.9,22.9,0,0,0,4.5,6.7,5.4,5.4,0,0,0-.5,1.1,11.2,11.2,0,0,0,3.2,2.7,5.9,5.9,0,0,1-3.2.3c-1.8-.8-3.7-2.5-5.5-5.4a29.1,29.1,0,0,0,4.4,7.5,10.6,10.6,0,0,1-3.8-3.1l-1.5-1.1a35,35,0,0,0,3.6,7c.1.6.1,1.2.2,1.8l-.9.5a12.8,12.8,0,0,1-3.3-3.3c2.8,5.6,5.8,9,9,10.1-3.7-.3-7.5-3.7-10.9-10.5a40.9,40.9,0,0,0,4.9,9.4,25.1,25.1,0,0,0,3.1,4.3H999a10.9,10.9,0,0,1-2.3-.9c.7,1.3,1.4,2.6,2.1,3.7-2.3-1.5-4.5-4.2-6.7-7.9,2.6,5.7,5.4,9.8,8.4,12.1a8.3,8.3,0,0,1-3.7-1.7,28.6,28.6,0,0,1-6-8,54.6,54.6,0,0,0,3.6,8,4.2,4.2,0,0,0-.4,1,30.9,30.9,0,0,0,5.8,7.7,13.6,13.6,0,0,0,.4,1.7,12.7,12.7,0,0,1-4-1.8c-2.4-2.1-4.7-5.4-7-9.7.5,2.7,1.1,5.3,1.7,7.9a29.1,29.1,0,0,0,5.8,7.1q1,2.6,2.1,4.8l2.3.4h.3L948,819c-6,0-21-5-25-6s-27-13-27-13-34-1-52-1.3a44.2,44.2,0,0,0-7.8.6c.7-1.3,1.5-2.6,2.2-4.1a25.6,25.6,0,0,1-3.3,4.2l-1.7.4c.6-.9,1.3-1.9,1.9-3a4.1,4.1,0,0,1-1.8.5,6.7,6.7,0,0,1-5.3,1.4,12.3,12.3,0,0,0,5.8-4.9,7.3,7.3,0,0,1-2.4.7l1-2.4a6.1,6.1,0,0,1-3.7.6l-1.1-1.3a9.4,9.4,0,0,0,3.2-2.6,19.8,19.8,0,0,0,3-4.4,6,6,0,0,1-2.1.8c.6-1.1,1.1-2.2,1.7-3.4a5.3,5.3,0,0,1-2.3.8,4.8,4.8,0,0,1-4.5-.1l-.7-1.6c2.3.3,4.6-1.2,6.7-4.4l-.7-.7a4.6,4.6,0,0,1-5.4.8,6.9,6.9,0,0,0,2.1-1.5,11.5,11.5,0,0,0,3.4-4.2l-.9-.4-1.3-.4a3.6,3.6,0,0,1-2.8-.7,7.5,7.5,0,0,0,2.7-2.2l-.3-1.3a3.9,3.9,0,0,1-1.8-.4,9.3,9.3,0,0,1-.5,1c-1.3,0-2.7-.9-3.9-2.7a17.6,17.6,0,0,0,.7,2.7,12.5,12.5,0,0,0,3,4.3c-1.5-.1-3-1.2-4.4-3.3l-.3,1.1a24.8,24.8,0,0,0,2.3,4.9l-1,.3a8.7,8.7,0,0,1-2.2-1.8c.4,1.2.8,2.5,1.2,3.6a1.7,1.7,0,0,1-1-.1,21.8,21.8,0,0,0,1.4,3.4l-.5.3a4,4,0,0,0-.7,1.3l-.9-1.2.7,1.5a6.3,6.3,0,0,1-1,1.7c-.5.3-3,3.5-3.5,3.6a7.9,7.9,0,0,1-2.8,1.3c-.2-.2,5.2-7.1,5-7.4s-5.7,3.7-6.7,3.5c2.7-1.5,5.3-4.9,7.6-10.1.4-1.3.7-2.7,1.1-4.1q-3.9,8-8.1,9.3a11.2,11.2,0,0,1-.5-1.3c2.1-1.4,4.2-4.2,6.1-8.2a11.5,11.5,0,0,1-4.9,4.4c.4-.8.7-1.6,1.1-2.5s.3-1.4.5-2.1a38.2,38.2,0,0,0,4-8.1c-2.5,4.8-5.1,7.3-7.8,7.4,2.9-1.2,5.5-5,7.8-11.1a15.7,15.7,0,0,1-2.5,3.3q-2.9,3.6-5.7,3.3a8.6,8.6,0,0,1,.1-1.6,11.5,11.5,0,0,0,2.9-3.2,33.7,33.7,0,0,0,2.8-5.4c-1.8,2.6-3.7,3.9-5.5,3.9a8.8,8.8,0,0,1,.2-1.6,16.6,16.6,0,0,0,2.3-3.1,3.5,3.5,0,0,1-2-.2,7.6,7.6,0,0,0-.1-1.5,14,14,0,0,0,3.4-4.9,5.5,5.5,0,0,1-1.7,1.4c.1.2.1.4.2.6l-.3-.5a3.1,3.1,0,0,1-1.9.4,5.3,5.3,0,0,0,1.4-1.2,41.7,41.7,0,0,1-1.9-4.7c.2,1.7.4,3.4.7,5a23,23,0,0,1-1.5-3.5c.3,2.6.8,5.1,1.3,7.5a13.8,13.8,0,0,1-1.4-2.4,53.6,53.6,0,0,1-1.6-5.2c.2,2.6.6,5.2.9,7.8a34.3,34.3,0,0,1-2.7-6,35,35,0,0,0,3.3,8.4v1.6l.7,1.9a5.7,5.7,0,0,1-4-2.1,15.1,15.1,0,0,0,4.2,5.3c-1.5,0-3.1-.9-4.7-2.7.4,1.1.8,2.2,1.3,3.3a7.6,7.6,0,0,0-.1,1.5,20,20,0,0,0,1,2.6,9.2,9.2,0,0,1-3.4-2.7l-1.2-.5-1-.4c.5,1.6.9,3.2,1.4,4.6a24.8,24.8,0,0,0,4.3,7,4.6,4.6,0,0,1-2.4-.8,11.6,11.6,0,0,1-2.5-2.1,40.9,40.9,0,0,0,1.6,4.2,16.3,16.3,0,0,0,5.3,6.1,6.6,6.6,0,0,1-3.4-.6l.3,1.9c-2.2-1.4-4.4-4.2-6.4-8.3,2,5.2,4.2,9.2,6.6,11.6a13.9,13.9,0,0,1-4.9-4.6,25.8,25.8,0,0,1-2.9-4.4c2.6,7,5.5,11.9,8.6,14.3a11.8,11.8,0,0,1-5.4-4.4,8.8,8.8,0,0,1-1.7-1.2c.6,1.8,1.3,3.4,1.9,4.9a35.4,35.4,0,0,1-2.6-3.5,9.1,9.1,0,0,0,.7-1.4l-.8,1.2-.7-1.3c0-.1.1-.2.2-.3l-.3.2-1.2-2.4,1,2.7a21.6,21.6,0,0,1-2.5,2.7,6.1,6.1,0,0,0-.5-1.2,5,5,0,0,1,.4,1.3l-.2.2-2.6,1.6c-.1-.4-.1-.8-.2-1.2a31.8,31.8,0,0,0,5-7.8,17.2,17.2,0,0,1-2.7,2.7q.4-1.2.9-2.7a13.4,13.4,0,0,1-6.4,5.1c-.1-.3-.1-.7-.2-1.1a18.8,18.8,0,0,0,1.6-2.3,28.2,28.2,0,0,0,4.4-6.2,13.1,13.1,0,0,1-3.2,2.7l1.2-2.7h-1.1l-1-.2a8,8,0,0,1-4.3,1.2,18,18,0,0,0,1.8-2,18.9,18.9,0,0,0,2.5-3,11.4,11.4,0,0,1-2.5.6,5.7,5.7,0,0,0,.1-1.3,16.7,16.7,0,0,0,1.7-2.6,5.7,5.7,0,0,1-3.9,1c-.1-.3-.3-.7-.4-1.1a11.1,11.1,0,0,0,4.2-3.5,7.4,7.4,0,0,1-2.5.5,16.3,16.3,0,0,0,3.9-4.8l-.7-.4a6.8,6.8,0,0,1-3,1.4c.2-.5.3-1,.5-1.6a4.1,4.1,0,0,1-2.2-.1,10.4,10.4,0,0,0,1.9-2.2,4.5,4.5,0,0,1-1.6-.3,13.7,13.7,0,0,0,2.6-3.1,28.5,28.5,0,0,1-2.9.3,7.5,7.5,0,0,0,0-1.5l-2.6-1.1a26.4,26.4,0,0,0,1.4,2.9,5.1,5.1,0,0,1-3.5-1.7,12.9,12.9,0,0,0,2.8,3.8c-.1.4-.1.8-.2,1.2a5.4,5.4,0,0,1-2.7-1.2l-.8.4c.1.6.3,1.3.4,1.9l.9,2.2a12.1,12.1,0,0,0,3.2,3.2l-1,.8a4.1,4.1,0,0,1-1.9,0,10.4,10.4,0,0,1-.4,1,8.3,8.3,0,0,0,.4,1.5A11.8,11.8,0,0,1,780,765c.5,1.2.9,2.3,1.4,3.3a17.5,17.5,0,0,0,4.3,4.6,8.7,8.7,0,0,1-4.9-2.7,10.2,10.2,0,0,1-1.9-1.4,21.4,21.4,0,0,0,5.8,7.3,12.3,12.3,0,0,1-5.5-4.1c.2.7.3,1.4.5,2.1a42.3,42.3,0,0,0,2.3,3.8,12,12,0,0,1-3.3-2.5,32.2,32.2,0,0,0,2,3.7,6.6,6.6,0,0,1-1.9-.9,20.7,20.7,0,0,0,6.1,6.6q-3.9-1-7.5-6a35.7,35.7,0,0,0,2.6,4.8,17.7,17.7,0,0,1-3.8-3.9c2.2,4.2,4.6,7.3,7.2,9.2a4.9,4.9,0,0,0-.1,1.2,10.1,10.1,0,0,1-2.3-.4,22.3,22.3,0,0,1-5.6-5.8l.3,1.9c-.1.3-.3.5-.4.8a50.8,50.8,0,0,0,3.7,6.2,15.6,15.6,0,0,1-2.7-2,8.3,8.3,0,0,0,.4-1.5A32.7,32.7,0,0,1,774,794l-.4-.5a2.4,2.4,0,0,1,.2.8,19.6,19.6,0,0,1-1.8,2.1l-.5-.9.5,1a10.1,10.1,0,0,1-3.3,2.1l-.6-1.3c2.2-1.4,4.3-4.2,6.2-8.2a11.1,11.1,0,0,1-5,4.4l1.2-2.5a16,16,0,0,1,.5-2.1,38.3,38.3,0,0,0,3.9-8.1c-2.4,4.8-5.1,7.3-7.7,7.4,2.8-1.2,5.5-5,7.8-11.1a13.1,13.1,0,0,1-2.6,3.3c-1.8,2.4-3.8,3.5-5.7,3.3a8.6,8.6,0,0,0,.1-1.6,13.4,13.4,0,0,0,3-3.2,33.9,33.9,0,0,0,2.7-5.4c-1.8,2.6-3.6,3.9-5.5,3.9.1-.5.1-1.1.2-1.6a13.1,13.1,0,0,0,2.3-3.1,3.1,3.1,0,0,1-1.9-.2,7.6,7.6,0,0,1-.1-1.5,15.4,15.4,0,0,0,3.4-4.9,7.3,7.3,0,0,1-1.8,1.4,1.4,1.4,0,0,1,.2.6l-.3-.5a3,3,0,0,1-1.8.4,7.5,7.5,0,0,0,1.4-1.2,41.5,41.5,0,0,1-2-4.7c.3,1.7.5,3.4.8,5a22.9,22.9,0,0,1-1.6-3.5c.4,2.6.8,5.1,1.3,7.5a26,26,0,0,1-1.3-2.4,53,53,0,0,1-1.7-5.2c.3,2.7.6,5.2,1,7.8a28.2,28.2,0,0,1-2.7-6,40,40,0,0,0,3.2,8.4,8.6,8.6,0,0,0,.1,1.6,14.6,14.6,0,0,0,.7,1.9,5.5,5.5,0,0,1-4-2.1,14,14,0,0,0,4.2,5.3c-1.6,0-3.2-.9-4.7-2.7l1.2,3.3a7.6,7.6,0,0,1-.1,1.5c.3.9.7,1.8,1,2.6a9,9,0,0,1-3.4-2.7l-1.1-.5-1-.4c.4,1.6.9,3.2,1.4,4.6a24.8,24.8,0,0,0,4.2,7,4.6,4.6,0,0,1-2.4-.8,11.3,11.3,0,0,1-2.4-2.1q.8,2.3,1.5,4.2a17.3,17.3,0,0,0,5.3,6.1,6.8,6.8,0,0,1-3.4-.6,16.2,16.2,0,0,0,.4,1.9c-2.3-1.4-4.4-4.2-6.5-8.3,2,5.2,4.3,9.2,6.6,11.6a14.8,14.8,0,0,1-4.9-4.6,28,28,0,0,1-2.9-4.4c2.6,7,5.6,11.9,8.7,14.3-1.9-.6-3.7-2.1-5.5-4.4a8.3,8.3,0,0,1-1.6-1.2,45.6,45.6,0,0,0,1.9,4.9,31.4,31.4,0,0,1-4.7-7.5,54.9,54.9,0,0,0,5.3,11.8c.1.1.1.3.2.4l-3.5.4a55.3,55.3,0,0,1-4-8.4c.9,3.1,1.9,5.9,2.9,8.5h-.6l-.5-.4c.1.1.1.3.2.4l-8.2,1c-7-2-39-10-39-10l-84,20-47-6-38-8c-5-1-37.1-27.1-37.1-27.1l-22.6-19.7L410.2,794H355l-16.4-11H329l-28-17.8-37.5-4.7L214,733l-69-45-25.5,356.1S793,1105,875.1,1096.4s503.9-6.4,593.9-.4,108-54,108-60,0-196,6-208S1563.5,674,1563.5,674ZM825,803.6a2,2,0,0,1-.8-.4l.2-.6,1.1.7Zm-30.9-.1a28.7,28.7,0,0,0,5.4-6.3l.9,2.5c0,.1.1.3.1.4a27.6,27.6,0,0,1-2.1,2.5l-.6-1a11.7,11.7,0,0,0,.5,1.1,20.1,20.1,0,0,1-5.5,4.2q1.2-1.4,2.4-3Zm8.3,3-.9.9a13.4,13.4,0,0,1-1.6-2.3l1.8-2.8a32.1,32.1,0,0,0,1.9,3.1l-1.1,1.1c-.1-.1-.1-.2-.2-.2S802.4,806.4,802.4,806.5Zm.1.2,1.3,2.5H803l-1.3-1.5A3.9,3.9,0,0,0,802.5,806.7Zm-3.4-2.8h0q.9-1.3,1.8-3l.3.6Zm-6.3,4.8,1.5-1,1.7,2.4-3.4.4C792.7,809.9,792.7,809.3,792.8,808.7Zm5.4-1.2c.4-.6.9-1.2,1.3-1.9l1.2,2.5-1.3,1.1-.9.6h-1.1C797.7,809.1,797.9,808.3,798.2,807.5Zm2.7,1,.3.5v.5h-1.5Zm4.4.5a14.6,14.6,0,0,1-2.7-2.4l1-1.2a35.5,35.5,0,0,0,2.7,3.5Zm16.6-18a12.1,12.1,0,0,1-1.6-1.6l.7-1.4a23.6,23.6,0,0,0,2.3,3.5l-.2.3a4.1,4.1,0,0,1-1.1-.7c.1-.2.1-.4.2-.6Zm2,1.3-.5-.3a.4.4,0,0,1,.1-.3Zm-7.8,11.1c0,.1,0,.1.1.2l-.5.2C815.9,803.7,816,803.5,816.1,803.4Zm1.1,2.3Zm3.8-2.9a13.4,13.4,0,0,1-3.4,2.7c0-.1-.1-.1-.1-.2s1.6-2.7,2.4-4.2A9.9,9.9,0,0,0,821,802.8Zm-1.4-3.7.8-1.2a27.9,27.9,0,0,0,2.4,3.1l-.7.8A21.6,21.6,0,0,1,819.6,799.1Zm2.6-4c.1.6.1,1.2.2,1.8l-.9.5-.6-.5a20.1,20.1,0,0,0,1.1-2.1Zm-.6-.9-1.5,2c-.1-.1-.3-.2-.4-.4a21,21,0,0,0,1.3-2.6Zm-1.9,2.5-1,1h0c.2-.4.5-.9.7-1.4Zm.1,4.3a9.9,9.9,0,0,1-3.5,2.5c-.1,0-.1-.1-.1-.2a17.4,17.4,0,0,0,2.9-3.5A7.5,7.5,0,0,1,819.8,801Zm6.7-17.4a5.9,5.9,0,0,1-3-1.4c.2-.6.3-1.1.5-1.6A12.8,12.8,0,0,0,826.5,783.6Zm-1,2.5a5.4,5.4,0,0,1-.5,1.1,11.2,11.2,0,0,0,3.2,2.7,5.5,5.5,0,0,1-3.1.3l-.8-.4.3-.8c-.1.3-.3.5-.4.8a10.7,10.7,0,0,1-2.8-2.5c.6-1.2,1.2-2.6,1.8-4.1A14,14,0,0,0,825.5,786.1Zm-5.9,4.4,1,2L819,794l-.5.5-.2-.4a.5.5,0,0,0,.2.4l-1.2,1-.5-1A34.6,34.6,0,0,0,819.6,790.5Zm-2.9,4.1.4,1A8.5,8.5,0,0,1,814,797,14.6,14.6,0,0,0,816.7,794.6Zm-8,8.4a14.8,14.8,0,0,1-5.1-4.2l.6-1.4A30.5,30.5,0,0,0,808.7,803Zm-3.3-5.9h-1c.1-.2.1-.4.2-.5l-.3.4H804c0,.1.1.2.2.3l-.8,1.2-.7-.9,1.6-3.3C804.7,795.3,805,796.2,805.4,797.1Zm-1.2-3.1a.3.3,0,0,0,.1.2c-.6,1.1-1.2,2.2-1.8,3.1a14.3,14.3,0,0,1-1.6-2.4l1.8-3.4Zm-1.5-2.7c-.7,1.1-1.4,2.2-2.1,3.1-.5-.8-.9-1.7-1.4-2.6s.3-.5.4-.8l-.5.6a11.7,11.7,0,0,0-.5-1.1l2-3.7A48.5,48.5,0,0,0,802.7,791.3Zm-2.8-6.2.6,1.4q-1.2,1.7-2.4,3c-.1-.2-.1-.4-.2-.6S799.2,786.5,799.9,785.1Zm-2.2,4.1.2.5a6.8,6.8,0,0,1-1.2,1.2Zm.6,1.7c.1.4.3.8.4,1.1a18.3,18.3,0,0,1-3.4,3A48.5,48.5,0,0,0,798.3,790.9Zm-2.6,6.2a34.8,34.8,0,0,0,3.1-4.7c.4,1,.8,2,1.1,2.9a.3.3,0,0,1-.1.2l-1.1-.9a9.8,9.8,0,0,0,.5,1.6,19.9,19.9,0,0,1-2.9,2.9,14.5,14.5,0,0,1-4,1.9A26.4,26.4,0,0,0,795.7,797.1Zm-14.2,8-1.3.2a13.3,13.3,0,0,1-1.9-1.4l.3-.9c.1-.2.1-.4.2-.6Zm-9.8-.6,1.5,1.1-.6.5a7.8,7.8,0,0,1-2.8,1.3A14.4,14.4,0,0,1,771.7,804.5Zm2.4.1-1.3-1.7a17.4,17.4,0,0,0,1.5-2.2l1.4,2.1Zm5.9-6.9h.1l.3.4Zm-4.3-4.3a12.1,12.1,0,0,1,.5-1.8.4.4,0,0,0-.1.3,45.2,45.2,0,0,0,3.9,5.6.1.1,0,0,1-.1.1,17.6,17.6,0,0,1-4.1-3.4c.7,1.5,1.5,2.8,2.2,4a30.3,30.3,0,0,1-3.2-3.1Zm-1.3,2.5c.1.2.1.4.2.6a37.7,37.7,0,0,0,2.6,3.9c-.3.6-.5,1.2-.8,1.7a15.4,15.4,0,0,1-1.7-1.9V800h-.1a13.3,13.3,0,0,1-1.4-1.9Zm-1.4,2.5,1.1,1.9-2.2,1.3-.6-.9C771.9,800,772.4,799.2,773,798.4Zm-2.8,3.5a1.7,1.7,0,0,0,.1.7,4.5,4.5,0,0,1-2.3.9A8.2,8.2,0,0,0,770.2,801.9Zm6.5,5.5,1.2,1.2c-.2-1.3-.3-2.3-.4-2.9s.1-.3.1-.4l1.6,1.8c-.3.1-.4,1.7-.2,2.3l-1.1-.8a30.6,30.6,0,0,1,.5,3.2.8.8,0,0,1-.2.4l-1.4.2c.2-.6.5-1.2.8-1.9l-1.6,1.9-2.5.3A35.2,35.2,0,0,0,776.7,807.4Zm239-17.1c0-.2.1-.3.2-.5s.5,1,.8,1.4Zm-.5,4.2a27.2,27.2,0,0,1-2.4,2.4l-1.7.2a29.7,29.7,0,0,0,3.1-4.3A9.5,9.5,0,0,1,1015.2,794.5Zm-3.7-2.4a8.6,8.6,0,0,1-4,1.3,17.8,17.8,0,0,0,4.6-6,17.4,17.4,0,0,1,1,1.9,5,5,0,0,0,.2,1.2Zm4.1,4.7a1.4,1.4,0,0,0,.2-.7.1.1,0,0,0,.1-.1c0,.1.1.2.1.4Zm2.8-6.8c0-.1.1-.1.1-.2s-.1.1-.1.2l-1.9-1.3a4.7,4.7,0,0,1,.5-1,17.6,17.6,0,0,0,2.6,2.8Zm-6.1-10a49.6,49.6,0,0,0,3.9,6.7l-.7,1.1-1.2-1.2a13,13,0,0,0,.8,1.7l-.6.8a23.5,23.5,0,0,1-1.9-2.5l.3-.8c-.2.2-.3.4-.5.5a46.6,46.6,0,0,1-2.5-4,16,16,0,0,0,2.2-2.8C1012.2,779.7,1012.2,779.9,1012.3,780Zm-1-2.9a8.8,8.8,0,0,1,.5,1.5,10.2,10.2,0,0,1-3.6,2.6A29.2,29.2,0,0,0,1011.3,777.1Zm-1.4,5.2a46.8,46.8,0,0,0,2,4.5,10.1,10.1,0,0,1-4.4,2.2,15.4,15.4,0,0,0,.8-1.9c.6-.8,1.1-1.8,1.7-2.7a6.9,6.9,0,0,1-3.7.6A12.1,12.1,0,0,0,1009.9,782.3Z"/>
  </g>
</svg>
