<svg id="Parallax_background" xmlns="http://www.w3.org/2000/svg" viewBox="0 0 1689 1098">
  <defs>
    <style>
      .cls-1 {
        fill: #7f7f7f;
      }
    </style>
  </defs>
  <g id="CloudsRight">
    <path class="cls-1" d="M1034.8,359.1l-32.6,1.5-20.3,4.3L970,353.3s-17,5.7-21.1,5.8H890.4l6.1-5.8H868.4L844,364.9l29,7.1,27.3,4.5s88.7,5.5,106.2,0,28.5-3.5,38.3-4.5S1034.8,359.1,1034.8,359.1Z"/>
    <path class="cls-1" d="M995,434l-18.9-7.4L945.7,420v-6.5l-18,.8-12.9,12.3v5.2l7.1,4.9-6.4,6.8s50.5-2.5,52.7,3.7,51.1-3.9,51.1-3.9l-45.7-4.8Z"/>
    <path class="cls-1" d="M1039.8,289.4s62.2,2.6,67.7,3.3,42.7-12.7,42.7-12.7l95.4-12.1L1142,273.8l-47.6,5s-126.4,2.2-127.3.7l-21.4,1.9,25.8,3.1Z"/>
    <path class="cls-1" d="M1245.6,369.7l-13.4,3.2,3.4,7.5-15.6,8.8-16.2-2.4,7.7-8.1h10.9l1.2-9C1215,373,1142,374,1142,374s-25-2.3-30-2.1-29.5,11.7-29.5,11.7l13.2,5.6,17.3,4.1h37.9l8.1,3s-23.5,14.1-24.8,14.4-19.2,7-19.2,7l47.5,1.2,6.9,10.3,13.8,1.1,7.7-12.6,18.4-10,19.2-13.5,103-18.1-37.3-3.1Z"/>
    <polygon class="cls-1" points="1421.1 316.4 1365.7 317.1 1319.6 339.1 1362.5 331.2 1436.2 325.2 1497.5 325.1 1421.1 316.4"/>
  </g>
</svg>
