<svg id="Parallax_background" xmlns="http://www.w3.org/2000/svg" viewBox="0 0 1689 1098">
  <defs>
    <style>
      .cls-1 {
        fill: #282828;
      }
    </style>
  </defs>
  <g id="Layer5">
    <path class="cls-1" d="M1561,714l-64,12-26.8-12L1450,692l-22-15-17,24-20,8-45.2-3L1314,677l-97.4-5.5L1132,685c-4.8.7-36.9-6-56.4-10.2a1,1,0,0,0,.1-.4,4.1,4.1,0,0,0,1.1-.7l-.3.8a11.3,11.3,0,0,0,2.4-2.1,7.6,7.6,0,0,1-1.8.9l.6-1.8c.5-1,.9-2.1,1.4-3.2a17.1,17.1,0,0,1-3,3.7h-.8a19.8,19.8,0,0,0,3-4.9,23.1,23.1,0,0,0,1-2.8,14.7,14.7,0,0,1-3.8,5.1,4.6,4.6,0,0,1-2.1.8,11.2,11.2,0,0,0,1.7-2,12.8,12.8,0,0,0,1.1-2,5.6,5.6,0,0,1-2.8,1.7l.4-1,.9-1.4a3.2,3.2,0,0,1-1.9.3c1.6-.7,3.1-2.6,4.5-5.4-1.2,1.8-2.4,3-3.6,3.4a9.4,9.4,0,0,0,2-2.6l-.9.3a4.3,4.3,0,0,1-2.8.7,7,7,0,0,0,3-2.6,3.3,3.3,0,0,1-1.3.4l.6-1.2a3.3,3.3,0,0,1-1.9.3l-.6-.7a6.4,6.4,0,0,0,1.7-1.3,15.3,15.3,0,0,0,1.5-2.3l-1.1.4a15,15,0,0,0,.9-1.8,3.1,3.1,0,0,1-1.2.5,2.6,2.6,0,0,1-2.3-.1c-.1-.3-.3-.5-.4-.8s2.4-.7,3.5-2.3a.8.8,0,0,1-.4-.4,2.5,2.5,0,0,1-2.8.5l1.1-.8a7.1,7.1,0,0,0,1.8-2.2l-.5-.2-.7-.2a1.5,1.5,0,0,1-1.4-.4,3.4,3.4,0,0,0,1.4-1.1c-.1-.2-.1-.5-.2-.7a1,1,0,0,1-.9-.2l-.3.5a2.8,2.8,0,0,1-2-1.3,10.3,10.3,0,0,0,.4,1.4,7.7,7.7,0,0,0,1.5,2.2,3.7,3.7,0,0,1-2.2-1.7c-.1.2-.2.3-.2.5a19.7,19.7,0,0,0,1.2,2.5l-.5.2a4.7,4.7,0,0,1-1.2-.9,14.6,14.6,0,0,0,.7,1.9h-.6l.9,2.2a11.6,11.6,0,0,0,1.6,2,5,5,0,0,1-2.8-2.2,12.5,12.5,0,0,0,2.3,3.5l-.3.5a5.3,5.3,0,0,0,1.7,1.4,3,3,0,0,1-1.6.2,6.4,6.4,0,0,1-2.9-2.8,17.4,17.4,0,0,0,2.3,3.9,7,7,0,0,1-2-1.6l-.8-.6a20.1,20.1,0,0,0,1.9,3.6c0,.3.1.6.1.9l-.4.3a5.5,5.5,0,0,1-1.7-1.7c1.4,2.9,3,4.6,4.6,5.2-1.9-.1-3.9-1.9-5.6-5.4a20.3,20.3,0,0,0,2.5,4.9,12.5,12.5,0,0,0,1.6,2.2h-1l-1.2-.5,1.1,1.9a11.2,11.2,0,0,1-3.4-4.1c1.3,3,2.7,5.1,4.3,6.3a3.7,3.7,0,0,1-1.9-.9,14.1,14.1,0,0,1-3.1-4.1c.6,1.5,1.2,2.9,1.8,4.1a.8.8,0,0,1-.2.5,16.6,16.6,0,0,0,2.5,3.5l-2.3-.5a19.3,19.3,0,0,1-2.6-4.1,32.9,32.9,0,0,0,.7,3.6l-4.2-.9-47.9-30.3L981,631l-12-15-3.6-2.7a11,11,0,0,1,.2-1.8l.8-.5.9,1.3a.7.7,0,0,0,.6-.1c.2-.4.3-.9.5-1.3a29.6,29.6,0,0,0,3.3-5.7,22,22,0,0,1-3,3.9,24.3,24.3,0,0,0,2.8-5.1c-1.8,3.4-3.8,5.6-5.9,6.6l1.2-1.6-.5-.2a20.7,20.7,0,0,0,4.8-6.9,16.5,16.5,0,0,1-3.7,4.6,6.7,6.7,0,0,1-2.1,1,12,12,0,0,0,1.8-2,18.4,18.4,0,0,0,2-3.1,13.3,13.3,0,0,1-2.2,2,24.6,24.6,0,0,0,3.2-5.2,16.8,16.8,0,0,1-2.5,3.1,21.6,21.6,0,0,0,1.8-3.4,14.5,14.5,0,0,1-1.6,1.8l-1.4.9c0-.2-.1-.4-.1-.6a19.3,19.3,0,0,0,2.6-4.1,6.2,6.2,0,0,1-1.4,1.4c.2-.4.3-.9.5-1.4a7.9,7.9,0,0,1-3.3,2.7,1.3,1.3,0,0,1-.1-.6l.8-1.2a13.9,13.9,0,0,0,2.3-3.2A10.5,10.5,0,0,1,966,596l.6-1.4h-1.1a4.6,4.6,0,0,1-2.2.6l1-1,1.2-1.6a2.8,2.8,0,0,1-1.3.3,1.7,1.7,0,0,0,.1-.7l.9-1.3a3.1,3.1,0,0,1-2,.5l-.3-.6a5.2,5.2,0,0,0,2.2-1.8,2.8,2.8,0,0,1-1.3.3,8.8,8.8,0,0,0,2-2.5l-.3-.2a3.3,3.3,0,0,1-1.6.7l.3-.8a2,2,0,0,1-1.1-.1l1-1.1-.9-.2a10.3,10.3,0,0,0,1.4-1.5h-1.5a2.2,2.2,0,0,1,0-.8l-1.4-.6a12.6,12.6,0,0,0,.7,1.6,3.1,3.1,0,0,1-1.8-.9,8,8,0,0,0,1.5,2,.7.7,0,0,0-.1.5,3,3,0,0,1-1.5-.5l-.3.2a2.9,2.9,0,0,0,.2.9c.1.4.3.8.4,1.1a5.5,5.5,0,0,0,1.7,1.7l-.5.4h-1c-.1.1-.1.3-.2.4a1.9,1.9,0,0,0,.2.8,4.9,4.9,0,0,1-2-1.6,8.7,8.7,0,0,0,.7,1.7,7.4,7.4,0,0,0,2.2,2.4,4.6,4.6,0,0,1-2.5-1.4l-1-.7a11,11,0,0,0,3,3.8,5.6,5.6,0,0,1-2.8-2.2,3.6,3.6,0,0,0,.2,1.1l1.2,2a6.4,6.4,0,0,1-1.7-1.3c.3.7.7,1.3,1,1.9l-1-.5a10.6,10.6,0,0,0,3.2,3.4,7.9,7.9,0,0,1-3.9-3,13.8,13.8,0,0,0,1.4,2.4,9.4,9.4,0,0,1-2-2,13.8,13.8,0,0,0,3.7,4.8v.6l-1.2-.2a11.9,11.9,0,0,1-2.9-3c0,.3.1.6.1,1l-.2.4a30.1,30.1,0,0,0,1.9,3.2l-1.4-1.1v.6a16.3,16.3,0,0,0,2.2,3.2,10.6,10.6,0,0,1-2.4-2l1.1,2.1a13.1,13.1,0,0,1-2.2-2.4,8.8,8.8,0,0,0,.5,1.5,27.7,27.7,0,0,0,2.2,3.1l-2.8-2.1a7.8,7.8,0,0,1-1-1.5,8.3,8.3,0,0,0,.7,1.3l-8.3-6-9-18-3-13-14-11-7,17-17,16s-31,8-35,8-25,17-25,17H818l-4.3,1,.6-1.8-.8.7a46.5,46.5,0,0,0,1.7-4.9,25.6,25.6,0,0,1-3.5,6.5l-.9.2a8.3,8.3,0,0,1,.8-1.2h-.8l.6-1.7a25.9,25.9,0,0,0,2.8-6,17.9,17.9,0,0,1-2.4,3.8c.3-.8.7-1.6,1-2.5l-.9.6a5.9,5.9,0,0,1-2.8,2.3c1.6-1.3,3.1-3.8,4.5-7.4a13.9,13.9,0,0,1-1.5,2.2,7.1,7.1,0,0,1-2.6,2.4c1.3-1.2,2.4-3.3,3.5-6a9.9,9.9,0,0,1-3.4,4.3c.1-.3.1-.6.2-1a2.9,2.9,0,0,1-1.8.3,7.8,7.8,0,0,0,2.8-3.1c.3-.7.5-1.4.8-2.2a4.2,4.2,0,0,1-1.3,1.1,1.9,1.9,0,0,1-1.2.4,11.8,11.8,0,0,0,2.2-3.6c.2-.7.5-1.5.7-2.4l-.5.3-.6.2a4.4,4.4,0,0,1-1.8,1.4,6.9,6.9,0,0,0,.5-1.3v-.8l.6-1.7a3.4,3.4,0,0,1-2.4,1.4,7.4,7.4,0,0,0,2.2-2.8,2.7,2.7,0,0,1-2.1,1.1,10.4,10.4,0,0,0,.4-1v-.8a25.7,25.7,0,0,0,1.7-4.3,18,18,0,0,1-1.4,3.1c.2-1.4.3-2.7.5-4.1l-.9,2.7a5.4,5.4,0,0,1-.7,1.3c.3-1.3.5-2.6.7-3.9a7.5,7.5,0,0,1-.8,1.8c.1-.9.3-1.7.4-2.6-.3.9-.7,1.7-1,2.4l.7.7-1-.2a.3.3,0,0,0-.1.2c0-.1.1-.2.1-.3l-.9-.7a7.2,7.2,0,0,0,1.7,2.5v.8a1.7,1.7,0,0,1-1,.1,7.4,7.4,0,0,0,1.2,1.6,2.2,2.2,0,0,0,.1.8c-1,0-1.9-.6-2.9-2a23.7,23.7,0,0,0,1.5,2.8,4.7,4.7,0,0,0,1.5,1.6v.9a3.4,3.4,0,0,1-2.9-1.7,6.4,6.4,0,0,1-1.3-1.8c1.1,3.2,2.5,5.2,4,5.8-1.4-.1-2.7-1.3-4-3.8a20.6,20.6,0,0,0,2,4.2l.3,1,.6,1.3a5.4,5.4,0,0,1-2.6-2.3,10.4,10.4,0,0,0,3.2,4.3l-.3.7c-1.4-.5-2.8-2.1-4.1-4.8a16,16,0,0,0,.5,2.1c1.2,2.7,2.6,4.4,4,5.2-.6.1-3-1.6-3.5-1.8s2.7,3.7,2.5,3.8a8.4,8.4,0,0,1-1.4-.6c-.2-.1-1.5-1.7-1.8-1.9s-.6-1.2-1-1.7l-.5-.4a1.7,1.7,0,0,1-.6-.6c.3,1,.5,2,.8,2.9,1.4,3.7,3.1,6.1,4.8,7.3a4.9,4.9,0,0,1-2.6-1.6,7.4,7.4,0,0,1-1.7-1.8,22.4,22.4,0,0,0,1.9,3.8,14.6,14.6,0,0,1-3.1-4.6,24.6,24.6,0,0,0,3.7,6.8h-.5l-.8-.7.4.8-.9.2h0a8,8,0,0,1-1.3-1.3,23.3,23.3,0,0,1-1.9-2.3l1.6,4-16.3,3.7a.1.1,0,0,0,.1-.1h-.1l-2.4.6a30,30,0,0,0,2.4-4.4,18,18,0,0,1-2.9,3.9,48.9,48.9,0,0,0,2.8-5.2c-1.8,3.3-3.8,5.5-5.8,6.5h-.1l1.2-1.4-.6-.2a21.3,21.3,0,0,0,4.8-7,17.1,17.1,0,0,1-3.7,4.7,8.1,8.1,0,0,1-2.1,1,11.2,11.2,0,0,0,1.8-2,19.5,19.5,0,0,0,2-3.2,10.7,10.7,0,0,1-2.2,2.1,25.5,25.5,0,0,0,3.2-5.3,14.2,14.2,0,0,1-2.5,3.2,27.4,27.4,0,0,0,1.9-3.4,14.9,14.9,0,0,1-1.7,1.8l-1.4.8v-.6a21.2,21.2,0,0,0,2.5-4,9.3,9.3,0,0,1-1.4,1.4,7.8,7.8,0,0,0,.5-1.4,7.5,7.5,0,0,1-3.3,2.6c0-.2-.1-.4-.1-.6a4.4,4.4,0,0,0,.8-1.1,16.5,16.5,0,0,0,2.3-3.2,9.6,9.6,0,0,1-1.7,1.3,8.3,8.3,0,0,0,.7-1.3h-1.2a4.3,4.3,0,0,1-2.2.6,4.7,4.7,0,0,0,1-1c.4-.5.9-1,1.3-1.6l-1.3.3v-.6l.9-1.4a3.9,3.9,0,0,1-2,.6,1.4,1.4,0,0,1-.2-.6,6.2,6.2,0,0,0,2.1-1.9,2.7,2.7,0,0,1-1.2.3,10.1,10.1,0,0,0,2-2.4l-.4-.3a3.7,3.7,0,0,1-1.5.8c.1-.3.1-.6.2-.8h-1.1l1-1.1-.9-.2a5.6,5.6,0,0,0,1.4-1.6,7.6,7.6,0,0,1-1.5.1v-.7l-1.3-.6c.3.5.3,1.1.7,1.5a2.8,2.8,0,0,1-1.9-.9,11.5,11.5,0,0,0,1.5,2c0,.2-.1.4-.1.6a4.2,4.2,0,0,1-1.4-.6l-.4.2c.1.3.1.6.2.9s.3.8.4,1.2a6.2,6.2,0,0,0,1.7,1.6l-.5.5a3.4,3.4,0,0,1-1,0l-.2.5c.1.3.1.5.2.8a7,7,0,0,1-2-1.6c.2.6.5,1.1.7,1.7a10.6,10.6,0,0,0,2.3,2.4,5.6,5.6,0,0,1-2.6-1.4l-1-.8a12.5,12.5,0,0,0,3,3.8,6.4,6.4,0,0,1-2.8-2.1l.3,1a5.6,5.6,0,0,0,1.2,2,6.8,6.8,0,0,1-1.8-1.3l1,2-.9-.5a11.5,11.5,0,0,0,3.1,3.4,8.2,8.2,0,0,1-3.9-3.1l1.4,2.5a12.3,12.3,0,0,1-1.9-2,14.1,14.1,0,0,0,3.6,4.7v.6l-1.2-.2a9.3,9.3,0,0,1-2.9-3c.1.4.1.7.2,1s-.2.3-.2.4a19.3,19.3,0,0,0,1.9,3.2,7.2,7.2,0,0,1-1.5-1.1v.7a18.9,18.9,0,0,0,2.2,3.1,8,8,0,0,1-2.3-1.9,12.8,12.8,0,0,0,1.1,2,10.6,10.6,0,0,1-2.3-2.4,8.8,8.8,0,0,0,.5,1.5,16.9,16.9,0,0,0,3.6,4.5h-.7a14.4,14.4,0,0,1-4.5-5.1,20.8,20.8,0,0,0,4,6,2.3,2.3,0,0,0-.1,1.2l-.6-.4c.1.2.1.5.2.8l-13.1,3L730.8,641v-.2c.6-1.1,1.2-2.4,1.8-3.8a16.6,16.6,0,0,1-3.6,4.8l1.2-2.4a6.7,6.7,0,0,1-2.7,2,14.9,14.9,0,0,0,3.7-5.4,17.1,17.1,0,0,0,.9-2.7,4.6,4.6,0,0,1-.7.7c.6-1.5,1.1-3.1,1.7-4.9-1.9,4.8-4,7.7-6.2,8.6a13.5,13.5,0,0,0,2.5-3.1h-.8l.7-1.6A29.2,29.2,0,0,0,732,627a12.4,12.4,0,0,1-2.4,3.8,14.5,14.5,0,0,0,1-2.5l-.8.6a6.5,6.5,0,0,1-2.9,2.3c1.6-1.3,3.2-3.8,4.5-7.4a13.9,13.9,0,0,1-1.5,2.2,6.9,6.9,0,0,1-2.5,2.4,17.9,17.9,0,0,0,3.4-6,10.6,10.6,0,0,1-3.3,4.3c0-.3.1-.6.1-1a2.5,2.5,0,0,1-1.7.3,7.7,7.7,0,0,0,2.7-3.1,14.3,14.3,0,0,0,.8-2.2,3.3,3.3,0,0,1-1.3,1.1,3.1,3.1,0,0,1-1.2.5,13.9,13.9,0,0,0,2.2-3.7,13.7,13.7,0,0,0,.7-2.4l-.5.3-.6.2a4.2,4.2,0,0,1-1.7,1.4,6.9,6.9,0,0,1,.5-1.3,1.9,1.9,0,0,0-.1-.8,12.2,12.2,0,0,0,.7-1.7,3.4,3.4,0,0,1-2.5,1.4,7.4,7.4,0,0,0,2.2-2.8,2.7,2.7,0,0,1-2.1,1.1,3,3,0,0,0,.4-1v-.8a17.5,17.5,0,0,0,1.7-4.3,18,18,0,0,1-1.4,3.1c.2-1.3.4-2.7.5-4a19.8,19.8,0,0,1-.8,2.6l-.7,1.3.6-3.9a7.5,7.5,0,0,1-.8,1.8,20.2,20.2,0,0,0,.4-2.6,13.3,13.3,0,0,1-1,2.4l.7.7-.9-.2c-.1,0-.1.1-.2.2a.4.4,0,0,0,.1-.3,2.8,2.8,0,0,1-.9-.7,7.3,7.3,0,0,0,1.8,2.5c0,.3-.1.6-.1.8a1.6,1.6,0,0,1-1,.1,7.4,7.4,0,0,0,1.2,1.6c0,.3.1.6.1.8s-1.9-.6-2.8-2a14.6,14.6,0,0,0,1.4,2.8,8.6,8.6,0,0,0,1.5,1.7,2.5,2.5,0,0,0,.1.8c-1,.1-2-.5-3-1.7a7,7,0,0,1-1.3-1.8c1.2,3.2,2.6,5.2,4,5.8-1.3-.1-2.7-1.3-4-3.8a20.5,20.5,0,0,0,2.1,4.2c.1.3.1.7.2,1l.6,1.3a5.5,5.5,0,0,1-2.5-2.2,9.7,9.7,0,0,0,3.1,4.2,2.5,2.5,0,0,1-.2.7q-2.2-.7-4.2-4.8l.6,2.1c1.2,2.7,2.5,4.5,3.9,5.2-.6.1-2.9-1.6-3.5-1.8s2.7,3.7,2.6,3.8a4.7,4.7,0,0,1-1.5-.6c-.2-.1-1.5-1.7-1.7-1.9s-.7-1.2-1-1.7l-.6-.3-.6-.6c.3,1,.5,1.9.8,2.8,1.5,3.7,3.1,6.2,4.8,7.3a5.3,5.3,0,0,1-2.6-1.6,7.3,7.3,0,0,1-1.6-1.8c0-.1.1-.2.2-.4l-.7,1.1-.3-.6.3-.7-.4.5-.4-.6.3.7-1.2,1.2-1.3.8v-.6a18.5,18.5,0,0,0,2.6-4l-1.4,1.4a7.8,7.8,0,0,1,.5-1.4,7.2,7.2,0,0,1-3.4,2.6,1.3,1.3,0,0,0-.1-.6l.9-1.1a16.3,16.3,0,0,0,2.2-3.2,6.1,6.1,0,0,1-1.6,1.3l.6-1.3h-1.1a4.9,4.9,0,0,1-2.2.6l.9-1a7,7,0,0,0,1.3-1.6,3.1,3.1,0,0,1-1.3.3c0-.2.1-.4.1-.6l.9-1.3a4.1,4.1,0,0,1-2.1.5c-.1-.2-.1-.4-.2-.6a6,6,0,0,0,2.2-1.8l-1.3.2a8.2,8.2,0,0,0,2-2.4l-.4-.3a3.7,3.7,0,0,1-1.5.8l.3-.8h-1.2a5.2,5.2,0,0,0,1-1.1l-.8-.2a5.3,5.3,0,0,0,1.3-1.6,7.6,7.6,0,0,1-1.5.1c.1-.2,0-.5,0-.7l-1.3-.6a10.7,10.7,0,0,0,.7,1.5,2.6,2.6,0,0,1-1.8-.9,6.4,6.4,0,0,0,1.4,2,1.3,1.3,0,0,1-.1.6,2.4,2.4,0,0,1-1.4-.6.5.5,0,0,1-.4.2,3,3,0,0,1,.2,1l.5,1.1a4.9,4.9,0,0,0,1.6,1.6,1.2,1.2,0,0,1-.5.5,1.7,1.7,0,0,1-1,0c0,.2-.1.3-.1.5s.1.5.1.8a6.6,6.6,0,0,1-2-1.6l.8,1.7a10.3,10.3,0,0,0,2.2,2.4,4.9,4.9,0,0,1-2.5-1.4,3.9,3.9,0,0,1-1-.8,10.1,10.1,0,0,0,3,3.8,6.7,6.7,0,0,1-2.9-2.1l.3,1.1,1.2,2a5.5,5.5,0,0,1-1.7-1.4,12.4,12.4,0,0,0,1,2l-1-.5a10.5,10.5,0,0,0,3.2,3.4,7.4,7.4,0,0,1-3.9-3.1,14.8,14.8,0,0,0,1.4,2.5,9.5,9.5,0,0,1-2-2,11.2,11.2,0,0,0,1.8,2.8,7.5,7.5,0,0,0-.7,1.2,10.6,10.6,0,0,1-1.6-1.9,4.4,4.4,0,0,1,.2,1c-.1.2-.1.3-.2.4l.9,1.6a11.2,11.2,0,0,1-2.1,2.2,3.5,3.5,0,0,1-2.1.7,7.9,7.9,0,0,0,1.7-1.9,12.8,12.8,0,0,0,1.1-2,4.8,4.8,0,0,1-2.8,1.6,3.6,3.6,0,0,0,.4-.9l.9-1.5a3.3,3.3,0,0,1-1.9.4c1.6-.7,3.1-2.6,4.5-5.4a8.5,8.5,0,0,1-3.5,3.4,11.7,11.7,0,0,0,1.9-2.6l-.9.3a4.3,4.3,0,0,1-2.8.7,7.1,7.1,0,0,0,3-2.6l-1.3.4.6-1.2a3.3,3.3,0,0,1-1.9.3l-.6-.7a6.4,6.4,0,0,0,1.7-1.3,15.3,15.3,0,0,0,1.5-2.3l-1.1.4c.3-.6.6-1.1.9-1.8a3.1,3.1,0,0,1-1.2.5,2.7,2.7,0,0,1-2.3-.1l-.4-.9c1.2.2,2.4-.6,3.5-2.2-.1-.1-.3-.2-.4-.4a2.5,2.5,0,0,1-2.8.5l1.1-.8a8.5,8.5,0,0,0,1.8-2.2l-.5-.2-.7-.2a1.8,1.8,0,0,1-1.4-.4,4.5,4.5,0,0,0,1.4-1.1c-.1-.2-.1-.5-.2-.7a1.5,1.5,0,0,1-.9-.2l-.3.5a2.7,2.7,0,0,1-2-1.4,5.7,5.7,0,0,0,.4,1.4,5.6,5.6,0,0,0,1.5,2.2,3.1,3.1,0,0,1-2.2-1.6c-.1.1-.1.3-.2.5a19.7,19.7,0,0,0,1.2,2.5l-.5.2a2.6,2.6,0,0,1-1.1-1,10.6,10.6,0,0,0,.6,1.9c-.2.1-.4,0-.6,0a14.7,14.7,0,0,0,1,2.2,8,8,0,0,0,1.5,2,5,5,0,0,1-2.8-2.2,10.5,10.5,0,0,0,2.3,3.4l-.3.6a7,7,0,0,0,1.7,1.4,3,3,0,0,1-1.6.2,6.4,6.4,0,0,1-2.9-2.8,14.6,14.6,0,0,0,2.3,3.8,5.6,5.6,0,0,1-2-1.6l-.8-.5a29.5,29.5,0,0,0,1.9,3.6c0,.3.1.6.1.9l-.4.3a6.9,6.9,0,0,1-1.7-1.7c1.4,2.9,3,4.6,4.6,5.2-1.9-.1-3.8-1.9-5.5-5.2l.3-.6c.2-.9.5-1.8.7-2.8l-.6.6-.5.3c-.4.5-.7,1.4-1,1.7A16.2,16.2,0,0,1,693,627a8.4,8.4,0,0,1-1.4.6c-.1-.1,2.7-3.7,2.5-3.8s-2.9,1.9-3.4,1.8c1.4-.8,2.7-2.5,3.9-5.2l.6-2.1c-1.3,2.7-2.8,4.3-4.2,4.8l-.3-.7a10.4,10.4,0,0,0,3.2-4.3,5,5,0,0,1-2.6,2.3l.6-1.3.3-1a20.6,20.6,0,0,0,2-4.2c-1.2,2.5-2.6,3.7-4,3.8,1.5-.6,2.9-2.6,4.1-5.8a9.4,9.4,0,0,1-1.4,1.8,3.4,3.4,0,0,1-2.9,1.7v-.8a6.6,6.6,0,0,0,1.6-1.7,24.3,24.3,0,0,0,1.4-2.8c-.9,1.4-1.9,2-2.8,2v-.8a4,4,0,0,0,1.2-1.6,1.8,1.8,0,0,1-1-.1v-.8a9,9,0,0,0,1.8-2.5,2.3,2.3,0,0,1-1,.7.4.4,0,0,1,.1.3v-.2l-1,.2a2.3,2.3,0,0,0,.7-.7q-.4-1.1-.9-2.4l.3,2.6a15.9,15.9,0,0,1-.8-1.8c.2,1.3.4,2.6.7,3.9-.2-.4-.5-.8-.7-1.3a19.8,19.8,0,0,1-.8-2.6c.1,1.3.3,2.6.5,4a12.6,12.6,0,0,1-1.4-3.1,19.4,19.4,0,0,0,1.6,4.3,1.9,1.9,0,0,0,.1.8l.3,1a2.7,2.7,0,0,1-2.1-1.1,8.5,8.5,0,0,0,2.2,2.8,3.4,3.4,0,0,1-2.4-1.4l.6,1.7v.8c.2.4.3.9.5,1.3a4.4,4.4,0,0,1-1.8-1.4l-.5-.2-.6-.3c.3.9.5,1.7.8,2.4a10.1,10.1,0,0,0,2.2,3.6,2,2,0,0,1-1.3-.4,5.8,5.8,0,0,1-1.3-1.1c.3.8.6,1.5.8,2.2a7.8,7.8,0,0,0,2.8,3.1,2.9,2.9,0,0,1-1.8-.3c.1.4.1.7.2,1a9.8,9.8,0,0,1-3.3-4.3,17.2,17.2,0,0,0,3.4,6,6.3,6.3,0,0,1-2.5-2.4,13.9,13.9,0,0,1-1.5-2.2c1.3,3.6,2.8,6.1,4.4,7.4a6.3,6.3,0,0,1-2.8-2.3l-.8-.6.9,2.5a17.9,17.9,0,0,1-2.4-3.8,30.9,30.9,0,0,0,2.8,6l.6,1.7h-.7a16.7,16.7,0,0,0,2.4,3.1c-2.1-.9-4.2-3.8-6.1-8.6a46.5,46.5,0,0,0,1.7,4.9l-.8-.7.9,2.7a16.3,16.3,0,0,0,3.8,5.4,7,7,0,0,1-2.8-2l1.3,2.4A16.6,16.6,0,0,1,683,635c.6,1.4,1.1,2.7,1.7,3.8s.9,2.1,1.4,3.2H685l-8,5v12l9,7.1V683l-45,12-6.6.8a25.5,25.5,0,0,0,1.3-2.9,24.5,24.5,0,0,1-1.8,2.9h-.8l.3-.6-.7.7h-.9a20.3,20.3,0,0,0,2.6-4.2c.3-.9.6-1.7.9-2.7l-.8.7a46.5,46.5,0,0,0,1.7-4.9c-1.8,4.8-3.9,7.7-6.1,8.6a13.5,13.5,0,0,0,2.5-3.1h-.8l.6-1.7a25.9,25.9,0,0,0,2.8-6,17.9,17.9,0,0,1-2.4,3.8c.3-.8.7-1.6,1-2.5l-.9.6a5.9,5.9,0,0,1-2.8,2.3c1.6-1.3,3.1-3.8,4.5-7.4a13.9,13.9,0,0,1-1.5,2.2,7.1,7.1,0,0,1-2.6,2.4c1.3-1.2,2.4-3.3,3.5-6a9.9,9.9,0,0,1-3.4,4.3c.1-.3.1-.6.2-1a2.9,2.9,0,0,1-1.8.3,7.8,7.8,0,0,0,2.8-3.1c.3-.7.5-1.4.8-2.2a4.2,4.2,0,0,1-1.3,1.1,1.9,1.9,0,0,1-1.2.4,11.8,11.8,0,0,0,2.2-3.6c.2-.7.5-1.5.7-2.4l-.5.3-.6.2a4.4,4.4,0,0,1-1.8,1.4,6.9,6.9,0,0,0,.5-1.3v-.8l.6-1.7a3.4,3.4,0,0,1-2.4,1.4,7.4,7.4,0,0,0,2.2-2.8,2.7,2.7,0,0,1-2.1,1.1,10.4,10.4,0,0,0,.4-1v-.8a25.7,25.7,0,0,0,1.7-4.3,18,18,0,0,1-1.4,3.1c.2-1.4.3-2.7.5-4.1l-.9,2.7a5.4,5.4,0,0,1-.7,1.3c.3-1.3.5-2.6.7-3.9a7.5,7.5,0,0,1-.8,1.8c.1-.9.3-1.7.4-2.6-.3.9-.7,1.7-1,2.4l.7.7-1-.2a.3.3,0,0,0-.1.2c0-.1.1-.2.1-.3l-.9-.7a7.2,7.2,0,0,0,1.7,2.5v.8a1.7,1.7,0,0,1-1,.1,7.4,7.4,0,0,0,1.2,1.6,2.2,2.2,0,0,0,.1.8c-1,0-1.9-.6-2.9-2a23.7,23.7,0,0,0,1.5,2.8,4.7,4.7,0,0,0,1.5,1.6v.9a3.4,3.4,0,0,1-2.9-1.7,6.4,6.4,0,0,1-1.3-1.8c1.1,3.2,2.5,5.2,4,5.8-1.4-.1-2.7-1.3-4-3.8a20.6,20.6,0,0,0,2,4.2l.3,1,.6,1.3a5.4,5.4,0,0,1-2.6-2.3,10.4,10.4,0,0,0,3.2,4.3l-.3.7c-1.4-.5-2.8-2.1-4.1-4.8a16,16,0,0,0,.5,2.1c1.2,2.7,2.6,4.4,4,5.2-.6.1-3-1.6-3.5-1.8s2.7,3.7,2.5,3.8a8.4,8.4,0,0,1-1.4-.6c-.2-.1-1.5-1.7-1.8-1.9s-.6-1.2-1-1.7l-.5-.4a1.7,1.7,0,0,1-.6-.6c.3,1,.5,2,.8,2.9,1.4,3.7,3.1,6.1,4.8,7.3a4.9,4.9,0,0,1-2.6-1.6,7.4,7.4,0,0,1-1.7-1.8.5.5,0,0,0,.2-.4l-.7,1.1-.3-.7.4-.6c-.2.1-.3.3-.5.5l-.3-.7.3.7-1.2,1.3-1.4.8v-.6a21.2,21.2,0,0,0,2.5-4,9.3,9.3,0,0,1-1.4,1.4,7.8,7.8,0,0,0,.5-1.4,7.5,7.5,0,0,1-3.3,2.6c0-.2-.1-.4-.1-.6a4.4,4.4,0,0,0,.8-1.1,16.5,16.5,0,0,0,2.3-3.2,9.6,9.6,0,0,1-1.7,1.3,8.3,8.3,0,0,0,.7-1.3h-1.2a4.3,4.3,0,0,1-2.2.6,4.7,4.7,0,0,0,1-1c.4-.5.9-1,1.3-1.6l-1.3.3v-.6l.9-1.4a3.9,3.9,0,0,1-2,.6,1.4,1.4,0,0,1-.2-.6,6.2,6.2,0,0,0,2.1-1.9,2.7,2.7,0,0,1-1.2.3,10.1,10.1,0,0,0,2-2.4l-.4-.3a3.7,3.7,0,0,1-1.5.8c.1-.3.1-.6.2-.8h-1.1l1-1.1-.9-.2a5.6,5.6,0,0,0,1.4-1.6,7.6,7.6,0,0,1-1.5.1v-.7l-1.3-.6c.3.5.3,1.1.7,1.5a2.8,2.8,0,0,1-1.9-.9,11.5,11.5,0,0,0,1.5,2c0,.2-.1.4-.1.6a4.2,4.2,0,0,1-1.4-.6l-.4.2c.1.3.1.6.2.9s.3.8.4,1.2a6.2,6.2,0,0,0,1.7,1.6l-.5.5a3.4,3.4,0,0,1-1,0l-.2.5c.1.3.1.5.2.8a7,7,0,0,1-2-1.6c.2.6.5,1.1.7,1.7a10.6,10.6,0,0,0,2.3,2.4,5.6,5.6,0,0,1-2.6-1.4l-1-.8a12.5,12.5,0,0,0,3,3.8,6.4,6.4,0,0,1-2.8-2.1l.3,1a5.6,5.6,0,0,0,1.2,2,6.8,6.8,0,0,1-1.8-1.3l1,2-.9-.5a11.5,11.5,0,0,0,3.1,3.4,8.2,8.2,0,0,1-3.9-3.1l1.4,2.5a12.3,12.3,0,0,1-1.9-2,14.1,14.1,0,0,0,3.6,4.7v.6l-1.2-.2a9.3,9.3,0,0,1-2.9-3c.1.4.1.7.2,1s-.2.3-.2.4a19.3,19.3,0,0,0,1.9,3.2,7.2,7.2,0,0,1-1.5-1.1v.7a18.9,18.9,0,0,0,2.2,3.1,8,8,0,0,1-2.3-1.9,12.8,12.8,0,0,0,1.1,2,10.6,10.6,0,0,1-2.3-2.4,8.8,8.8,0,0,0,.5,1.5,16.9,16.9,0,0,0,3.6,4.5h-.7a14.4,14.4,0,0,1-4.5-5.1,20.8,20.8,0,0,0,4,6,.3.3,0,0,0-.1.2h-.6a8.9,8.9,0,0,1-.2-1.1l-.9.5.6.6L589,701l-83,5s-79-8-84-8l-66-27-66-14c-5-2-59-31-64-34s-8.4-16-8.4-16H191l-19-19.6V540s-34-1-38-4.5L123,996l1452-1ZM622.7,692.4c.4-.6.7-1.3,1.1-2s.5,1,.8,1.4l-.9,1.6A4.7,4.7,0,0,1,622.7,692.4Zm-.2-.2-.9-1a5.4,5.4,0,0,0,.7-1.3l-.9,1-.3-.3a10.4,10.4,0,0,0,1.5-2.5l1.1,2.2-1.2,1.9Zm1.8.3a1.6,1.6,0,0,0,.4.7l-.5.7c-.1-.1-.3-.2-.4-.4A9.3,9.3,0,0,0,624.3,692.5Zm.4.7a7.8,7.8,0,0,0,1.1,1.8,4.4,4.4,0,0,1-1.5-1Zm-1.8,2.4-.9,1.1.8-1.3Zm.2.6.3.8h-.9Zm3.4-2.2a7.5,7.5,0,0,1-1.7-1,.3.3,0,0,1,.1-.2.3.3,0,0,0-.1.2l-.5-.5.3-.7A10.4,10.4,0,0,0,626.5,694Zm-1.5-3.1-.9-1c0-.1.1-.2.1-.4S624.7,690.5,625,690.9Zm-1.9-3.8,1.1,2.4c0,.1-.1.2-.2.3l-1.3-1.9A2,2,0,0,0,623.1,687.1Zm-.8.2a1.4,1.4,0,0,1,.2.6,11.2,11.2,0,0,1-1.7,2Zm-1.3,3.5v.4l-1,.8Zm-.7,2.3,1-1.4.5,1.2-1.2,1.2a8.1,8.1,0,0,1-2.1,1A11.2,11.2,0,0,0,620.3,693.1Zm-.8,3.3a14.5,14.5,0,0,0,2.5-2.9l.6,1.4a12,12,0,0,1-2.6,2.5h-.7l.8-.9Zm98.8-53.6a.4.4,0,0,0,.1-.3,21,21,0,0,0,1.5-2.2l.7,1.7-.9.8Zm-10.4-.2a8.9,8.9,0,0,1-.2-1.1l-.8.5a1.2,1.2,0,0,0,.5.5h-2.3l.3-1,1.3.6h.2a8.6,8.6,0,0,1-1.3-1.4v-.2l1.1-.5h0a1.9,1.9,0,0,0-.2.7l.4-.4,1.7,2.1a.8.8,0,0,1-.1.3Zm-13.8-7.3.3-.7-.4.5c-.1-.1-.1-.1-.1-.2v.2a4.7,4.7,0,0,1-1.6,1,17.8,17.8,0,0,0,2.8-3.8l.9,2.2-1,1.1-.5.4Zm.1,1a4.2,4.2,0,0,1-1.2.8l1-1.6A2.4,2.4,0,0,0,694.2,636.3Zm5.5.1a4.1,4.1,0,0,1-1.9-.9l-.8-.7.4-1A9.9,9.9,0,0,0,699.7,636.4Zm-2.1-3.2.3-.6.9,1.6Zm-1.2.8a10.5,10.5,0,0,1-1.2-1.9,6.7,6.7,0,0,0,.6-1.2,13.6,13.6,0,0,0,1.3,2.4Zm0,2.2a17.9,17.9,0,0,0,2.9,3.8,2.9,2.9,0,0,1,.2.9,7.5,7.5,0,0,1-2-1,7.9,7.9,0,0,1-1.7-1.9Zm9,1.6a.4.4,0,0,1,.1.3h-.3C705.2,638,705.3,637.9,705.4,637.8Zm1.9.7.4.6-.7.3Zm.4-1c0-.1,0-.1.1-.2s.1.3.2.5Zm.3,1.8a18,18,0,0,0,1.8,2h-.7a11.9,11.9,0,0,1-1.8-1.5Zm0-2.5.2-.5a14.7,14.7,0,0,0,1,1.3Zm-.4-.4-.7-.7.4-.7.6.9Zm-.2.3-.3.3-.6-.7a2.1,2.1,0,0,0,.4-.6A9.3,9.3,0,0,1,707.4,636.7Zm-1.2.1.4.7-.6.5c0,.1-.1,0-.2.1l-.3-.4.7-.9Zm10.1,3.7a14.8,14.8,0,0,0,2.6-2.9l.5,1.4a11,11,0,0,1-3.8,3.2,6.4,6.4,0,0,0,1.3-1.5Zm3-4.2a4.1,4.1,0,0,0-.9-1l.8-1.3-1,1-.2-.3a18.3,18.3,0,0,0,1.5-2.5,11.3,11.3,0,0,0,1.1,2.2c-.4.7-.9,1.3-1.3,1.9Zm1.3-1.8.9,1.4-1,1.6-1-1A9.5,9.5,0,0,0,720.6,634.5Zm.4,3.5-.3-.4.4-.9.4.6Zm.5-.6,1.1,1.8a4.9,4.9,0,0,1-1.4-1.1Zm-1.8,2.4-.9,1,.8-1.3Zm-3.3,2.8v.2h-.3C716.3,642.7,716.4,642.7,716.4,642.6Zm4.3-.4.2.7H720Zm2.6-4.1a6.2,6.2,0,0,1-1.7-1l.2-.2-.2.2c-.1-.2-.3-.3-.5-.5a1.6,1.6,0,0,0,.4-.7A14.2,14.2,0,0,0,723.3,638.1Zm-1.5-3.1-.9-1c.1-.1.1-.2.2-.4S721.6,634.6,721.8,635Zm-1.8-3.7a16.3,16.3,0,0,0,1.1,2.3c-.1.1-.2.2-.2.3a7,7,0,0,1-1.3-1.9A2.5,2.5,0,0,1,720,631.3Zm-.9.1.3.6a18,18,0,0,1-1.8,2A22,22,0,0,0,719.1,631.4Zm-1.3,3.5.2.4-1.1.8Zm-.6,2.3.9-1.4.5,1.2a6.3,6.3,0,0,1-1.1,1.2,6.7,6.7,0,0,1-2.1,1Zm-8.3-6.1a10.7,10.7,0,0,0,1.9,1.8,1.3,1.3,0,0,1-.1.6,2.3,2.3,0,0,1-1.1-.2l-1.1-.8C708.6,632,708.8,631.6,708.9,631.1Zm-.4,3.8a1.6,1.6,0,0,1-.8-.6l.2-.4Zm-12.6-9a17.9,17.9,0,0,0,2.4,4.6,10.4,10.4,0,0,0,1.6,2.2h-1l-.9-.4V632l-.2.3h-.2a.1.1,0,0,1,.1.1l-.4.6a14,14,0,0,1-1.6-2.2,16,16,0,0,0,1-2.3l-1.2,2.1c0-.2-.1-.3-.2-.5s.1.3.2.5l-.7,1.1-.2-.3c0,.1.1.2.1.3a14.7,14.7,0,0,1-1,1.3,34.3,34.3,0,0,0,1.8-3.8A7.3,7.3,0,0,1,694,631a5.5,5.5,0,0,1-2.7,1.6C693,631.5,694.5,629.3,695.9,625.9Zm-.8,13.7a16,16,0,0,0,2.2,2.7h-3.2Z"/>
  </g>
</svg>
