<svg id="Parallax_background" xmlns="http://www.w3.org/2000/svg" viewBox="0 0 1689 1098">
  <defs>
    <style>
      .cls-1 {
        fill: #212121;
      }
    </style>
  </defs>
  <g id="Layer4">
    <path class="cls-1" d="M1550,754l-36.7,9.5L1484,751l-28-6-13,4,9.3,14.5h-40.9L1399,774l-5,20-25.1,18h-43.4L1263,802l-47.8,10-57.6-48.5L1111,727.8V717l-1.1-.7,5.1-12.9a28.3,28.3,0,0,1-2.6,3.1,10.2,10.2,0,0,1-1.8,1.8,9.5,9.5,0,0,1-2.8,2.3,38.2,38.2,0,0,0,2.1-3.6,8.5,8.5,0,0,1-3.1,2.1c2.3-2.1,4.5-5.7,6.4-10.7a22.2,22.2,0,0,1-4.3,6.3,36,36,0,0,0,2.6-5.2,11.4,11.4,0,0,1-2.3,2.5,6.9,6.9,0,0,1-3.7,2.2c2.4-1.6,4.7-5,6.8-10.1.3-1.3.7-2.7,1-4.1a3.4,3.4,0,0,1-.8.9l-.7.5c-.5.6-.9,1.9-1.4,2.4s-2.2,2.4-2.5,2.5a6.2,6.2,0,0,1-2,1c-.2-.2,3.7-5.2,3.5-5.4s-4,2.7-4.8,2.6c2-1.1,3.8-3.6,5.5-7.3.3-1,.6-2,.8-3-1.8,3.8-3.8,6.1-5.8,6.7a3,3,0,0,1-.4-1c1.6-1,3.1-3,4.4-5.9a7.1,7.1,0,0,1-3.6,3.2l.9-1.8.3-1.5a28.4,28.4,0,0,0,2.9-5.8c-1.8,3.4-3.7,5.2-5.6,5.3,2-.8,4-3.6,5.6-8a12.5,12.5,0,0,1-1.8,2.4c-1.3,1.7-2.7,2.5-4.1,2.3V679a8.1,8.1,0,0,0,2.2-2.3,35,35,0,0,0,2-3.9c-1.3,1.9-2.7,2.8-4,2.8s.1-.7.1-1.1a8.6,8.6,0,0,0,1.7-2.3,2.3,2.3,0,0,1-1.4-.1c0-.3-.1-.7-.1-1.1a9.8,9.8,0,0,0,2.5-3.6,4.2,4.2,0,0,1-1.3,1.1.6.6,0,0,1,.1.4c0-.1-.1-.2-.2-.3a2.8,2.8,0,0,1-1.3.3,9.4,9.4,0,0,0,1-1,20.5,20.5,0,0,1-1.4-3.3c.2,1.2.3,2.4.5,3.6-.4-.7-.7-1.6-1.1-2.5.3,1.9.6,3.7,1,5.4a7.7,7.7,0,0,1-1-1.8c-.4-1.1-.8-2.3-1.2-3.7.2,1.9.4,3.8.7,5.6a21.7,21.7,0,0,1-2-4.3,28.7,28.7,0,0,0,2.4,6v1.2a7.8,7.8,0,0,1,.5,1.4,4.1,4.1,0,0,1-2.9-1.6,10,10,0,0,0,3.1,3.9,4.6,4.6,0,0,1-3.4-2q.5,1.4.9,2.4a4.1,4.1,0,0,0-.1,1.1c.2.7.5,1.3.7,1.9a6.1,6.1,0,0,1-2.4-2l-.8-.3-.8-.3c.3,1.1.7,2.3,1,3.3a19.5,19.5,0,0,0,3.1,5.1,5.8,5.8,0,0,1-1.7-.6,8.6,8.6,0,0,1-1.8-1.6c.4,1.1.7,2.1,1.1,3.1a12.2,12.2,0,0,0,3.8,4.4,4.2,4.2,0,0,1-2.4-.5c.1.5.1,1,.2,1.4-1.6-1-3.1-3-4.6-6a24.8,24.8,0,0,0,4.8,8.4,10.8,10.8,0,0,1-3.6-3.3,22.2,22.2,0,0,1-2.1-3.2c1.9,5.1,4,8.6,6.3,10.3a8.6,8.6,0,0,1-4-3.1l-1.2-.9c.5,1.3.9,2.5,1.4,3.6a24.9,24.9,0,0,1-3.4-5.5,40.1,40.1,0,0,0,3.9,8.5l.9,2.3h-1.1a17.6,17.6,0,0,0,3.5,4.3c-3-1.3-6-5.2-8.6-11.9a53.9,53.9,0,0,0,2.4,6.8l-1.1-1,1.2,3.8c.4.7.7,1.4,1.1,2l-5.4-3.3.8-.9-1.1.7-1-.6c.2-.5.3-.9.5-1.3s1.3-2.9,1.9-4.5a22.7,22.7,0,0,1-4.1,5.1h-1.3a24.8,24.8,0,0,0,4.3-6.9,35.6,35.6,0,0,0,1.3-3.9,19.7,19.7,0,0,1-5.2,7.2,7.2,7.2,0,0,1-2.9,1,12.5,12.5,0,0,0,2.3-2.7,18.7,18.7,0,0,0,1.6-2.8,8,8,0,0,1-3.9,2.3l.5-1.4a17.4,17.4,0,0,0,1.3-2,4.4,4.4,0,0,1-2.7.5c2.2-1,4.3-3.6,6.2-7.6-1.5,2.6-3.2,4.2-4.9,4.9a15.4,15.4,0,0,0,2.7-3.7l-1.3.4a4.9,4.9,0,0,1-3.8,1,9.7,9.7,0,0,0,4.2-3.6,4.1,4.1,0,0,1-1.8.5c.3-.5.5-1.1.8-1.7a4.3,4.3,0,0,1-2.7.4l-.8-.9a6.7,6.7,0,0,0,2.3-1.9,11.1,11.1,0,0,0,2.1-3.2,4.7,4.7,0,0,1-1.5.6,18.3,18.3,0,0,0,1.3-2.4,5.8,5.8,0,0,1-1.7.6,3.6,3.6,0,0,1-3.2-.1l-.6-1.2c1.7.2,3.4-.9,4.9-3.1l-.5-.6a3.2,3.2,0,0,1-3.9.6,4.8,4.8,0,0,0,1.5-1.1,8.6,8.6,0,0,0,2.5-3l-.7-.3a1.6,1.6,0,0,1-.9-.3,2.4,2.4,0,0,1-2-.5,4.5,4.5,0,0,0,1.9-1.6c-.1-.3-.1-.6-.2-.9a3.1,3.1,0,0,1-1.3-.3,1.6,1.6,0,0,1-.4.7,3.7,3.7,0,0,1-2.8-1.9c.2.7.3,1.3.5,2a10.6,10.6,0,0,0,2.2,3,4.5,4.5,0,0,1-3.2-2.3c-.1.2-.1.5-.2.7a31.7,31.7,0,0,0,1.6,3.6l-.7.2a5.8,5.8,0,0,1-1.5-1.3,19.8,19.8,0,0,0,.8,2.6h-.7a20.8,20.8,0,0,0,1.3,3,10.9,10.9,0,0,0,2.2,2.8c-1.4-.2-2.7-1.3-4-3.1a14.9,14.9,0,0,0,3.3,4.9,2.5,2.5,0,0,0-.4.7,7,7,0,0,0,2.3,2,3.7,3.7,0,0,1-2.3.2,9.1,9.1,0,0,1-4-3.9,21.9,21.9,0,0,0,3.2,5.4,7.5,7.5,0,0,1-2.7-2.2l-1.1-.8a24.2,24.2,0,0,0,2.6,5.1c0,.4.1.8.1,1.2l-.6.4a10.2,10.2,0,0,1-2.4-2.3c2,4,4.2,6.4,6.5,7.2-2.4-.2-4.8-2.2-7.1-6.1l.6-.8-.5-.4-.5.4a2.1,2.1,0,0,0-.4-.6l.3.6a4.7,4.7,0,0,1-1.5.6l.3-1.1a4.5,4.5,0,0,1-1.6-.1,5.6,5.6,0,0,0,1.4-1.6l-1.2-.2a6.9,6.9,0,0,0,1.9-2.2,13.6,13.6,0,0,1-2.1.2,4.1,4.1,0,0,0,0-1.1l-1.8-.8a8.2,8.2,0,0,0,1,2.1,3.9,3.9,0,0,1-2.6-1.2,10,10,0,0,0,2,2.7,2.8,2.8,0,0,1-.1.9,6.4,6.4,0,0,1-2-.8l-.5.2.3,1.3.6,1.6a8.4,8.4,0,0,0,2.3,2.3l-.7.7a3.3,3.3,0,0,1-1.4,0,6.4,6.4,0,0,0-.2.7,5.2,5.2,0,0,0,.2,1.1,8.1,8.1,0,0,1-2.8-2.3c.3.9.7,1.7,1,2.4a11.2,11.2,0,0,0,3.2,3.3,7,7,0,0,1-3.6-1.9l-1.4-1a14.4,14.4,0,0,0,4.2,5.2,8.5,8.5,0,0,1-3.9-2.9l.3,1.5a26.1,26.1,0,0,0,1.7,2.8,13.3,13.3,0,0,1-2.4-1.9,17.1,17.1,0,0,0,1.4,2.7l-1.3-.7a14.6,14.6,0,0,0,4.3,4.8c-1.8-.5-3.6-2-5.4-4.3a34.5,34.5,0,0,0,1.9,3.4,12.1,12.1,0,0,1-2.7-2.8,20.9,20.9,0,0,0,5.1,6.7v.8a4.5,4.5,0,0,1-1.6-.3,15,15,0,0,1-4.1-4.2c.1.5.1,1,.2,1.5l-.3.5a44.5,44.5,0,0,0,2.7,4.5,9.5,9.5,0,0,1-2-1.5c0,.3-.1.6-.1.9a22.9,22.9,0,0,0,3,4.1h-.1a14.8,14.8,0,0,1-3.1-2.6l1.6,2.9a17.5,17.5,0,0,1-3.2-3.4l.7,2.1a13.7,13.7,0,0,0,1.3,2l-1.3.5-.3-.3a5,5,0,0,1,.5-1.3l-.6,1.1a24.9,24.9,0,0,1-1.7-2.4c.5-1,.9-2,1.3-3s.8-2.7,1.1-4.1l-.8.9-.8.4c-.5.7-.9,2-1.4,2.4a30.8,30.8,0,0,1-2.4,2.6,6.2,6.2,0,0,1-2,1c-.2-.2,3.7-5.2,3.5-5.4s-4.1,2.7-4.8,2.6c1.9-1.1,3.8-3.6,5.5-7.4.3-.9.5-1.9.8-2.9-1.9,3.8-3.8,6.1-5.9,6.7a6.9,6.9,0,0,0-.4-1c1.6-1,3.1-3,4.5-5.9a8,8,0,0,1-3.6,3.2,14.2,14.2,0,0,0,.8-1.8,8.3,8.3,0,0,0,.4-1.5,28.4,28.4,0,0,0,2.9-5.8c-1.8,3.4-3.7,5.2-5.6,5.3,2-.9,4-3.6,5.6-8a12.5,12.5,0,0,1-1.8,2.4c-1.4,1.7-2.8,2.5-4.1,2.3V694a7.9,7.9,0,0,0,2.1-2.3,23.6,23.6,0,0,0,2-3.9c-1.3,1.9-2.6,2.8-3.9,2.8s.1-.8.1-1.1a15.3,15.3,0,0,0,1.7-2.3,2.2,2.2,0,0,1-1.4-.1,4.1,4.1,0,0,1-.1-1.1,10.7,10.7,0,0,0,2.5-3.6,5.8,5.8,0,0,1-1.3,1.1c0,.1.1.3.1.4s-.1-.2-.2-.4a2.2,2.2,0,0,1-1.3.4l1-1a20.5,20.5,0,0,1-1.4-3.3c.1,1.2.3,2.4.5,3.6a18.9,18.9,0,0,1-1.1-2.5l.9,5.4a15,15,0,0,1-.9-1.8,20.1,20.1,0,0,1-1.2-3.7c.2,1.9.4,3.8.7,5.6a24.8,24.8,0,0,1-2-4.3,36.1,36.1,0,0,0,2.3,6,4.9,4.9,0,0,1,.1,1.2l.5,1.4a3.9,3.9,0,0,1-2.9-1.6,9.2,9.2,0,0,0,3.1,3.9c-1.2,0-2.3-.7-3.5-2l.9,2.4v1.1a10.7,10.7,0,0,0,.7,1.9,8.4,8.4,0,0,1-2.5-2l-.8-.3-.7-.3a31.8,31.8,0,0,0,1,3.3,19.5,19.5,0,0,0,3.1,5.1,4.9,4.9,0,0,1-1.7-.6,8.6,8.6,0,0,1-1.8-1.6,28.3,28.3,0,0,0,1.1,3.1,13.1,13.1,0,0,0,3.8,4.4,4.7,4.7,0,0,1-2.5-.5l.3,1.4c-1.6-1-3.2-3-4.7-6a26.6,26.6,0,0,0,4.8,8.4,9.3,9.3,0,0,1-3.5-3.4,16.6,16.6,0,0,1-2.1-3.1c1.9,5.1,4,8.6,6.2,10.3a8.9,8.9,0,0,1-3.9-3.1l-1.2-.9a38.4,38.4,0,0,0,1.4,3.6,24.9,24.9,0,0,1-3.4-5.5,40.1,40.1,0,0,0,3.9,8.5l.9,2.3h-1.1l.8,1.3-.8.3a32.7,32.7,0,0,1-5.1-9.3c.7,2.5,1.5,4.8,2.3,6.9a9.4,9.4,0,0,1-1-1l1.2,3.8.3.5-2.1.8h0L1016,733s-110,9-119,14l-25.9,1.3,2.8-7.2a28.3,28.3,0,0,1-2.6,3.1,11.1,11.1,0,0,1-1.8,1.9,10.8,10.8,0,0,1-2.8,2.2,28.7,28.7,0,0,0,2.1-3.6,8.5,8.5,0,0,1-3.1,2.1c2.3-2,4.5-5.6,6.4-10.7a21.4,21.4,0,0,1-4.3,6.4,37.4,37.4,0,0,0,2.6-5.3,11.4,11.4,0,0,1-2.3,2.5,6.9,6.9,0,0,1-3.7,2.2c2.4-1.6,4.7-5,6.8-10.1.3-1.3.7-2.6,1-4a3,3,0,0,1-.8.8l-.7.5a25.5,25.5,0,0,1-1.4,2.4c-.4.2-2.2,2.5-2.5,2.6a8.8,8.8,0,0,1-2,.9c-.2-.2,3.7-5.2,3.5-5.4s-4,2.7-4.8,2.6c2-1.1,3.8-3.6,5.5-7.3.3-1,.6-2,.8-3-1.8,3.9-3.8,6.1-5.8,6.7a3.6,3.6,0,0,1-.4-.9c1.6-1,3.1-3,4.4-5.9a6.9,6.9,0,0,1-3.6,3.1,15,15,0,0,0,.9-1.8l.3-1.5a24.1,24.1,0,0,0,2.9-5.8c-1.8,3.5-3.7,5.2-5.6,5.4,2-.9,4-3.7,5.6-8.1a12.5,12.5,0,0,1-1.8,2.4c-1.3,1.7-2.7,2.5-4.1,2.4v-1.2a8.1,8.1,0,0,0,2.2-2.3,27.9,27.9,0,0,0,2-3.9c-1.3,1.9-2.7,2.9-4,2.8s.1-.7.1-1.1a9.8,9.8,0,0,0,1.7-2.2,3.4,3.4,0,0,1-1.4-.2c0-.3-.1-.7-.1-1.1a10.2,10.2,0,0,0,2.5-3.5,5.7,5.7,0,0,1-1.3,1,.8.8,0,0,1,.1.4c0-.1-.1-.2-.2-.3a2.8,2.8,0,0,1-1.3.3l1-.9a21.8,21.8,0,0,1-1.4-3.4c.2,1.2.3,2.4.5,3.6-.4-.7-.7-1.6-1.1-2.5.3,1.9.6,3.7,1,5.4a9.5,9.5,0,0,1-1-1.7c-.4-1.2-.8-2.4-1.2-3.8.2,1.9.4,3.8.7,5.6a21.7,21.7,0,0,1-2-4.3,29.8,29.8,0,0,0,2.4,6.1v1.1a12.1,12.1,0,0,1,.5,1.4,4.3,4.3,0,0,1-2.9-1.5,10.4,10.4,0,0,0,3.1,3.8,4.3,4.3,0,0,1-3.4-2q.4,1.3.9,2.4a4.5,4.5,0,0,0-.1,1.1c.2.7.5,1.3.7,1.9a6.1,6.1,0,0,1-2.4-2,1.1,1.1,0,0,1-.8-.3l-.8-.3c.3,1.2.7,2.3,1,3.3a19.5,19.5,0,0,0,3.1,5.1,5.8,5.8,0,0,1-1.7-.6,8,8,0,0,1-1.8-1.5l1.1,3a12.2,12.2,0,0,0,3.8,4.4,3.5,3.5,0,0,1-2.4-.5c.1.5.1,1,.2,1.4-1.6-1-3.1-3-4.6-6a23.8,23.8,0,0,0,4.8,8.4,10.8,10.8,0,0,1-3.6-3.3,27.7,27.7,0,0,1-2.1-3.1c1.9,5,4,8.5,6.3,10.3a8.9,8.9,0,0,1-4-3.2,4.7,4.7,0,0,1-1.2-.9c.5,1.3.9,2.5,1.4,3.6a26.5,26.5,0,0,1-3.4-5.4,42.6,42.6,0,0,0,3.9,8.5l.9,2.2h-1.1a17.6,17.6,0,0,0,3.5,4.3c-3-1.2-6-5.2-8.6-11.9a53.9,53.9,0,0,0,2.4,6.8l-1.1-.9,1.2,3.7a36.6,36.6,0,0,0,3,5h-1.2a.8.8,0,0,0-.4-.4.8.8,0,0,1,.2.4H856l-2.2-2c-.3-.6-.7-1.1-1-1.8l.6,1.4-3.9-3.5L844,750l-22,3-72,12-17.8.9c.3-1,.5-1.8.6-2l1.5-.8a10.4,10.4,0,0,0-.4,1,14.9,14.9,0,0,0,3.3-3,9,9,0,0,1-2.6,1.3l.9-2.4a39.9,39.9,0,0,0,1.9-4.6,19.2,19.2,0,0,1-4.1,5.2h-1.2a27.3,27.3,0,0,0,4.3-6.9c.4-1.3.9-2.6,1.3-4a22.5,22.5,0,0,1-5.3,7.3,6.2,6.2,0,0,1-2.9.9,20.5,20.5,0,0,0,2.4-2.6l1.5-2.8a7.8,7.8,0,0,1-3.9,2.2l.6-1.3,1.2-2a5.2,5.2,0,0,1-2.7.5c2.3-1.1,4.4-3.6,6.3-7.6-1.6,2.5-3.2,4.2-4.9,4.8a16.9,16.9,0,0,0,2.7-3.7,3.3,3.3,0,0,1-1.3.4,5.3,5.3,0,0,1-3.9,1,9,9,0,0,0,4.2-3.5,5.9,5.9,0,0,1-1.7.4l.7-1.6a4.8,4.8,0,0,1-2.6.4,3.9,3.9,0,0,1-.8-1,7.3,7.3,0,0,0,2.3-1.8,22.2,22.2,0,0,0,2.1-3.2,3,3,0,0,1-1.5.5,26.8,26.8,0,0,0,1.2-2.4,5.2,5.2,0,0,1-1.6.6,3.5,3.5,0,0,1-3.3-.1L726,734c1.7.3,3.4-.8,4.8-3.1l-.4-.5a3.6,3.6,0,0,1-3.9.6,4.8,4.8,0,0,0,1.5-1.1,7.6,7.6,0,0,0,2.4-3l-.6-.4-1-.2a3,3,0,0,1-2-.5,4.7,4.7,0,0,0,1.9-1.6c0-.3-.1-.7-.1-1a1.9,1.9,0,0,1-1.3-.2,2.5,2.5,0,0,0-.4.7,3.9,3.9,0,0,1-2.8-2,11.7,11.7,0,0,0,.5,2,9.8,9.8,0,0,0,2.1,3.1c-1-.1-2.1-.9-3.1-2.4l-.3.8a38.4,38.4,0,0,0,1.7,3.5l-.7.3a6.7,6.7,0,0,1-1.6-1.4l.9,2.7h-.8c.4,1.1.9,2.1,1.3,3a9.4,9.4,0,0,0,2.2,2.8c-1.3-.2-2.7-1.2-3.9-3.1a16.6,16.6,0,0,0,3.2,4.9,3,3,0,0,1-.4.8,7.7,7.7,0,0,0,2.3,1.9,4.2,4.2,0,0,1-2.2.3,9.8,9.8,0,0,1-4-3.9,22.6,22.6,0,0,0,3.1,5.4,9.2,9.2,0,0,1-2.7-2.3,3.8,3.8,0,0,1-1.1-.8,26.8,26.8,0,0,0,2.6,5.1c.1.5.1.9.2,1.3l-.7.4a13.3,13.3,0,0,1-2.3-2.4c1.9,4,4.2,6.5,6.4,7.3-2.6-.2-5.4-2.7-7.8-7.6a30.6,30.6,0,0,0,3.5,6.8,19.2,19.2,0,0,0,2.3,3.1h-1.4a6.1,6.1,0,0,1-1.7-.7q.8,1.5,1.5,2.7a16.7,16.7,0,0,1-4.8-5.7c1.8,4.1,3.9,7.1,6,8.8a7,7,0,0,1-2.6-1.3,20.3,20.3,0,0,1-4.3-5.8A45.8,45.8,0,0,0,720,757l-.3.7a27.1,27.1,0,0,0,4.2,5.6l.3,1.2a7.1,7.1,0,0,1-2.8-1.3,24.4,24.4,0,0,1-5-6.8h0a.3.3,0,0,0-.1-.2v.2a27.1,27.1,0,0,1-4.1,5.3,35.9,35.9,0,0,0,3.9-7.1c-2.6,4.8-5.4,7.8-8.3,9.2l1.8-2.2-.8-.2c2.4-2.1,4.6-5.4,6.7-9.8a24.5,24.5,0,0,1-5.1,6.5,8.1,8.1,0,0,1-3,1.4,17.2,17.2,0,0,0,2.5-2.8,25.7,25.7,0,0,0,2.8-4.4,16.5,16.5,0,0,1-3.1,2.9,31.4,31.4,0,0,0,4.5-7.4,19,19,0,0,1-3.5,4.5,35.7,35.7,0,0,0,2.6-4.8,14.4,14.4,0,0,1-2.4,2.5,7.6,7.6,0,0,1-1.9,1.2,1.9,1.9,0,0,0-.1-.8,25.4,25.4,0,0,0,3.6-5.7,12.3,12.3,0,0,1-1.9,2c.2-.6.4-1.3.7-2a9.7,9.7,0,0,1-4.7,3.7c0-.2-.1-.5-.1-.8l1.2-1.6a23.5,23.5,0,0,0,3.1-4.5,12.8,12.8,0,0,1-2.3,1.9l.9-1.9h-1.6a5,5,0,0,1-3.1.8,18.5,18.5,0,0,0,1.4-1.4,12.8,12.8,0,0,0,1.7-2.2,3.9,3.9,0,0,1-1.8.4,2.8,2.8,0,0,0,.1-.9l1.3-1.8a5.2,5.2,0,0,1-2.9.7l-.3-.8a8.1,8.1,0,0,0,3-2.6,3.3,3.3,0,0,1-1.7.4,10.7,10.7,0,0,0,2.7-3.4l-.4-.4a5.7,5.7,0,0,1-2.2,1.1c.1-.4.3-.8.4-1.2a2.9,2.9,0,0,1-1.6-.1,10.3,10.3,0,0,0,1.4-1.5,2.7,2.7,0,0,1-1.2-.3,8.4,8.4,0,0,0,1.9-2.2,14.9,14.9,0,0,1-2.1.2,4.1,4.1,0,0,1,0-1.1l-1.9-.8a13.9,13.9,0,0,0,1,2.1,3.7,3.7,0,0,1-2.5-1.2,10.6,10.6,0,0,0,2,2.8,1.9,1.9,0,0,0-.1.8,3.9,3.9,0,0,1-2-.8l-.6.2.3,1.4.6,1.6a12.5,12.5,0,0,0,2.3,2.3l-.6.6a3.3,3.3,0,0,1-1.4,0l-.3.7.3,1.1a7.3,7.3,0,0,1-2.8-2.3,13.3,13.3,0,0,0,1,2.4,13,13,0,0,0,3.1,3.4,6.6,6.6,0,0,1-3.5-2l-1.4-1a15.8,15.8,0,0,0,4.2,5.3,9,9,0,0,1-4-3,8.3,8.3,0,0,0,.4,1.5,26.1,26.1,0,0,0,1.7,2.8,7.2,7.2,0,0,1-2.4-1.9c.4,1,.9,1.9,1.3,2.7a5.6,5.6,0,0,1-1.3-.7,14.8,14.8,0,0,0,4.4,4.8c-1.9-.5-3.7-1.9-5.4-4.3a28.9,28.9,0,0,0,1.9,3.5,18.2,18.2,0,0,1-2.7-2.8,19.1,19.1,0,0,0,5.1,6.6v.8l-1.7-.2a16.4,16.4,0,0,1-4.1-4.2l.3,1.4-.3.5a31.4,31.4,0,0,0,2.6,4.5l-2-1.5v.9a25.1,25.1,0,0,0,3.1,4.3,13.1,13.1,0,0,1-3.3-2.7,19.9,19.9,0,0,0,1.6,2.9,17.9,17.9,0,0,1-3.3-3.4l.8,2.1a20.2,20.2,0,0,0,5,6.2l-1,.2a20.4,20.4,0,0,1-6.3-7.1,32.2,32.2,0,0,0,5.6,8.4,2.3,2.3,0,0,0-.1,1.7l-.8-.6c.1.8.3,1.7.4,2.6L669,769c-4,0-44.3-5.5-44.3-5.5L599,750l-20,5-33,23H517l-9-3s-18,17-22,24-27,13-27,13l-28-21-37-22-32-35-13.2-18-4.8,5-8-5-63,37-43,19-90,8s-1,205.6,0,209,1424,29,1424,29ZM707.9,765l1.1-.7a13.3,13.3,0,0,0,1.4,1.9,1.2,1.2,0,0,0,.8-.1l.6-1.9a48.9,48.9,0,0,0,4.6-7.7c.3,1.8.7,3.6,1.1,5.4a22.1,22.1,0,0,0,3.6,4.5l-9.7.5a20.8,20.8,0,0,0,5.2-5.4,18,18,0,0,1-3.9,3.9l-1.1.7h-.4l-.3.8-3.2.2C707.8,766.4,707.8,765.7,707.9,765Zm366.9-70c.5,1,1.1,1.9,1.6,2.8h-.7l-.7-.2h-.2a14.7,14.7,0,0,1-1-1.3A6.4,6.4,0,0,0,1074.8,695Zm-1.6.2a2.8,2.8,0,0,1,.1-.9l.6-.9.8,1.5A4,4,0,0,1,1073.2,695.2Zm3.6,4.7a.1.1,0,0,0-.1-.1l.6-.9a11.4,11.4,0,0,0,2.2,2.2A8,8,0,0,1,1076.8,699.9Zm-.6-.6-.3-.3.6-1.2.6.8Zm-3-2.3.3-.4.6,1.4a5.7,5.7,0,0,1-2.2.4Zm1.6,5.2.6-.6,1,1.5a6.6,6.6,0,0,1-1.7,1.2l-.7-.9Zm1.7,3.9,1.1-1.5a6.3,6.3,0,0,0,1.1,1.2l-.6.5-.6.4Zm2.6.4c0,.2.1.4.1.6s-.1.1-.1.2h-.4A2.5,2.5,0,0,1,1079.1,706.5Zm-4.7-16.7a3.9,3.9,0,0,1-1.8.4,8.3,8.3,0,0,0,2.1-2.4,31.2,31.2,0,0,0,2.8,5.2,19.5,19.5,0,0,0,2.3,3,3.3,3.3,0,0,1-1.4,0,5.2,5.2,0,0,1-1.6-.6c.4.9.9,1.8,1.4,2.7l-.3-.3h0a18,18,0,0,1-3.9-4.5l.5-.9a2,2,0,0,1-.8.4.8.8,0,0,1-.2-.5.8.8,0,0,0,.2.5,5.1,5.1,0,0,1-2,.4l-.3-.8A10,10,0,0,0,1074.4,689.8Zm-12.9,25.4h-.2c.1,0,.1-.1.1-.2S1061.5,715.1,1061.5,715.2Zm-1.7-3.1,1.5,2.8-.2.4-1.3.5.6-1.3-.9,1-.8-1.3Zm-1.2,2.3c0,.6.1,1.2.1,1.9l-2,.7A19.5,19.5,0,0,0,1058.6,714.4Z"/>
  </g>
</svg>
