<svg id="Parallax_background" xmlns="http://www.w3.org/2000/svg" viewBox="0 0 1689 1098">
  <g id="Layer1">
    <path d="M1618,162l-16,12.2V220l-10.7,7v10.3l3.5,21.7,7.2,15.7-15.8,19.1-2.3,6.6-8.9-.5-11,2.9-5.6,26v26.9l-7.2,18.8,7.2,17.6v15.2l-7.2,10.6,7.2,17.6,5.6,23.7-5.6,25.6-23.9,4.8,20.6-52.3c-3.3,5.9-9.3,10.9-12.6,15.3a65.5,65.5,0,0,1-8.6,8.8,49.4,49.4,0,0,1-13.6,10.7,135.4,135.4,0,0,0,10-17.1,41.4,41.4,0,0,1-14.7,9.9c11-9.9,21.4-27.2,30.8-51.5-6.6,13.6-13.6,23.8-20.7,30.5a179.5,179.5,0,0,0,12.4-25.2,65.9,65.9,0,0,1-11,12.1c-5.8,5.8-11.8,9.4-17.7,10.5,11.6-7.6,22.6-24.2,32.5-48.9,1.8-6.2,3.5-12.7,5.2-19.4a50.9,50.9,0,0,1-4.1,4,24.1,24.1,0,0,1-3.6,2.3c-2.4,3.3-4.3,9.3-6.7,11.6s-10.3,12-11.9,12.5c-2.9,2.5-6.8,3.3-9.7,4.5-.9-.9,18-24.9,17.1-25.9-3.7,1.6-19.6,12.8-23.3,12.4,9.5-5.2,18.5-17.2,26.6-35.3,1.3-4.6,2.6-9.4,3.8-14.3-8.9,18.5-18.5,29.3-28.2,32.3-.6-1.5-1.3-3-1.9-4.6,7.6-4.9,14.9-14.5,21.5-28.5-5.6,8.2-11.4,13.3-17.3,15.4,1.4-2.7,2.7-5.7,4-8.7s1.2-4.9,1.7-7.3c4.9-7.2,9.6-16.6,13.9-28.1-8.5,16.7-17.8,25.3-27.1,25.8,9.9-4.3,19.3-17.7,27.3-39a50.4,50.4,0,0,1-9,11.7c-6.4,8.3-13.1,12.1-19.8,11.4l.3-5.4a42.6,42.6,0,0,0,10.3-11.3,99.5,99.5,0,0,0,9.5-18.8c-6.1,9.2-12.6,13.8-19,13.7l.6-5.6a49,49,0,0,0,8.1-10.8,12.2,12.2,0,0,1-6.8-.6c-.1-1.7-.3-3.5-.4-5.2,4.3-3.7,8.3-9.5,11.9-17.3a22.9,22.9,0,0,1-6.1,5.1l.6,1.9-1-1.7a12.5,12.5,0,0,1-6.4,1.5,27.4,27.4,0,0,0,4.8-4.4,104,104,0,0,1-6.7-16.3c.8,5.9,1.6,11.7,2.5,17.5a91.4,91.4,0,0,1-5.3-12.1q1.8,13.5,4.5,26.1a73.6,73.6,0,0,1-4.8-8.5c-2-5.5-3.9-11.5-5.6-18q1.3,13.8,3.3,27a109.1,109.1,0,0,1-9.5-20.7c3.2,11.4,7,21.3,11.3,29.1.1,1.9.1,3.7.2,5.6s1.6,4.5,2.5,6.7c-4.7,0-9.4-2.5-14-7.4,4.6,8.8,9.5,15,14.7,18.5-5.5.1-11-3.1-16.4-9.5,1.3,4.1,2.8,7.9,4.3,11.5l-.3,5.4c1.1,3.1,2.3,6.2,3.5,9.1-4-1.7-8-4.9-11.9-9.7a20.3,20.3,0,0,1-3.9-1.4,18.9,18.9,0,0,1-3.6-1.6c1.6,5.7,3.2,11.1,4.9,16.2,4.6,10.3,9.6,18.5,14.8,24.4a21.5,21.5,0,0,1-8.3-2.8,40.8,40.8,0,0,1-8.6-7.5c1.7,5.1,3.5,10,5.4,14.6,5.8,10.1,12,17.3,18.5,21.2a20.2,20.2,0,0,1-11.9-2.1l1.2,6.7c-6-3.8-11.9-10.5-17.6-20.1l1.5-3.5a18.2,18.2,0,0,1-2.7,1.5c-1.2-2.2-2.4-4.4-3.6-6.8.9,2.4,1.9,4.8,2.8,7.1a13,13,0,0,1-4.3,1.1,14.5,14.5,0,0,1-2.6,1.1h0a16.9,16.9,0,0,1-13-1.4c-.9-1.8-1.8-3.8-2.7-5.8,8.2,1.2,16.3-4.1,23.4-15.1l-2.4-2.6c-6.1,5.2-12.5,6.1-18.7,3a23,23,0,0,0,7.2-5.3c4.3-3,8.3-7.9,12-14.5a19.6,19.6,0,0,1-3.2-1.7,13.1,13.1,0,0,1-4.7-1.2,13.2,13.2,0,0,1-9.6-2.5,23.2,23.2,0,0,0,9.3-7.7l-.9-4.6a10.9,10.9,0,0,1-6.3-1.1q-.9,1.8-1.8,3.3c-4.6-.1-9.2-3.2-13.6-9.3.7,3.2,1.5,6.4,2.4,9.5,3.2,6.5,6.7,11.5,10.5,14.7-5.1-.4-10.3-4.1-15.3-11.3-.3,1.3-.7,2.5-1.1,3.7a96.5,96.5,0,0,0,8,17,14.8,14.8,0,0,1-3.5,1.3,29.6,29.6,0,0,1-7.5-6.6c1.3,4.5,2.7,8.8,4.2,12.8a11.6,11.6,0,0,1-3.7-.3,133.5,133.5,0,0,0,6.2,14.6,57.9,57.9,0,0,0,10.6,13.6c-6.4-1.1-12.9-6-19-15,4.8,10.4,10.1,18.4,15.7,23.5-.6,1.3-1.3,2.6-2,3.8a36.7,36.7,0,0,0,11.2,9.4A19.1,19.1,0,0,1,1442,394c-6.6-2.6-13.2-8.8-19.4-18.7,4.7,10.9,9.8,19.6,15.3,25.9-4.4-2-8.8-5.5-13.2-10.7a40.7,40.7,0,0,1-5.3-3.8,143.9,143.9,0,0,0,12.6,24.6c.2,2,.5,4,.7,6l-3,1.9a51.8,51.8,0,0,1-11.4-11.5,136.2,136.2,0,0,0,7.1,12.8c-1,1.3-2,2.4-3.1,3.6a117.1,117.1,0,0,1-8.4-13.5l3.4-5.9c-1.4,1.5-2.9,2.9-4.3,4.2-.5-.9-.9-1.7-1.3-2.6.3.9.7,1.8,1.1,2.8a41.6,41.6,0,0,1-6.7,4.8c1.5-3,2.9-6,4.3-9.2a24.3,24.3,0,0,1-3.8-.3,17.2,17.2,0,0,1-3.8-.8,26,26,0,0,1-14.8,4.1,60.1,60.1,0,0,0,6.4-6.8,67.8,67.8,0,0,0,8.5-10.7,24.3,24.3,0,0,1-8.6,2.2c.1-1.5.3-3,.4-4.5a86.3,86.3,0,0,0,6-8.9,23,23,0,0,1-13.8,3.5l-1.5-3.9c5.2-2.3,10.1-6.5,14.7-12.4a20.5,20.5,0,0,1-8.5,1.9c4.7-3.8,9.2-9.4,13.3-16.6a18.8,18.8,0,0,1-2.3-1.6,23.1,23.1,0,0,1-10.3,4.9c.5-1.8,1.1-3.6,1.6-5.4a16.3,16.3,0,0,1-7.6-.6,38,38,0,0,0,6.7-7.5,14.8,14.8,0,0,1-5.8-1.3,40.5,40.5,0,0,0,9.3-10.5c-1.4,0-8.8,1.3-10.2.8.3-1.6-.2-3.3,0-5l-9-4c2,3.8,2.6,7.6,4.9,10.3-4.2-.2-8.4-2.1-12.4-5.9a50.8,50.8,0,0,0,9.7,13.2c-.1,1.3-.3,2.7-.5,4a20.3,20.3,0,0,1-9.7-3.9l-2.5,1.3c.4,2.1.9,4.3,1.4,6.4s1.9,5.2,2.9,7.7a43.2,43.2,0,0,0,11.1,11.1,23.5,23.5,0,0,1-3.3,3,21.5,21.5,0,0,1-6.7.1l-1.2,3.3c.4,1.8.7,3.6,1.1,5.3-4.5-2-9-5.6-13.4-10.8,1.6,4,3.2,7.8,5,11.4,4.7,7.1,9.7,12.6,15,16.1-5.7-.9-11.5-4-17-9.4a32.7,32.7,0,0,1-6.7-4.9c6.1,11.6,13,20.2,20.2,25.5-6.5-2.1-13-6.8-19.2-14.3.5,2.4,1.1,4.7,1.7,7.1a120.4,120.4,0,0,0,8.1,13.5,45.2,45.2,0,0,1-11.5-9,123.2,123.2,0,0,0,6.7,13.1,36.2,36.2,0,0,1-6.5-3.3c6.6,10.6,13.7,18.3,21.2,23-8.9-2.5-17.8-9.4-26.1-20.8a145.6,145.6,0,0,0,9.2,16.8,68.7,68.7,0,0,1-13.2-13.6c7.6,14.5,16,25.3,24.8,32,0,1.4-.1,2.7-.2,4.1a28,28,0,0,1-7.9-1.4c-6.6-4.3-13.1-10.8-19.4-19.7.7-2.5,1.3-5,2-7.6a50.9,50.9,0,0,1-4.1,4,24.1,24.1,0,0,1-3.6,2.3c-2.4,3.3-4.3,9.3-6.7,11.6s-10.3,12-11.9,12.5c-2.9,2.5-6.8,3.3-9.7,4.5-.9-.9,18-24.9,17.1-25.9-3.7,1.6-19.6,12.8-23.3,12.3,9.5-5.2,18.5-17.2,26.6-35.3,1.3-4.6,2.6-9.3,3.8-14.2-8.9,18.5-18.5,29.3-28.2,32.3-.6-1.5-1.3-3-1.9-4.6,7.6-4.9,14.9-14.5,21.5-28.5-5.6,8.2-11.4,13.3-17.3,15.4,1.4-2.8,2.7-5.7,4-8.7s1.2-4.9,1.7-7.3c4.9-7.2,9.6-16.7,13.9-28.2-8.5,16.7-17.8,25.4-27.1,25.9,9.9-4.3,19.3-17.7,27.3-39a52.7,52.7,0,0,1-9,11.7c-6.4,8.3-13.1,12.1-19.8,11.4l.3-5.4a42.6,42.6,0,0,0,10.3-11.3,99.5,99.5,0,0,0,9.5-18.8c-6.1,9.2-12.6,13.8-19,13.7l.6-5.6A49,49,0,0,0,1308,339a12.2,12.2,0,0,1-6.8-.6c-.1-1.7-.3-3.5-.4-5.2,4.3-3.7,8.3-9.5,11.9-17.3a22.9,22.9,0,0,1-6.1,5.1l.6,1.9-1-1.7a12.5,12.5,0,0,1-6.4,1.5,27.4,27.4,0,0,0,4.8-4.4,104,104,0,0,1-6.7-16.3c.8,5.9,1.6,11.7,2.5,17.5a97.6,97.6,0,0,1-5.3-12.1q1.8,13.5,4.5,26.1a83.1,83.1,0,0,1-4.8-8.5c-2-5.5-3.9-11.5-5.6-18q1.3,13.8,3.3,27a109.1,109.1,0,0,1-9.5-20.7c3.2,11.4,7,21.3,11.3,29.1.1,1.9.1,3.7.2,5.6s1.6,4.5,2.5,6.6c-4.7.1-9.4-2.4-14-7.4,4.6,8.8,9.5,15.1,14.7,18.5-5.5.1-11-3-16.4-9.4,1.3,4,2.8,7.9,4.3,11.5l-.3,5.4c1.1,3.1,2.3,6.2,3.5,9-4-1.6-8-4.8-11.9-9.6a20.3,20.3,0,0,1-3.9-1.4,18.9,18.9,0,0,1-3.6-1.6c1.6,5.7,3.2,11.1,4.9,16.2,4.6,10.3,9.6,18.5,14.8,24.3a19.7,19.7,0,0,1-8.3-2.7,40.8,40.8,0,0,1-8.6-7.5c1.7,5.1,3.5,10,5.4,14.5,5.8,10.2,12,17.4,18.5,21.3a21,21,0,0,1-11.9-2.1l1.2,6.7c-7.7-4.9-15.3-14.6-22.4-29,7,18.4,14.8,32,23.1,40.6-5.8-2.9-11.6-8.3-17.2-16.2a103.9,103.9,0,0,1-10.1-15.1c9.1,24.3,19.3,41.2,30.1,49.8-6.4-2.2-12.8-7.3-19-15.4a33.8,33.8,0,0,1-5.7-4.1q3.1,9.2,6.6,17.1c-5.6-6.4-11-15.1-16.3-26.1,5.8,16.6,12,30.3,18.7,41,1.4,3.8,2.8,7.4,4.3,10.9a29.4,29.4,0,0,1-5.1-.5c5.3,8.9,10.8,15.9,16.5,20.8-14.5-6.1-28.7-25.3-41.3-57.7a328.5,328.5,0,0,0,11.5,32.9,51.4,51.4,0,0,1-5.1-4.5c1.9,6.3,3.8,12.3,5.9,18,8,16.6,16.6,28.9,25.5,36.5-6.3-2.2-12.6-6.8-18.8-13.8a173.6,173.6,0,0,0,8.6,16.2c-8.3-6.7-16.4-17.5-24.2-32.3a252.1,252.1,0,0,0,11.8,25.8,21.5,21.5,0,0,0,2.2,8.7l-33.3,6.7L1209,561.4l-31,.6-30-3-8-5-10,5-15-5-15-2-6,8,6,7-1,9,7,3-3,14-9,16.6,14,10.4,16,10.7h30.2l-24.9,11.2h-16.2l-11.7-5.9-2.4,15,1,11,1,5-7,13v12.9l9,9.1,21,8.5,16,.5,39,9h31.6l23.4,6s-24,6-28,6h-36.5l-24.8-.5-12.8.5,3.1,28,18,25.7,15,28.3,11,14-4,27-21,19-30,10.3-9,16.7-15,20h-52.6L1009,910l-26.2,11L950,930l-19-12-35,6-31,12-16,19-38-14-20-14-29,2-20-7V901.9l5-29.9,19-5,6-21,1-25-7-17-24,2.8L722,809l-21-10-34,4-26-7-25.6-10.3L639,776l8-20-1-23-9.5-8.8h-27L572,709l-11.1,1.1,13.3-33.7c-3.2,5.8-9.2,10.8-12.5,15.2a72.3,72.3,0,0,1-8.6,8.8,59,59,0,0,1-8.2,7.3l-2.4-1.2c2.4-3.8,4.7-8,7-12.5a42.5,42.5,0,0,1-13.1,9.2l-.4-.2h-.3c10.6-10,20.7-27.1,29.9-50.6-6.7,13.6-13.7,23.8-20.8,30.5a179.3,179.3,0,0,0,12.5-25.2,69.9,69.9,0,0,1-11.1,12.1c-5.8,5.9-11.7,9.4-17.6,10.6,11.5-7.7,22.6-24.3,32.4-49,1.8-6.2,3.6-12.7,5.2-19.4-1.4,1.5-2.7,2.9-4,4.1s-2.5,1.6-3.7,2.2c-2.3,3.3-4.3,9.3-6.7,11.6s-10.3,12-11.9,12.5c-2.9,2.6-6.8,3.3-9.7,4.5-.9-.9,18.1-24.9,17.2-25.9-3.7,1.6-19.7,12.9-23.3,12.4,9.4-5.2,18.4-17.2,26.5-35.3,1.3-4.6,2.6-9.4,3.8-14.3-8.8,18.5-18.4,29.3-28.1,32.3-.7-1.5-1.3-3-1.9-4.6,7.6-4.8,14.8-14.5,21.5-28.5-5.7,8.2-11.5,13.3-17.4,15.4,1.4-2.7,2.7-5.6,4-8.7l1.8-7.3c4.9-7.2,9.5-16.6,13.8-28.1-8.5,16.7-17.7,25.3-27,25.8,9.8-4.3,19.2-17.7,27.3-38.9a58.5,58.5,0,0,1-9,11.6c-6.5,8.3-13.2,12.1-19.8,11.4,0-1.8.1-3.6.2-5.4a39.5,39.5,0,0,0,10.3-11.3,105.7,105.7,0,0,0,9.6-18.8c-6.2,9.2-12.6,13.8-19.1,13.7l.6-5.6a50.6,50.6,0,0,0,8.1-10.7,12.3,12.3,0,0,1-6.8-.7l-.3-5.2c4.2-3.6,8.2-9.5,11.9-17.3a23.2,23.2,0,0,1-6.2,5.1,10.7,10.7,0,0,0,.7,1.9l-1.1-1.6a13.1,13.1,0,0,1-6.3,1.4,23.9,23.9,0,0,0,4.7-4.4,104.2,104.2,0,0,1-6.6-16.3c.7,5.9,1.5,11.8,2.4,17.5a91.4,91.4,0,0,1-5.3-12.1q2,13.5,4.5,26.1a73.7,73.7,0,0,1-4.7-8.5,179.8,179.8,0,0,1-5.7-17.9c.9,9.1,2,18.1,3.3,26.9a103.4,103.4,0,0,1-9.4-20.7c3.2,11.4,7,21.4,11.2,29.1.1,1.9.2,3.7.2,5.6s1.7,4.5,2.6,6.7c-4.7,0-9.5-2.5-14.1-7.4,4.6,8.8,9.6,15,14.8,18.5-5.5.1-11.1-3.1-16.5-9.5,1.4,4.1,2.8,7.9,4.3,11.5-.1,1.8-.2,3.6-.2,5.4s2.2,6.2,3.4,9.1c-4-1.7-7.9-4.9-11.8-9.7a24,24,0,0,1-4-1.4,18.9,18.9,0,0,1-3.6-1.6c1.6,5.7,3.2,11.1,4.9,16.2,4.7,10.3,9.6,18.6,14.9,24.4a20.5,20.5,0,0,1-8.3-2.8,36.4,36.4,0,0,1-8.6-7.5c1.7,5.2,3.5,10,5.3,14.6,5.8,10.1,12.1,17.3,18.5,21.2a20.3,20.3,0,0,1-11.9-2.1c.4,2.2.8,4.5,1.3,6.7-7.7-4.9-15.3-14.5-22.5-28.9,7,18.3,14.8,32,23.1,40.5-5.8-2.9-11.5-8.2-17.1-16.2-1.7-2-3.3-4.2-5-6.6l2.1-4.4-2.3,4c-1.7-2.5-3.3-5.2-4.9-8.1,1.2,3.4,2.5,6.6,3.8,9.8a108.9,108.9,0,0,1-8.1,11.7c0-.1,0-.1-.1-.2a.3.3,0,0,1,.1.2A84,84,0,0,1,462.8,643a44.7,44.7,0,0,1-14.2,6.7,89.2,89.2,0,0,0,12-13.5A143.8,143.8,0,0,0,474.2,615,70.6,70.6,0,0,1,459,628.8c7.9-8.9,15.3-20.8,22-35.4a99.9,99.9,0,0,1-17.1,21.3,163.8,163.8,0,0,0,12.5-23A80.5,80.5,0,0,1,465.1,604a43,43,0,0,1-9.2,5.5c-.2-1.3-.3-2.7-.5-4,6.2-7.1,12-16.2,17.4-27.2a65.5,65.5,0,0,1-9.5,9.5c1.1-3,2.3-6.2,3.4-9.4-7.3,9.2-14.9,15.1-22.5,17.8-.2-1.3-.4-2.7-.5-4,1.9-2.4,3.7-5.1,5.5-7.9a96.4,96.4,0,0,0,15.2-21.6,50.1,50.1,0,0,1-11.1,9.2c1.5-2.9,2.9-6,4.2-9.2l-3.8-.3a16.3,16.3,0,0,1-3.7-.8,26.5,26.5,0,0,1-14.9,4.1,60.6,60.6,0,0,0,6.5-6.8,74.1,74.1,0,0,0,8.5-10.7,25.4,25.4,0,0,1-8.7,2.2c.2-1.5.3-3,.4-4.5a86.3,86.3,0,0,0,6-8.9,22.7,22.7,0,0,1-13.7,3.5l-1.5-3.9c5.1-2.3,10-6.5,14.6-12.4a20.2,20.2,0,0,1-8.5,1.9c4.8-3.8,9.3-9.4,13.3-16.6l-2.3-1.6a23.1,23.1,0,0,1-10.3,4.9c.6-1.8,1.1-3.6,1.6-5.4a16.4,16.4,0,0,1-7.6-.6,41.7,41.7,0,0,0,6.8-7.5,15.3,15.3,0,0,1-5.9-1.3,39.1,39.1,0,0,0,9.4-10.5c-1.5,0-8.9,1.3-10.2.8.2-1.6-.3-3.3,0-5l-9-4c1.9,3.8,2.5,7.6,4.8,10.3-4.1-.2-8.3-2.1-12.4-5.9a50.9,50.9,0,0,0,9.8,13.2l-.6,4a19.6,19.6,0,0,1-9.6-3.9,21,21,0,0,1-2.6,1.3c.5,2.1.9,4.3,1.4,6.4s1.9,5.2,3,7.7a43.2,43.2,0,0,0,11.1,11.1q-1.6,1.7-3.3,3a18.9,18.9,0,0,1-6.7.1c-.4,1.1-.8,2.2-1.3,3.3l1.2,5.3c-4.5-2-9-5.6-13.4-10.8,1.5,4,3.2,7.8,4.9,11.4,4.7,7.1,9.7,12.6,15,16.1-5.7-.9-11.4-4-17-9.4a35.6,35.6,0,0,1-6.7-4.9c6.2,11.6,13,20.2,20.2,25.5-5.1-1.6-10.2-4.9-15.2-10l.3-.7-.4.7a55.7,55.7,0,0,1-3.9-4.3l1.8,7.1.3.7-2.7,5-1.1-1.2c.3.6.5,1.2.8,1.7a106.5,106.5,0,0,1-9.2,13.8l-.3-.3c.1.2.2.3.2.4a60.9,60.9,0,0,1-6.3,6.9,184.9,184.9,0,0,0,12.5-25.2A69.9,69.9,0,0,1,388,569.8c-5.8,5.8-11.7,9.4-17.6,10.5,11.5-7.7,22.6-24.2,32.4-48.9,1.8-6.2,3.6-12.7,5.2-19.4-1.4,1.5-2.7,2.8-4,4a31.3,31.3,0,0,1-3.7,2.3c-2.3,3.3-4.3,9.3-6.7,11.6s-10.3,12-11.9,12.5c-2.9,2.5-6.8,3.3-9.7,4.5-.9-.9,18.1-24.9,17.2-25.9-3.7,1.6-19.7,12.8-23.3,12.4,9.4-5.2,18.4-17.3,26.5-35.4,1.3-4.6,2.6-9.3,3.8-14.2-8.8,18.5-18.4,29.3-28.1,32.3-.7-1.5-1.3-3-1.9-4.6,7.6-4.9,14.8-14.5,21.5-28.5-5.7,8.2-11.5,13.3-17.4,15.4,1.4-2.8,2.7-5.7,4-8.7l1.8-7.3c4.9-7.2,9.5-16.7,13.8-28.1-8.5,16.6-17.7,25.3-27,25.8,9.8-4.3,19.2-17.7,27.3-39a56.6,56.6,0,0,1-9,11.7c-6.5,8.3-13.2,12.1-19.8,11.4,0-1.8.1-3.6.2-5.4a39.5,39.5,0,0,0,10.3-11.3,105.7,105.7,0,0,0,9.6-18.8c-6.2,9.2-12.6,13.8-19.1,13.7l.6-5.6a49,49,0,0,0,8.1-10.8,12.2,12.2,0,0,1-6.8-.6l-.3-5.2c4.2-3.7,8.2-9.5,11.9-17.3a23.2,23.2,0,0,1-6.2,5.1,10.7,10.7,0,0,0,.7,1.9c-.4-.5-.7-1.1-1.1-1.7a12.2,12.2,0,0,1-6.3,1.5,23.9,23.9,0,0,0,4.7-4.4,104.2,104.2,0,0,1-6.6-16.3c.7,5.9,1.5,11.7,2.4,17.5a91.4,91.4,0,0,1-5.3-12.1q1.9,13.5,4.5,26.1A83.2,83.2,0,0,1,358,412a173.9,173.9,0,0,1-5.7-18q1.3,13.8,3.3,27a103.4,103.4,0,0,1-9.4-20.7,145.2,145.2,0,0,0,11.2,29.1c.1,1.9.2,3.7.2,5.6s1.7,4.5,2.6,6.7c-4.7,0-9.5-2.5-14.1-7.4,4.6,8.7,9.6,15,14.8,18.4-5.5.2-11.1-3-16.5-9.4,1.4,4.1,2.8,7.9,4.3,11.5-.1,1.8-.2,3.6-.2,5.4s2.2,6.2,3.4,9.1c-4-1.7-7.9-4.9-11.8-9.7a24,24,0,0,1-4-1.4,18.9,18.9,0,0,1-3.6-1.6c1.6,5.7,3.2,11.1,4.9,16.2,4.7,10.3,9.6,18.5,14.9,24.3a18.9,18.9,0,0,1-8.3-2.7,36.4,36.4,0,0,1-8.6-7.5c1.7,5.1,3.5,10,5.3,14.6,5.8,10.1,12.1,17.3,18.5,21.2a20.3,20.3,0,0,1-9.7-1.2l.5-1.7c-.3.6-.5,1.1-.8,1.6l-1.9-.8.6,3.3a21.2,21.2,0,0,1-1.1,2.1c-5.7-4.1-11.4-10.9-16.8-20.3,2.2-3.7,4.4-7.8,6.5-12.2a83.6,83.6,0,0,1-7.4,10.5q-1.5-2.7-3-5.7c.8,2.2,1.6,4.2,2.5,6.3a67.5,67.5,0,0,1-5.2,5.4c-.5-.8-1-1.6-1.4-2.4l1,2.7a36.8,36.8,0,0,1-10.2,6.6,88.3,88.3,0,0,0,13.1-17.8,24.9,24.9,0,0,1-6.3,1.8c-6.2,4.4-12.4,5.9-18.6,4.8,7-2.4,13.8-8.2,20.2-17.2a23.2,23.2,0,0,1-8.5,2.4q1.9-3.9,3.6-8.1a20.4,20.4,0,0,1-12.7,2c-1.3-1.4-2.7-2.9-4-4.6a34.9,34.9,0,0,0,11.3-8.9,79.1,79.1,0,0,0,10.2-15.4,19,19,0,0,1-7.2,2.6c2-3.5,3.9-7.5,5.8-11.7a18.9,18.9,0,0,1-7.8,2.8,16.8,16.8,0,0,1-15.7-.3c-.9-1.8-1.8-3.8-2.6-5.8,8.2,1.2,16.2-4.1,23.3-15.1a28.5,28.5,0,0,1-2.3-2.6c-6.2,5.2-12.6,6.1-18.7,3a23,23,0,0,0,7.2-5.3c4.2-3,8.2-7.9,11.9-14.5a24.8,24.8,0,0,1-3.2-1.7,13.6,13.6,0,0,1-4.7-1.2,13.4,13.4,0,0,1-9.6-2.5c3.3-1.3,6.4-3.9,9.3-7.7-.3-1.5-.6-3.1-.8-4.6a11.1,11.1,0,0,1-6.4-1.1l-1.8,3.3c-4.5-.1-9.1-3.2-13.6-9.3l2.4,9.5c3.2,6.5,6.8,11.5,10.5,14.7-5.1-.4-10.3-4.1-15.2-11.3l-1.2,3.7a104,104,0,0,0,8.1,17,18.9,18.9,0,0,1-3.5,1.3,29.9,29.9,0,0,1-7.6-6.6c1.3,4.5,2.7,8.8,4.2,12.8a11.8,11.8,0,0,1-3.7-.3,155.9,155.9,0,0,0,6.3,14.6,55.4,55.4,0,0,0,10.6,13.6c-6.5-1.1-12.9-6-19.1-15,4.9,10.4,10.2,18.4,15.8,23.5-.7,1.3-1.3,2.6-2,3.8a36.4,36.4,0,0,0,11.1,9.4,19,19,0,0,1-10.8,1.1c-6.6-2.6-13.1-8.8-19.4-18.7,4.7,10.9,9.9,19.6,15.3,26a39.3,39.3,0,0,1-13.1-10.8,35.6,35.6,0,0,1-5.4-3.8c1.4,3.3,2.8,6.4,4.2,9.4a85.9,85.9,0,0,1-10,10.6l-1.3.8-.6-1.2a6.9,6.9,0,0,1,.5,1.3,46.1,46.1,0,0,1-7.9,4.6c-.1-1.3-.3-2.7-.4-4,6.1-7.1,11.9-16.2,17.3-27.2a65.5,65.5,0,0,1-9.5,9.5c1.2-3,2.3-6.2,3.4-9.4-7.3,9.2-14.8,15.1-22.5,17.8-.2-1.3-.3-2.7-.5-4,1.9-2.5,3.8-5.1,5.6-8,5.3-5.5,10.4-12.8,15.2-21.5a51,51,0,0,1-11.2,9.2c1.5-3,2.9-6,4.3-9.2a23.4,23.4,0,0,1-3.8-.3,17.2,17.2,0,0,1-3.8-.8,26.9,26.9,0,0,1-14.9,4.1,52.8,52.8,0,0,0,6.5-6.8,67.8,67.8,0,0,0,8.5-10.7,24.8,24.8,0,0,1-8.6,2.2c.1-1.5.3-3.1.4-4.6a75.2,75.2,0,0,0,6-8.8,23.7,23.7,0,0,1-13.8,3.5l-1.5-3.9c5.2-2.3,10.1-6.5,14.7-12.4a18.9,18.9,0,0,1-8.5,1.8c4.7-3.8,9.2-9.4,13.3-16.5a18.8,18.8,0,0,1-2.3-1.6,23.5,23.5,0,0,1-10.4,4.9c.6-1.8,1.2-3.6,1.7-5.4a17.7,17.7,0,0,1-7.6-.6,41.4,41.4,0,0,0,6.7-7.5,14.8,14.8,0,0,1-5.8-1.3,40.5,40.5,0,0,0,9.3-10.5c-1.4,0-8.8,1.3-10.2.8.2-1.6-.2-3.4,0-5l-9-4c2,3.7,2.5,7.5,4.8,10.3-4.1-.2-8.3-2.1-12.3-5.9a50.2,50.2,0,0,0,9.7,13.2c-.2,1.3-.3,2.7-.5,4a19.2,19.2,0,0,1-9.7-4l-2.5,1.4c.4,2.1.9,4.2,1.4,6.3s1.9,5.3,2.9,7.7a43.7,43.7,0,0,0,11.1,11.2,23.5,23.5,0,0,1-3.3,3,18.9,18.9,0,0,1-6.7,0l-1.2,3.4c.4,1.8.7,3.5,1.1,5.3-4.5-2-9-5.6-13.4-10.9,1.6,4.1,3.2,7.9,5,11.5,4.6,7.1,9.7,12.5,15,16.1-5.8-.9-11.5-4-17-9.4a41.3,41.3,0,0,1-6.8-4.9c6.2,11.6,13,20.2,20.3,25.4-6.5-2-13-6.7-19.2-14.2.5,2.3,1.1,4.7,1.7,7.1a130.2,130.2,0,0,0,8.1,13.5,48,48,0,0,1-11.6-9,145.2,145.2,0,0,0,6.8,13.1,33.2,33.2,0,0,1-6.5-3.3c6.6,10.5,13.7,18.3,21.2,22.9-8.9-2.4-17.8-9.3-26.1-20.7a136.1,136.1,0,0,0,9.2,16.7,65.3,65.3,0,0,1-13.2-13.5c7.6,14.5,16,25.3,24.8,31.9,0,1.4-.1,2.8-.2,4.2A31.3,31.3,0,0,1,206,495c-6.8-4.4-13.4-11.1-19.8-20.2l1.2,6.8c-.4.9-.9,1.7-1.4,2.6a164.3,164.3,0,0,0,12.8,21.6,55.4,55.4,0,0,1-9.6-7.3l-.3,4.4a128.9,128.9,0,0,0,14.9,21,68,68,0,0,1-15.9-13.1c2.5,5,5,9.7,7.6,14A92.2,92.2,0,0,1,180,508.3c1.1,3.5,2.3,6.9,3.5,10.3,7.6,12.9,15.8,23,24.3,30l-3.7.7-4.8-2.4c-9.2-7-18.2-17.5-26.6-31.7a191.1,191.1,0,0,0,15,25.8L172,533.1c-1.6-2.6-3.2-5.2-4.8-8.1.2,2,.3,3.9.5,5.9l-7.6-3.8-15.4-7.8V494.7l11.7-18,4-20.7-7.2-17.5-21.1-6.1,29.3-4.4,8.1-16,2.5-17.9V371.8l-11.6-5.1L131,363.6l-22-13.9L102.8,314l-8.2-46.6V220.5L98,191l-8.1-33.3L73,144,0,128v970H1688V220l1-70C1681,151,1618,162,1618,162ZM330.2,612.9a.8.8,0,0,1-.4-.4c0,.1.1.2.1.3l-8.9-4.5c-.1-.1-.1-.2-.2-.4,1.4-5,2.9-10.5,3.9-14.6a127.7,127.7,0,0,0,15.9,24.9ZM268.8,582c-6-5.9-11.9-13.7-17.7-23.6l1.2-.8c2.1,3.3,4.3,6.3,6.5,9.2,1.3.3,2.7-.2,4.1-.5l1.8-6,2.7,4.4A13.6,13.6,0,0,1,265,566a7.6,7.6,0,0,0-2.1.3l-1.8,5.7a67.2,67.2,0,0,0,7.6-5.4,87,87,0,0,0,14.9,18l1.2,5.5Zm-21.3-27.8a.8.8,0,0,1,.1.4l-.7.4Zm.8-.8a108.8,108.8,0,0,0,7.1-8.8,29.7,29.7,0,0,1-3.9-1.3c1.9-1.6,3.7-3.4,5.5-5.2,1.2,2.7,2.3,5.3,3.5,7.8a60.7,60.7,0,0,1-11.8,8.1A2.1,2.1,0,0,0,248.3,553.4Zm19.8-50.8-2.1-3.1,3-4.9a106.9,106.9,0,0,0,8,12.9c-.8,1.3-1.6,2.4-2.5,3.6-2-2.3-3.9-4.8-5.9-7.6l2.1-3.9Zm16.1,13.3-1.7,2.7a47.8,47.8,0,0,1-6.8-6.2l2.1-3.8A66.8,66.8,0,0,0,284.2,515.9Zm1.8,44.6a33,33,0,0,1-7.9-2.9l2.1-2.4A55.8,55.8,0,0,0,286,560.5Zm-16-18.1a1,1,0,0,0,.4.5l-2.3,2.3C268.8,544.3,269.4,543.3,270,542.4Zm4.3-6.8,1,1.8-2.2,2.6-.9-.9Zm-4.5.9a77.5,77.5,0,0,1-5.5-6.8,130.3,130.3,0,0,0,9.1-13.4c1.1,1.7,2.1,3.3,3.2,4.8a39.6,39.6,0,0,0,2.2,3.4Q274.3,531.1,269.8,536.5Zm7.2,4c1,1.8,2,3.5,3.1,5.2a44.6,44.6,0,0,1-4.3-3.3Zm-3.9,6.3a74.6,74.6,0,0,0,6.5,7.8L277,557l-3.8-2.5c-1.1-.9-2.2-2-3.3-3.1Zm7.8-10.8-1.2-.3,3-5.6a58,58,0,0,0,5,5.8A22.2,22.2,0,0,1,280.9,536Zm-3.6-1.1-2-.9c1.5-2.6,3-5.2,4.4-8l2.1,2.8C280.3,531,278.8,533,277.3,534.9Zm5.9-15.8c.5-.9.9-1.9,1.4-2.9a31.7,31.7,0,0,0,3.4,3,23.9,23.9,0,0,0-1.3,2.1A22.5,22.5,0,0,1,283.2,519.1Zm-11-4.9a85.4,85.4,0,0,1-10.6,11.5c-1.2-1.8-2.4-3.8-3.6-5.9a126.5,126.5,0,0,0,9.4-14.3C269,508.6,270.5,511.5,272.2,514.2Zm-15,6.7.6-.9,3,6.4-1.4,1.3-4.7,2.8-2.2-3.8C254.1,524.9,255.6,522.9,257.2,520.9Zm6,10.1q2.3,4.2,4.5,7.8c-1.5,1.7-3,3.2-4.6,4.7-1.6-2.1-3.1-4.4-4.7-6.8Q260.8,534,263.2,531Zm54.8-1.1c1.1,3.3,2.3,6.4,3.5,9.5a32.2,32.2,0,0,1-10.6,4.5c0-.1-.1-.2-.1-.3.8-2.1,1.7-4.1,2.5-6.2S316.5,532.5,318,529.9Zm27.9,21.6-1.3,2a50.3,50.3,0,0,1-5.8-4.9c.7-1.1,1.3-2.4,1.9-3.6A59.2,59.2,0,0,0,345.9,551.5Zm-1.2-15.4.6-1.7q1.9,2.4,3.9,4.5A36.8,36.8,0,0,1,344.7,536.1Zm-8.9,44.2h-.7l2.7-6.9c.6,1.8,1.3,3.5,2,5.2A32.5,32.5,0,0,1,335.8,580.3Zm-1.5-13.8a49.2,49.2,0,0,1-5.4,5,24.2,24.2,0,0,1-4.6.6,4.1,4.1,0,0,1-.5-.9,104.2,104.2,0,0,0,7.5-10ZM333,585.2l-.5-.8,1.2-.8A11.1,11.1,0,0,1,333,585.2Zm-8.4-30.5a36.8,36.8,0,0,1-7.6,3.5c-.5-1.2-1-2.3-1.6-3.5a83.4,83.4,0,0,0,6.7-8.3l1.3-2.2c1.2,2.9,2.4,5.7,3.7,8.3Zm-13.8-11.1a.4.4,0,0,0,.1.3h-.3Zm3.8,12c.3,1,.6,2,1,3a30.5,30.5,0,0,1-5,.8C311.9,558.2,313.3,557,314.6,555.6Zm76.3,41.3c-.5.9-.9,1.8-1.4,2.6l2.1,4.1a44.7,44.7,0,0,1-10.3,7.5,143.4,143.4,0,0,0,9.3-15.8Zm26.7,10.7c-.1,1.4-.1,2.8-.2,4.1a28.7,28.7,0,0,1-8-1.4,44,44,0,0,1-5.2-3.9l3.3-8.4A64.3,64.3,0,0,0,417.6,607.6Zm-23.4,24.1q2.4,4.3,4.8,8.4c-2-1.6-4-3.4-6-5.3Zm.8-1.9,1.7-4.5a114.9,114.9,0,0,0,10.6,13.9A54.4,54.4,0,0,1,395,629.8Zm7.3-8.6a21.1,21.1,0,0,1-3.1-2.1l.6-1.5ZM389.8,643l1.1-2.8c1.1,1.8,2.3,3.5,3.5,5.2Zm100.3,19.3a62.5,62.5,0,0,1-8.2,8.7c-1.7-2.9-3.4-6.1-5-9.4,2.4-3.8,4.7-7.7,7-12C486,654.2,488,658.4,490.1,662.3Zm-4.5-15.9,1.8-3.3c1.5,4.1,3.1,8.1,4.7,11.9A80.2,80.2,0,0,1,485.6,646.4Zm-10.8,10.8c-.1-.3-.3-.5-.4-.8,2.5-3.8,4.9-7.9,7.2-12.2.5,1.1.9,2.1,1.4,3.1A107.9,107.9,0,0,1,474.8,657.2Zm-1.1,1.2-2.1,2.1c.6-.9,1.3-1.8,1.9-2.8S473.6,658.2,473.7,658.4Zm1.8,5.2c1.2,3.3,2.5,6.6,3.7,9.8l-1.2,1-2.7-2.5,1.2,3.8-3,2.6c-2,1.1-3.1,2.3-5,3a7.6,7.6,0,0,0-2.1.3h0c.9-3,1.9-6.1,2.8-9.2S473.4,666.7,475.5,663.6Zm4.9,12.7-1.2-.9.6-.6Zm-3.3,1.2c1.2,4,2.5,7.9,3.9,11.6l-11-5.5A77,77,0,0,0,477.1,677.5Zm26.5,19.9c-7.2-5.1-14.4-13.6-21.2-25.4q3.9-4.3,7.8-9.6c1.4,2.6,2.8,5.2,4.3,7.5,1.4,3.8,2.9,7.4,4.4,10.9a22.9,22.9,0,0,1-5.2-.5,97.1,97.1,0,0,0,13.2,17.6Zm6.6-40c-6.4-2.2-12.7-7.3-19-15.4l-2.5-1.6c1-2,2-4,2.9-6.1-1.2,1.9-2.3,3.8-3.5,5.6l-2.5-1.9,1.3,3.7-2.2,3.3-1.9-3c2.2-4.2,4.4-8.6,6.5-13.2C495.9,642,502.9,651.6,510.2,657.4ZM484.3,618c1.6,3.8,3.2,7.3,4.9,10.5-2.4,4.3-4.9,8.2-7.3,11.9-1.7-2.8-3.3-5.8-4.9-9C479.5,627.2,482,622.8,484.3,618ZM455,658.6c7.6-6.5,14.9-15.5,21.8-26.9,1.3,3.6,2.6,7,3.9,10.3a100.1,100.1,0,0,1-8.1,10.5l-3.7-9c1,3.3,2.1,6.5,3.1,9.7-7.1,7.9-14.3,13.7-21.7,17.1a99.2,99.2,0,0,0,8.5-10.3Zm4.3,19.5-6.4-3.2,2.8-2C456.9,674.7,458.1,676.5,459.3,678.1Zm-36.5-84.9a36.7,36.7,0,0,1-11.2-5.6l1.1-2.9A54.9,54.9,0,0,0,422.8,593.2ZM413,569.4a43.6,43.6,0,0,1-9.7-7.1c.7-1.7,1.5-3.4,2.2-5.2A117.8,117.8,0,0,0,413,569.4Zm-4.9,4.1a32.5,32.5,0,0,1-6.4-3.3,96.5,96.5,0,0,0,9.4,12.8,27.3,27.3,0,0,1-2.3,2.5,68.6,68.6,0,0,1-11-11.6c1.7-3.3,3.4-6.8,5-10.5C404.5,567,406.3,570.4,408.1,573.5Zm-10.5.8a122.8,122.8,0,0,0,8.2,14.5h-.1a61.2,61.2,0,0,1-10.4-10.1C396.1,577.3,396.9,575.8,397.6,574.3Zm-2.8,5.2c2.7,4.7,5.4,8.9,8.1,12.7a58.8,58.8,0,0,1-6.4,6.7,92.4,92.4,0,0,1-6.8-8.8c.3,1.5.5,3.1.8,4.6a41.4,41.4,0,0,1-13.9,9.2C382.9,598.2,389,590,394.8,579.5Zm-60.5,7.2a29.7,29.7,0,0,0,3.5-2.7,79.3,79.3,0,0,0,14.3,17.1C346.1,598.6,340.1,593.8,334.3,586.7Zm11.5-32.4.9-2a50.5,50.5,0,0,0,5.3,5.1A27.6,27.6,0,0,1,345.8,554.3Zm2.4-28.8a11.6,11.6,0,0,1,.4,1.8l-.8-.5A9.3,9.3,0,0,0,348.2,525.5Zm-18.7-18.9c4.4,10.2,9,18.7,13.9,25.3l-1.3,2.2a60.7,60.7,0,0,1-10-11.4,90.4,90.4,0,0,1-6.9-9.7C326.6,511,328.1,508.9,329.5,506.6Zm-5,7.4a163.3,163.3,0,0,0,13.2,26.5c-.9,1.3-1.9,2.6-2.9,3.8L333,542a37.8,37.8,0,0,1-5.6-4.1c1.2,3.7,2.5,7.2,3.8,10.5l-1.4,1.5c-1.7-2.4-3.4-5-5.1-7.9,1.6-2.9,3.2-5.9,4.7-9a55.2,55.2,0,0,1-6.7,5.6c-1.6-2.7-3.1-5.7-4.6-8.8l1.1-2a24.8,24.8,0,0,1-12.9,2.4C312.5,527.3,318.7,521.8,324.5,514Zm-26.8,10.8a27.1,27.1,0,0,1-10.7-3.3c.3-.7.7-1.5,1-2.3A33.3,33.3,0,0,0,297.7,524.8Zm-16.9-25.5-3,1.9a47.4,47.4,0,0,1-8.2-7.6q2.5-4.5,5.1-9.6a99.4,99.4,0,0,0,5.5,9.3Zm-8.9-20.7c.8,1.6,1.6,3.1,2.3,4.6q-3.1,4.5-6.3,8.4l-1.5-1.9,1.1,2.2c-1.2,1.5-2.4,2.8-3.6,4.1l-.6-1.2A152.8,152.8,0,0,0,271.9,478.6Zm-8.7,18a37,37,0,0,1-2.8,2.8l2.4-3.8A6.9,6.9,0,0,1,263.2,496.6Zm1.9,4.2c.6,1.1,1.1,2.2,1.6,3.3a62.8,62.8,0,0,1-11.2,9.4A110.8,110.8,0,0,0,265.1,500.8Zm-12.6,25.9,1.6,4.2a49.7,49.7,0,0,1-8.9,3.5A77.4,77.4,0,0,0,252.5,526.7ZM247,561.1l1.7-1.1c.9,4.5,1.9,8.9,2.8,13.3l-5.5-2.9C246.3,567.3,246.7,564.2,247,561.1ZM1421.6,428c1.7,3.1,3.5,6.1,5.3,8.8a78.5,78.5,0,0,1-8.9,9.2l-2,1.4a52.3,52.3,0,0,1-3.5-5.2A124.4,124.4,0,0,0,1421.6,428Zm-5.5,1.8c.9-2.3,1.8-4.8,2.7-7.3a35.9,35.9,0,0,0,1.7,3.4A51.3,51.3,0,0,1,1416.1,429.8Zm-13,60.3.3,1.1-1.9.5Zm6.9,14.2,2,2.7a58.7,58.7,0,0,1-8.8,5.3C1405.5,509.9,1407.7,507.2,1410,504.3Zm4.9-10.6a84.9,84.9,0,0,0,6.5-7.7c1.7,2.5,3.5,4.9,5.3,7.1-2.1,2.4-4.1,4.7-6.2,6.7C1418.6,498,1416.8,495.9,1414.9,493.7Zm-.6-25.8.5.9-2.9,2Zm21.1,34.7c.5,2,.9,4,1.4,5.9a35.3,35.3,0,0,1-8.4-3q1.9-2.8,3.9-6C1433.3,500.6,1434.4,501.6,1435.4,502.6Zm-11-.1c1.5-2.1,3-4.4,4.5-6.7l.9,1.1C1428,498.9,1426.2,500.8,1424.4,502.5Zm13-24.1a32.2,32.2,0,0,1-8.5-3.4l1.9-3.1a55.8,55.8,0,0,0,6.7,6.3C1437.4,478.2,1437.4,478.3,1437.4,478.4Zm-10.6-4.7-1.7-1.2a47.3,47.3,0,0,1-4.6-4.4c1.1-1.6,2.1-3.3,3.2-5.1a74,74,0,0,0,5.7,7.3Zm-1.2-15.1-2.7-2.7,2.4-4a130.4,130.4,0,0,0,6.6,11.8,42.8,42.8,0,0,1-5.9-4.8l1-1.9Zm7.1-4.6a33.6,33.6,0,0,1-7-2.7c1.6-2.9,3.2-5.8,4.8-8.9a79.3,79.3,0,0,0,9,11.5A22.1,22.1,0,0,1,1432.7,454Zm-12.3-.9-.8-1a160.5,160.5,0,0,0,7.8-14.4,7.1,7.1,0,0,1,1,1.4l1.5,2.3A98.2,98.2,0,0,1,1420.4,453.1Zm-2.2,1.4.3.5-1.8,1.7Zm-6.2-11.6,2.7,5.4a35,35,0,0,1-6,3.2c-.1-1.3-.3-2.7-.4-4Zm8.9,16,1.8,2.8a55.1,55.1,0,0,1-4.3,4.1l-1.2-1.5C1418.4,462.6,1419.7,460.8,1420.9,458.9Zm-7.4,19.3c.6-.8,1.2-1.5,1.7-2.3l3.7,6.2-3.2,2.9a46.3,46.3,0,0,1-5.1,3.1l-2.4-3.3C1410,482.7,1411.8,480.5,1413.5,478.2Zm-4.9,36.7h-.1C1408.6,515,1408.6,515,1408.6,514.9Zm47.1-92.4a8.8,8.8,0,0,0,.5,1.5l-3.4-.3Zm14-14.6-2.5.6-1.4-2.2,1.8-4.1Zm15.7,77.4-.8.8a34.7,34.7,0,0,1-4.5-2.6l1.5-2C1482.9,482.8,1484.1,484.1,1485.4,485.3Zm-8,4.4-1.3-1a1,1,0,0,1,.4-.5Zm-12.6-33.5c.8,1.5,1.5,3,2.3,4.4a26.4,26.4,0,0,1-4.6,1.3C1463.3,460.1,1464,458.2,1464.8,456.2Zm-4.1-9.4a8.8,8.8,0,0,0,.5,1.5h-3.1Zm3.7,28.8a77.1,77.1,0,0,0,7-7.8c1.2,2,2.5,3.8,3.8,5.6a45.4,45.4,0,0,1-4.5,2.1c-.6-.6-1.2-1.3-1.9-1.9a22.6,22.6,0,0,1,1.1,2.2,37.4,37.4,0,0,1-4.5,1.2Zm23.6-15a50.2,50.2,0,0,1-8.4-6.2,31.8,31.8,0,0,1,1.6-3.2,80.6,80.6,0,0,0,7.4,8.6Zm-8.3-18.8a22.1,22.1,0,0,1-5.1-.5,111.1,111.1,0,0,0,6.5,9.8l-2.5,2.3a77.7,77.7,0,0,1-10.3-12.3,73.1,73.1,0,0,0,7.7-8.6C1477.2,435.7,1478.4,438.8,1479.7,441.8Zm-15.1-6.9a73.3,73.3,0,0,0,7.7-9.2l1.8,3.2A34.2,34.2,0,0,1,1464.6,434.9ZM1473,416a57.2,57.2,0,0,1-3.7-4.6l1.2-1.5C1471.3,412,1472.1,414.1,1473,416Zm-6.5-1.6c1,2,1.9,4,2.9,5.8a25.4,25.4,0,0,1-11,3.8l-1.1-2.3A39.8,39.8,0,0,0,1466.5,414.4Zm19.6,1.7.8-1.5c1.4,1.4,2.8,2.6,4.2,3.8A37.1,37.1,0,0,1,1486.1,416.1Zm2.2-16.2c-5.8-2.9-11.6-8.2-17.2-16.2l-2.2-2.8a56.9,56.9,0,0,0,3.2-5.5C1477.2,385.9,1482.6,394.1,1488.3,399.9Zm-18.9-30.4c.7,1.8,1.5,3.4,2.3,5a20.6,20.6,0,0,1-5.9,2h0Q1467.6,373.3,1469.4,369.5Zm-6.6,19.8c1.5-1.8,2.9-3.7,4.4-5.8,6.1,13.5,12.6,23.8,19.4,30.8l-1,1.5a51.5,51.5,0,0,1-13.5-12.8,39.5,39.5,0,0,1-5.7-4,14.3,14.3,0,0,1,.8,2.2,28.4,28.4,0,0,1-3.8,1.3c-1.7-2.8-3.3-5.8-4.9-9A42.1,42.1,0,0,0,1462.8,389.3Zm-4.7,4.6c1.1,3.1,2.3,6.1,3.4,9a24.1,24.1,0,0,1-6-.1,45.5,45.5,0,0,1-4-4.6A30.9,30.9,0,0,0,1458.1,393.9Zm-32.6,26.7c7.6,11.8,15.7,19.2,24,22.2-5.3-.4-10.7-2.7-15.9-6.8l.3-.6-.4.6a63.4,63.4,0,0,1-10.4-10.8Zm-23.4,5.7a95.8,95.8,0,0,0,11.5-15.2c1.6,3.8,3.2,7.3,4.8,10.7-6.9,8.4-14.1,13.9-21.4,16.4-.2-1.3-.3-2.7-.5-4C1398.4,431.7,1400.3,429.1,1402.1,426.3Zm-38,79.6a40.5,40.5,0,0,1-4.8.9,66.4,66.4,0,0,1-10.1-8.1l2.2-5.8A92.5,92.5,0,0,0,1364.1,505.9Zm-50.7,11a83.4,83.4,0,0,0,12.9-15.5,57.4,57.4,0,0,0,10.4,7.2,44.8,44.8,0,0,1-5,4.8,49.4,49.4,0,0,1-13.6,10.7,135.4,135.4,0,0,0,10-17.1A41.4,41.4,0,0,1,1313.4,516.9Zm14-27.9c1.7-3.1,3.3-6.5,4.9-10,.7,1.3,1.4,2.5,2,3.8a83.6,83.6,0,0,1-5.9,7.8A14,14,0,0,0,1327.4,489Zm-2.9,5.9-1,1,1-1.6Zm14.8,10.8a122.6,122.6,0,0,1-8.5-11.5c1.6-2.9,3.2-5.9,4.8-9.1a168.7,168.7,0,0,0,9.2,14.3c-1.7,1.9-3.3,3.6-4.5,5.2Zm-3-22c1.2-2.5,2.4-5,3.6-7.7a122.1,122.1,0,0,0,11.1,16.3,56.3,56.3,0,0,1-3.8,4.5A114.6,114.6,0,0,1,1336.3,483.7Zm3.4-39.3c1-3.6,2.1-7.3,3.1-11.1.3,1.9.6,3.7,1,5.6l-1.4,2.6a161.4,161.4,0,0,0,12.7,21.7,61.9,61.9,0,0,1-9.6-7.4l-.3,4.4a128.9,128.9,0,0,0,14.9,21,65.1,65.1,0,0,1-15.8-13c2.4,4.9,4.9,9.6,7.5,13.9a87.1,87.1,0,0,1-10.3-10l2.7-6.7c-1,2.2-2.1,4.2-3.1,6.1-1.6-1.8-3.2-3.8-4.8-5.9,1,3.1,2,6.1,3.1,9-1.5,2.6-3,5-4.4,7.2l-2.4-3.5a75.6,75.6,0,0,0,3.3-7.6,70.9,70.9,0,0,1-4.5,5.7l-2.4-3.9,2.1,4.2a57.6,57.6,0,0,1-6.2,6l-.7.8-.7-1.1c.1.5.1,1,.2,1.5-5.5,5.2-11,8.3-16.5,9.4C1318.8,485.6,1329.8,469.1,1339.7,444.4Zm4.5,66.8a91.5,91.5,0,0,0,7.3,6.9c-.7-4.9-1.4-8.9-1.7-10.9a57.7,57.7,0,0,1-5.4,3.7l3.1-7.9a95.5,95.5,0,0,0,8.6,9.9c-1.1.6-1.6,6-.8,8.2l-3.8-3c.4,2.5.9,5.3,1.3,8.1l-15.7,3.2Z"/>
  </g>
</svg>
