<svg id="Parallax_background" xmlns="http://www.w3.org/2000/svg" viewBox="0 0 1689 1098">
  <defs>
    <style>
      .cls-1 {
        fill: #898989;
      }
    </style>
  </defs>
  <g id="Stars">
    <path class="cls-1" d="M293.6,251.6a1.9,1.9,0,0,0-1.9,1.9,1.9,1.9,0,1,0,3.8,0A1.9,1.9,0,0,0,293.6,251.6Z"/>
    <path class="cls-1" d="M587.4,320.4a2,2,0,0,0-1.9,1.9,1.9,1.9,0,1,0,3.8,0A2,2,0,0,0,587.4,320.4Z"/>
    <path class="cls-1" d="M513.9,256.1A1.9,1.9,0,0,0,512,258a1.8,1.8,0,0,0,1.9,1.9,1.9,1.9,0,0,0,1.9-1.9A2,2,0,0,0,513.9,256.1Z"/>
    <path class="cls-1" d="M489.7,334.8a1.9,1.9,0,0,0-1.9,1.9,1.8,1.8,0,0,0,1.9,1.9,1.9,1.9,0,0,0,1.9-1.9A2,2,0,0,0,489.7,334.8Z"/>
    <path class="cls-1" d="M397.3,306.8a2,2,0,0,0-1.9,1.9,1.9,1.9,0,0,0,1.9,1.9,1.8,1.8,0,0,0,1.9-1.9A1.9,1.9,0,0,0,397.3,306.8Z"/>
    <path class="cls-1" d="M369.3,394.7a1.9,1.9,0,1,0,1.9,1.8A1.9,1.9,0,0,0,369.3,394.7Z"/>
    <path class="cls-1" d="M501.8,393.9a1.8,1.8,0,0,0-1.9,1.9,1.9,1.9,0,0,0,1.9,1.9,2,2,0,0,0,1.9-1.9A1.9,1.9,0,0,0,501.8,393.9Z"/>
    <path class="cls-1" d="M524.5,275.8a1.8,1.8,0,0,0-1.9,1.9,1.9,1.9,0,0,0,1.9,1.9,2,2,0,0,0,1.9-1.9A1.9,1.9,0,0,0,524.5,275.8Z"/>
    <path class="cls-1" d="M495,244a1.9,1.9,0,1,0,0,3.8,1.9,1.9,0,0,0,0-3.8Z"/>
    <path class="cls-1" d="M211.8,289.4a1.9,1.9,0,0,0-1.8,1.9,1.8,1.8,0,0,0,1.8,1.9,1.8,1.8,0,0,0,1.9-1.9A1.9,1.9,0,0,0,211.8,289.4Z"/>
    <path class="cls-1" d="M189.9,216a1.8,1.8,0,0,0-1.9,1.9,1.9,1.9,0,0,0,1.9,1.9,2,2,0,0,0,1.9-1.9A1.9,1.9,0,0,0,189.9,216Z"/>
    <path class="cls-1" d="M619.1,237.2a1.9,1.9,0,0,0-1.9,1.9,2,2,0,0,0,1.9,1.9,1.9,1.9,0,0,0,1.9-1.9A1.8,1.8,0,0,0,619.1,237.2Z"/>
    <path class="cls-1" d="M376.9,216a1.8,1.8,0,0,0-1.9,1.9,1.9,1.9,0,0,0,1.9,1.9,2,2,0,0,0,1.9-1.9A1.9,1.9,0,0,0,376.9,216Z"/>
    <path class="cls-1" d="M406.4,244a1.9,1.9,0,1,0,0,3.8,1.9,1.9,0,1,0,0-3.8Z"/>
    <path class="cls-1" d="M326.2,334.8a1.9,1.9,0,0,0-1.9,1.9,1.8,1.8,0,0,0,1.9,1.9,1.8,1.8,0,0,0,1.8-1.9A1.9,1.9,0,0,0,326.2,334.8Z"/>
    <path class="cls-1" d="M426.1,434a1.9,1.9,0,0,0-1.9,1.9,1.8,1.8,0,0,0,1.9,1.9,1.9,1.9,0,0,0,1.9-1.9A2,2,0,0,0,426.1,434Z"/>
    <path class="cls-1" d="M700.6,253a1.9,1.9,0,0,0-1.9,1.9,1.8,1.8,0,0,0,1.9,1.9,1.9,1.9,0,0,0,1.9-1.9A2,2,0,0,0,700.6,253Z"/>
    <path class="cls-1" d="M1004.4,338.9a1.8,1.8,0,0,0-1.9,1.9,1.9,1.9,0,0,0,1.9,1.9,2,2,0,0,0,1.9-1.9A1.9,1.9,0,0,0,1004.4,338.9Z"/>
    <path class="cls-1" d="M920.9,257.6a1.8,1.8,0,0,0-1.9,1.9,1.9,1.9,0,0,0,1.9,1.9,2,2,0,0,0,1.9-1.9A1.9,1.9,0,0,0,920.9,257.6Z"/>
    <path class="cls-1" d="M896.6,336.3a1.9,1.9,0,0,0-1.9,1.9,2,2,0,0,0,1.9,1.9,1.9,1.9,0,0,0,1.9-1.9A1.8,1.8,0,0,0,896.6,336.3Z"/>
    <path class="cls-1" d="M804.3,308.3a1.8,1.8,0,0,0-1.9,1.9,1.9,1.9,0,0,0,1.9,1.9,2,2,0,0,0,1.9-1.9A1.9,1.9,0,0,0,804.3,308.3Z"/>
    <path class="cls-1" d="M776.3,396.1a1.8,1.8,0,0,0-1.9,1.9,1.9,1.9,0,0,0,1.9,1.9,2,2,0,0,0,1.9-1.9A1.9,1.9,0,0,0,776.3,396.1Z"/>
    <path class="cls-1" d="M908.8,395.3a1.9,1.9,0,0,0-1.9,1.9,1.8,1.8,0,0,0,1.9,1.9,1.8,1.8,0,0,0,1.8-1.9A1.9,1.9,0,0,0,908.8,395.3Z"/>
    <path class="cls-1" d="M618.8,290.9a1.9,1.9,0,0,0-1.9,1.9,2,2,0,0,0,1.9,1.9,1.9,1.9,0,0,0,1.9-1.9A1.8,1.8,0,0,0,618.8,290.9Z"/>
    <path class="cls-1" d="M596.9,217.4a1.9,1.9,0,0,0-1.9,1.9,1.8,1.8,0,0,0,1.9,1.9,1.9,1.9,0,0,0,1.9-1.9A2,2,0,0,0,596.9,217.4Z"/>
    <path class="cls-1" d="M1026.1,238.6a1.9,1.9,0,0,0-1.9,1.9,1.8,1.8,0,0,0,1.9,1.9,1.9,1.9,0,0,0,1.9-1.9A2,2,0,0,0,1026.1,238.6Z"/>
    <path class="cls-1" d="M783.8,217.4a1.9,1.9,0,0,0-1.8,1.9,1.8,1.8,0,0,0,1.8,1.9,1.8,1.8,0,0,0,1.9-1.9A1.9,1.9,0,0,0,783.8,217.4Z"/>
    <path class="cls-1" d="M813.4,245.5a1.8,1.8,0,0,0-1.9,1.8,1.8,1.8,0,0,0,1.9,1.9,1.9,1.9,0,1,0,0-3.7Z"/>
    <path class="cls-1" d="M733.1,336.3a1.9,1.9,0,0,0-1.9,1.9,2,2,0,0,0,1.9,1.9,1.9,1.9,0,0,0,1.9-1.9A1.8,1.8,0,0,0,733.1,336.3Z"/>
    <path class="cls-1" d="M833.1,435.5a1.8,1.8,0,0,0-1.9,1.9,1.8,1.8,0,0,0,1.9,1.8,1.8,1.8,0,0,0,1.8-1.8A1.8,1.8,0,0,0,833.1,435.5Z"/>
    <path class="cls-1" d="M1268.8,246.5a1.9,1.9,0,1,0-3.8,0,1.9,1.9,0,1,0,3.8,0Z"/>
    <path class="cls-1" d="M973.1,313.4a2,2,0,0,0-1.9,1.9,1.9,1.9,0,1,0,3.8,0A2,2,0,0,0,973.1,313.4Z"/>
    <path class="cls-1" d="M1085.6,261.1a2,2,0,0,0-1.9,1.9,1.9,1.9,0,0,0,1.9,1.9,1.8,1.8,0,0,0,1.9-1.9A1.9,1.9,0,0,0,1085.6,261.1Z"/>
    <path class="cls-1" d="M1070.8,327.8a2,2,0,0,0-1.9,1.9,1.9,1.9,0,0,0,1.9,1.9,1.8,1.8,0,0,0,1.9-1.9A1.9,1.9,0,0,0,1070.8,327.8Z"/>
    <path class="cls-1" d="M1163.2,299.8a1.9,1.9,0,0,0-1.9,1.9,1.8,1.8,0,0,0,1.9,1.9,1.9,1.9,0,0,0,1.9-1.9A2,2,0,0,0,1163.2,299.8Z"/>
    <path class="cls-1" d="M1191.2,387.6a2,2,0,0,0-1.9,1.9,1.9,1.9,0,1,0,3.8,0A2,2,0,0,0,1191.2,387.6Z"/>
    <path class="cls-1" d="M1058.7,386.9a1.9,1.9,0,0,0-1.9,1.9,2,2,0,0,0,1.9,1.9,1.9,1.9,0,0,0,1.9-1.9A1.8,1.8,0,0,0,1058.7,386.9Z"/>
    <path class="cls-1" d="M1348.7,282.4a1.9,1.9,0,0,0-1.9,1.9,1.8,1.8,0,0,0,1.9,1.9,1.8,1.8,0,0,0,1.8-1.9A1.9,1.9,0,0,0,1348.7,282.4Z"/>
    <path class="cls-1" d="M1370.6,209a1.9,1.9,0,0,0-1.9,1.9,2,2,0,0,0,1.9,1.9,1.9,1.9,0,0,0,1.9-1.9A1.8,1.8,0,0,0,1370.6,209Z"/>
    <path class="cls-1" d="M941.4,230.2a1.8,1.8,0,0,0-1.9,1.9,1.9,1.9,0,0,0,1.9,1.9,2,2,0,0,0,1.9-1.9A1.9,1.9,0,0,0,941.4,230.2Z"/>
    <path class="cls-1" d="M1183.6,209a1.9,1.9,0,0,0-1.9,1.9,2,2,0,0,0,1.9,1.9,1.9,1.9,0,0,0,1.9-1.9A1.8,1.8,0,0,0,1183.6,209Z"/>
    <path class="cls-1" d="M1154.1,237a1.9,1.9,0,0,0-1.9,1.9,2,2,0,0,0,1.9,1.9,1.9,1.9,0,0,0,1.9-1.9A1.8,1.8,0,0,0,1154.1,237Z"/>
    <path class="cls-1" d="M1234.3,327.8a1.9,1.9,0,0,0-1.8,1.9,1.8,1.8,0,0,0,1.8,1.9,1.8,1.8,0,0,0,1.9-1.9A1.9,1.9,0,0,0,1234.3,327.8Z"/>
    <path class="cls-1" d="M1134.4,427a1.9,1.9,0,1,0,0,3.8,1.9,1.9,0,0,0,0-3.8Z"/>
    <circle class="cls-1" cx="1191" cy="483.4" r="1.9"/>
    <path class="cls-1" d="M1269.9,454.8a1.8,1.8,0,0,0-1.9,1.9,1.9,1.9,0,0,0,1.9,1.9,2,2,0,0,0,1.9-1.9A1.9,1.9,0,0,0,1269.9,454.8Z"/>
    <path class="cls-1" d="M1403.4,353.8a1.8,1.8,0,0,0-1.9,1.9,1.9,1.9,0,0,0,1.9,1.9,2,2,0,0,0,1.9-1.9A1.9,1.9,0,0,0,1403.4,353.8Z"/>
    <path class="cls-1" d="M1460.4,221.9a1.8,1.8,0,0,0-1.9,1.9,1.8,1.8,0,0,0,1.9,1.8,1.9,1.9,0,1,0,0-3.7Z"/>
    <path class="cls-1" d="M1477.6,304.9a1.9,1.9,0,1,0,0,3.7,1.8,1.8,0,0,0,1.9-1.8A1.8,1.8,0,0,0,1477.6,304.9Z"/>
    <path class="cls-1" d="M652.9,423.1a1.9,1.9,0,0,0-1.9-1.9,2,2,0,0,0-1.9,1.9A1.9,1.9,0,0,0,651,425,1.8,1.8,0,0,0,652.9,423.1Z"/>
    <path class="cls-1" d="M357.2,490.1a1.9,1.9,0,0,0-1.8,1.9,1.8,1.8,0,0,0,1.8,1.9,1.8,1.8,0,0,0,1.9-1.9A1.9,1.9,0,0,0,357.2,490.1Z"/>
    <path class="cls-1" d="M469.8,437.8a1.8,1.8,0,0,0-1.9,1.9,1.9,1.9,0,1,0,3.7,0A1.8,1.8,0,0,0,469.8,437.8Z"/>
    <circle class="cls-1" cx="455" cy="506.4" r="1.9"/>
    <path class="cls-1" d="M547.3,476.5a1.9,1.9,0,1,0,0,3.8,1.9,1.9,0,1,0,0-3.8Z"/>
    <path class="cls-1" d="M575.3,564.3a2,2,0,0,0-1.9,1.9,1.9,1.9,0,0,0,1.9,1.9,1.8,1.8,0,0,0,1.9-1.9A1.9,1.9,0,0,0,575.3,564.3Z"/>
    <path class="cls-1" d="M442.9,563.6a1.8,1.8,0,0,0-1.9,1.9,1.8,1.8,0,0,0,1.9,1.8,1.9,1.9,0,1,0,0-3.7Z"/>
    <path class="cls-1" d="M732.8,459.1a1.9,1.9,0,0,0-1.9,1.9,1.9,1.9,0,0,0,3.8,0A1.9,1.9,0,0,0,732.8,459.1Z"/>
    <circle class="cls-1" cx="754.7" cy="387.6" r="1.9"/>
    <path class="cls-1" d="M325.5,406.9a1.9,1.9,0,1,0,0,3.7,1.8,1.8,0,0,0,1.9-1.8A1.8,1.8,0,0,0,325.5,406.9Z"/>
    <path class="cls-1" d="M567.8,385.7a1.8,1.8,0,0,0-1.9,1.9,1.9,1.9,0,0,0,1.9,1.9,2,2,0,0,0,1.9-1.9A1.9,1.9,0,0,0,567.8,385.7Z"/>
    <path class="cls-1" d="M655.2,352.7a1.8,1.8,0,0,0-1.8,1.9,1.9,1.9,0,1,0,3.7,0A1.8,1.8,0,0,0,655.2,352.7Z"/>
    <path class="cls-1" d="M618.5,504.5a1.9,1.9,0,0,0-1.9,1.9,1.8,1.8,0,0,0,1.9,1.9,1.9,1.9,0,0,0,1.9-1.9A2,2,0,0,0,618.5,504.5Z"/>
    <path class="cls-1" d="M518.6,603.7a1.8,1.8,0,0,0-1.9,1.9,1.9,1.9,0,0,0,1.9,1.9,2,2,0,0,0,1.9-1.9A1.9,1.9,0,0,0,518.6,603.7Z"/>
    <path class="cls-1" d="M844.5,398.5a2,2,0,0,0-1.9,1.9,1.9,1.9,0,0,0,1.9,1.9,1.8,1.8,0,0,0,1.9-1.9A1.9,1.9,0,0,0,844.5,398.5Z"/>
    <circle class="cls-1" cx="1549.8" cy="275.3" r="1.9"/>
    <path class="cls-1" d="M1449.6,48.3a1.9,1.9,0,0,0-1.9-1.9,2,2,0,0,0-1.9,1.9,1.9,1.9,0,0,0,1.9,1.9A1.8,1.8,0,0,0,1449.6,48.3Z"/>
    <path class="cls-1" d="M1153.9,115.3a1.9,1.9,0,0,0-1.9,1.9,2,2,0,0,0,1.9,1.9,1.9,1.9,0,0,0,1.9-1.9A1.8,1.8,0,0,0,1153.9,115.3Z"/>
    <path class="cls-1" d="M1266.5,63a1.8,1.8,0,0,0-1.9,1.9,1.8,1.8,0,0,0,1.9,1.8,1.8,1.8,0,0,0,1.8-1.8A1.8,1.8,0,0,0,1266.5,63Z"/>
    <path class="cls-1" d="M1251.7,129.7a1.8,1.8,0,0,0-1.9,1.9,1.9,1.9,0,0,0,1.9,1.9,2,2,0,0,0,1.9-1.9A1.9,1.9,0,0,0,1251.7,129.7Z"/>
    <path class="cls-1" d="M1344,101.7a1.9,1.9,0,0,0-1.9,1.9,2,2,0,0,0,1.9,1.9,1.9,1.9,0,0,0,1.9-1.9A1.8,1.8,0,0,0,1344,101.7Z"/>
    <path class="cls-1" d="M1295.6,174.7a1.9,1.9,0,0,0-1.9,1.9,1.8,1.8,0,0,0,1.9,1.9,1.9,1.9,0,0,0,1.9-1.9A2,2,0,0,0,1295.6,174.7Z"/>
    <path class="cls-1" d="M1529.5,84.3a1.8,1.8,0,0,0-1.9,1.9,1.9,1.9,0,0,0,1.9,1.9,2,2,0,0,0,1.9-1.9A1.9,1.9,0,0,0,1529.5,84.3Z"/>
    <path class="cls-1" d="M1551.4,10.8a1.9,1.9,0,0,0-1.8,1.9,1.8,1.8,0,0,0,1.8,1.9,1.8,1.8,0,0,0,1.9-1.9A1.9,1.9,0,0,0,1551.4,10.8Z"/>
    <path class="cls-1" d="M1122.2,32a2,2,0,0,0-1.9,1.9,1.9,1.9,0,0,0,1.9,1.9,1.8,1.8,0,0,0,1.9-1.9A1.9,1.9,0,0,0,1122.2,32Z"/>
    <path class="cls-1" d="M1364.5,10.8a1.9,1.9,0,0,0-1.9,1.9,1.8,1.8,0,0,0,1.9,1.9,1.9,1.9,0,0,0,1.9-1.9A2,2,0,0,0,1364.5,10.8Z"/>
    <path class="cls-1" d="M1334.9,38.9a1.8,1.8,0,0,0-1.8,1.8,1.8,1.8,0,0,0,1.8,1.9,1.8,1.8,0,0,0,1.9-1.9A1.8,1.8,0,0,0,1334.9,38.9Z"/>
    <path class="cls-1" d="M1415.2,129.7a1.8,1.8,0,0,0-1.9,1.9,1.9,1.9,0,0,0,1.9,1.9,2,2,0,0,0,1.9-1.9A1.9,1.9,0,0,0,1415.2,129.7Z"/>
    <path class="cls-1" d="M1499.3,174.9a1.8,1.8,0,0,0-1.9,1.8,1.8,1.8,0,0,0,1.9,1.9,1.9,1.9,0,1,0,0-3.7Z"/>
    <path class="cls-1" d="M1125.7,172.6a2,2,0,0,0-1.9,1.9,1.9,1.9,0,0,0,1.9,1.9,1.8,1.8,0,0,0,1.9-1.9A1.9,1.9,0,0,0,1125.7,172.6Z"/>
    <path class="cls-1" d="M1584.2,155.6a2,2,0,0,0-1.9,1.9,1.9,1.9,0,0,0,1.9,1.9,1.8,1.8,0,0,0,1.9-1.9A1.9,1.9,0,0,0,1584.2,155.6Z"/>
    <path class="cls-1" d="M1641.2,23.7a1.9,1.9,0,0,0,0,3.8,1.9,1.9,0,0,0,0-3.8Z"/>
    <path class="cls-1" d="M1658.5,106.7a1.9,1.9,0,0,0,0,3.8,1.9,1.9,0,1,0,0-3.8Z"/>
    <path class="cls-1" d="M840.8,60.9a1.8,1.8,0,0,0-2-1.8A1.9,1.9,0,0,0,837,61a1.8,1.8,0,0,0,2,1.8A1.9,1.9,0,0,0,840.8,60.9Z"/>
    <path class="cls-1" d="M547.8,138.6a1.9,1.9,0,0,0-1.9,1.9,2.1,2.1,0,0,0,2,1.9,1.9,1.9,0,0,0,1.8-2A1.9,1.9,0,0,0,547.8,138.6Z"/>
    <path class="cls-1" d="M658.3,82.2a1.8,1.8,0,0,0-1.8,2,1.9,1.9,0,0,0,1.9,1.8,1.8,1.8,0,0,0,1.8-2A1.9,1.9,0,0,0,658.3,82.2Z"/>
    <path class="cls-1" d="M646,149.4a1.9,1.9,0,1,0,.1,3.8,1.8,1.8,0,0,0,1.8-2A1.9,1.9,0,0,0,646,149.4Z"/>
    <path class="cls-1" d="M737.2,118.1a1.9,1.9,0,0,0-1.8,1.9,1.8,1.8,0,0,0,2,1.8,1.9,1.9,0,0,0,1.8-1.9A1.8,1.8,0,0,0,737.2,118.1Z"/>
    <path class="cls-1" d="M691.5,192.8a2,2,0,0,0-1.9,2,1.9,1.9,0,0,0,2,1.8,1.8,1.8,0,0,0,1.8-1.9A1.9,1.9,0,0,0,691.5,192.8Z"/>
    <path class="cls-1" d="M921.9,93.9a1.9,1.9,0,0,0,.2,3.8,2,2,0,0,0,1.8-2A1.9,1.9,0,0,0,921.9,93.9Z"/>
    <path class="cls-1" d="M941.2,19.7a1.8,1.8,0,0,0-1.8,2,1.9,1.9,0,0,0,1.9,1.8,1.9,1.9,0,0,0,1.9-2A2,2,0,0,0,941.2,19.7Z"/>
    <path class="cls-1" d="M513,56.5a2,2,0,0,0-1.8,2,1.8,1.8,0,0,0,2,1.8,1.9,1.9,0,0,0,1.8-1.9A1.9,1.9,0,0,0,513,56.5Z"/>
    <path class="cls-1" d="M754.3,26.5a2,2,0,0,0-1.8,2,1.9,1.9,0,0,0,2,1.8,1.9,1.9,0,0,0,1.8-1.9A1.9,1.9,0,0,0,754.3,26.5Z"/>
    <path class="cls-1" d="M725.9,55.6a1.9,1.9,0,0,0-1.9,2,2,2,0,0,0,2,1.8,1.9,1.9,0,0,0,1.8-2A1.9,1.9,0,0,0,725.9,55.6Z"/>
    <path class="cls-1" d="M809.4,143.5a1.9,1.9,0,0,0-1.9,1.9,1.8,1.8,0,0,0,2,1.8,1.8,1.8,0,0,0,1.8-1.9A1.8,1.8,0,0,0,809.4,143.5Z"/>
    <path class="cls-1" d="M895,185.5a2,2,0,0,0-1.8,2,1.9,1.9,0,1,0,3.8-.2A2,2,0,0,0,895,185.5Z"/>
    <path class="cls-1" d="M521.7,196.9a1.9,1.9,0,0,0-1.9,2,2,2,0,0,0,2,1.8,1.8,1.8,0,0,0,1.8-2A1.9,1.9,0,0,0,521.7,196.9Z"/>
    <path class="cls-1" d="M979.2,163.2a1.8,1.8,0,0,0-1.8,2,1.9,1.9,0,0,0,1.9,1.8,1.9,1.9,0,0,0,1.9-2A2,2,0,0,0,979.2,163.2Z"/>
    <path class="cls-1" d="M1031.4,29.3a1.9,1.9,0,0,0-1.9,2,2,2,0,0,0,2,1.8,1.9,1.9,0,0,0,1.8-2A1.9,1.9,0,0,0,1031.4,29.3Z"/>
    <path class="cls-1" d="M1051.6,111.6a1.9,1.9,0,0,0,.2,3.8,1.9,1.9,0,1,0-.2-3.8Z"/>
    <path class="cls-1" d="M342.5,79.6a1.9,1.9,0,1,0-2.1,1.6A1.9,1.9,0,0,0,342.5,79.6Z"/>
    <path class="cls-1" d="M40.5,106.5a1.9,1.9,0,0,0-2.1,1.6,1.9,1.9,0,0,0,1.6,2.2,1.9,1.9,0,0,0,2.1-1.6A1.9,1.9,0,0,0,40.5,106.5Z"/>
    <path class="cls-1" d="M159,69.7a1.8,1.8,0,0,0-2.1,1.6,1.8,1.8,0,0,0,1.6,2.1,1.9,1.9,0,0,0,2.1-1.6A1.8,1.8,0,0,0,159,69.7Z"/>
    <path class="cls-1" d="M135.5,133.8a1.9,1.9,0,1,0-.5,3.8,1.9,1.9,0,0,0,.5-3.8Z"/>
    <path class="cls-1" d="M230.7,118.4a1.8,1.8,0,0,0-2.1,1.6,1.9,1.9,0,0,0,1.6,2.1,1.9,1.9,0,1,0,.5-3.7Z"/>
    <path class="cls-1" d="M126,251.3a1.9,1.9,0,1,0,1.6,2.1A2,2,0,0,0,126,251.3Z"/>
    <path class="cls-1" d="M416.8,125.8a1.9,1.9,0,0,0-.5,3.8,1.9,1.9,0,1,0,.5-3.8Z"/>
    <path class="cls-1" d="M448.4,56a1.9,1.9,0,1,0,1.6,2.1A1.8,1.8,0,0,0,448.4,56Z"/>
    <path class="cls-1" d="M20.2,19.8a1.9,1.9,0,1,0,1.6,2.1A1.9,1.9,0,0,0,20.2,19.8Z"/>
    <path class="cls-1" d="M263.1,31.1a1.9,1.9,0,1,0-.5,3.7,1.8,1.8,0,0,0,2.1-1.6A1.9,1.9,0,0,0,263.1,31.1Z"/>
    <path class="cls-1" d="M230.1,54.9a1.9,1.9,0,1,0-.5,3.7,1.8,1.8,0,0,0,2.1-1.6A1.8,1.8,0,0,0,230.1,54.9Z"/>
    <path class="cls-1" d="M297.5,155.6a1.9,1.9,0,0,0-2.1,1.6,1.9,1.9,0,0,0,1.6,2.2,1.9,1.9,0,0,0,2.1-1.7A1.9,1.9,0,0,0,297.5,155.6Z"/>
    <path class="cls-1" d="M309.8,196.6a1.9,1.9,0,1,0,1.6,2.1A1.8,1.8,0,0,0,309.8,196.6Z"/>
    <path class="cls-1" d="M374.9,30.6a1.9,1.9,0,1,0,1.6,2.1A1.8,1.8,0,0,0,374.9,30.6Z"/>
    <path class="cls-1" d="M461.6,203.8a2,2,0,0,0-2.2,1.7,2,2,0,0,0,1.7,2.1,1.9,1.9,0,0,0,2.1-1.6A2,2,0,0,0,461.6,203.8Z"/>
    <path class="cls-1" d="M535.6,80.7a2,2,0,0,0-2.1,1.6,1.9,1.9,0,0,0,3.8.5A1.9,1.9,0,0,0,535.6,80.7Z"/>
    <path class="cls-1" d="M612.7,40.3a1.7,1.7,0,0,0-2.1,1.6,1.8,1.8,0,0,0,1.6,2.1,1.9,1.9,0,0,0,2.1-1.6A1.8,1.8,0,0,0,612.7,40.3Z"/>
  </g>
</svg>
